<?xml version="1.0" encoding="utf-8"?>
<!-- Generator: Adobe Illustrator 18.0.0, SVG Export Plug-In . SVG Version: 6.00 Build 0)  -->
<!DOCTYPE svg PUBLIC "-//W3C//DTD SVG 1.1//EN" "http://www.w3.org/Graphics/SVG/1.1/DTD/svg11.dtd">
<svg version="1.1" id="Layer_1" xmlns="http://www.w3.org/2000/svg" xmlns:xlink="http://www.w3.org/1999/xlink" width="700" height="500" x="0px" y="0px"
	 viewBox="0 0 1280 800" enable-background="new 0 0 1280 800" xml:space="preserve">
<g>
	<polygon fill="none" points="1277.1,800.6 -2.9,800.6 0.1,-0.4 1280.1,-0.4 	"/>
</g>
<g fill="#0A0A0A" stroke="#0A0A0A">
	<path  d="M377,240c-2.1,0-4.1-0.2-6.1-0.5l0.4-2.5c1.9,0.3,3.8,0.5,5.7,0.5l0.1,0v2.5L377,240z M383.2,239.4l-0.4-2.5
		c1.9-0.3,3.7-0.8,5.5-1.5l0.9,2.4C387.2,238.5,385.2,239.1,383.2,239.4z M364.9,237.9c-1.9-0.7-3.8-1.5-5.6-2.5l1.2-2.2
		c1.7,0.9,3.4,1.7,5.2,2.4L364.9,237.9z M394.7,235.3l-1.2-2.2c1.6-0.9,3.3-2,4.8-3.2l1.5,2C398.2,233.2,396.5,234.3,394.7,235.3z
		 M354.2,232c-1.6-1.2-3.1-2.6-4.6-4l1.8-1.8c1.4,1.4,2.8,2.7,4.3,3.8L354.2,232z M404.4,227.8l-1.8-1.8c1.3-1.4,2.6-2.8,3.8-4.4
		l2,1.5C407.1,224.9,405.8,226.4,404.4,227.8z M345.6,223.4c-1.2-1.6-2.4-3.3-3.4-5l2.1-1.3c1,1.7,2.1,3.3,3.3,4.8L345.6,223.4z
		 M411.8,218.2l-2.1-1.3c1-1.6,1.9-3.4,2.7-5.1l2.3,1C413.8,214.7,412.8,216.5,411.8,218.2z M339.3,213c-0.8-1.8-1.6-3.7-2.3-5.6
		l2.4-0.8c0.6,1.8,1.4,3.7,2.2,5.4L339.3,213z M416.9,207.2l-2.4-0.8c0.6-1.8,1.2-3.7,1.6-5.6l2.4,0.6
		C418.1,203.3,417.5,205.3,416.9,207.2z M335.4,201.5c-0.5-1.9-0.8-4-1.1-6l2.5-0.3c0.3,1.9,0.6,3.9,1.1,5.7L335.4,201.5z
		 M419.6,195.4l-2.5-0.3c0.3-1.9,0.4-3.9,0.5-5.8l2.5,0.1C420.1,191.4,419.9,193.4,419.6,195.4z M333.7,189.5c0-1-0.1-2-0.1-3.1
		c0-1,0-2,0.1-3l2.5,0.1c0,1-0.1,1.9-0.1,2.9c0,1,0,2,0.1,3L333.7,189.5z M417.6,183.4c-0.1-1.9-0.3-3.9-0.5-5.8l2.5-0.3
		c0.3,2,0.5,4,0.6,6L417.6,183.4z M336.8,177.8l-2.5-0.3c0.3-2,0.6-4,1.1-6l2.4,0.6C337.4,173.9,337,175.9,336.8,177.8z M416,171.9
		c-0.4-1.9-1-3.8-1.6-5.6l2.4-0.8c0.7,1.9,1.2,3.9,1.7,5.8L416,171.9z M339.4,166.5l-2.4-0.8c0.7-1.9,1.4-3.8,2.2-5.6l2.3,1
		C340.8,162.8,340,164.6,339.4,166.5z M412.3,160.9c-0.8-1.8-1.7-3.5-2.7-5.1l2.1-1.3c1,1.7,2,3.5,2.8,5.4L412.3,160.9z
		 M344.3,155.9l-2.1-1.3c1.1-1.8,2.2-3.4,3.4-5l2,1.5C346.4,152.7,345.3,154.3,344.3,155.9z M406.3,151c-1.2-1.5-2.5-3-3.8-4.3
		l1.8-1.8c1.4,1.4,2.8,3,4,4.6L406.3,151z M351.3,146.8l-1.8-1.8c1.4-1.5,3-2.8,4.6-4l1.5,2C354.1,144.1,352.7,145.4,351.3,146.8z
		 M398.1,142.9c-1.5-1.2-3.2-2.2-4.8-3.1l1.2-2.2c1.8,1,3.5,2.1,5.1,3.3L398.1,142.9z M360.4,139.8l-1.2-2.2c1.8-1,3.7-1.9,5.6-2.5
		l0.8,2.4C363.9,138.1,362.1,138.9,360.4,139.8z M388.1,137.4c-1.8-0.6-3.7-1.1-5.5-1.5l0.4-2.5c2,0.3,4,0.9,5.9,1.6L388.1,137.4z
		 M371.2,136l-0.4-2.5c2-0.4,4.1-0.5,6.1-0.5l0,2.5C375,135.5,373,135.6,371.2,136z"/>
</g>
<g fill="#0A0A0A" stroke="#0A0A0A">
	<path d="M895.6,244.2h-0.2c-2.1,0-4.2-0.2-6.2-0.5l0.4-2.5c1.9,0.3,3.8,0.5,5.8,0.5h0.2V244.2z M901.7,243.7l-0.4-2.5
		c1.9-0.3,3.8-0.8,5.6-1.5l0.9,2.4C905.8,242.8,903.8,243.3,901.7,243.7z M883.2,242.1c-1.9-0.7-3.8-1.5-5.6-2.6l1.2-2.2
		c1.7,0.9,3.5,1.7,5.3,2.4L883.2,242.1z M913.4,239.5l-1.2-2.2c1.7-0.9,3.3-2,4.8-3.2l1.5,2C916.9,237.4,915.1,238.5,913.4,239.5z
		 M872.4,236.2c-1.6-1.2-3.2-2.6-4.6-4.1l1.8-1.8c1.4,1.4,2.9,2.7,4.4,3.9L872.4,236.2z M923.1,232l-1.8-1.8
		c1.3-1.4,2.6-2.8,3.8-4.4l2,1.5C925.9,229,924.5,230.6,923.1,232z M863.7,227.5c-1.2-1.6-2.4-3.3-3.5-5.1l2.1-1.3
		c1,1.7,2.1,3.3,3.3,4.8L863.7,227.5z M930.6,222.3l-2.1-1.3c1-1.7,1.9-3.4,2.7-5.2l2.3,1C932.6,218.7,931.6,220.5,930.6,222.3z
		 M857.4,217c-0.8-1.8-1.6-3.7-2.3-5.7l2.4-0.8c0.6,1.9,1.4,3.7,2.2,5.4L857.4,217z M935.7,211.1l-2.4-0.8c0.6-1.8,1.2-3.7,1.6-5.6
		l2.4,0.6C936.9,207.2,936.3,209.2,935.7,211.1z M853.5,205.4c-0.5-2-0.8-4-1.1-6l2.5-0.3c0.3,1.9,0.6,3.9,1.1,5.8L853.5,205.4z
		 M938.5,199.2l-2.5-0.3c0.3-1.9,0.4-3.9,0.5-5.9l2.5,0.1C938.9,195.2,938.8,197.2,938.5,199.2z M851.8,193.3c0-1-0.1-2.1-0.1-3.1
		c0-1,0-2,0.1-3l2.5,0.1c0,1-0.1,1.9-0.1,2.9c0,1,0,2,0.1,3L851.8,193.3z M936.5,187.2c-0.1-2-0.3-3.9-0.5-5.9l2.5-0.3
		c0.3,2,0.5,4.1,0.6,6.1L936.5,187.2z M854.8,181.5l-2.5-0.3c0.3-2,0.7-4,1.1-6l2.4,0.6C855.4,177.6,855.1,179.5,854.8,181.5z
		 M934.9,175.5c-0.5-1.9-1-3.8-1.6-5.6l2.4-0.8c0.7,1.9,1.2,3.9,1.7,5.9L934.9,175.5z M857.5,170l-2.4-0.8c0.7-1.9,1.4-3.9,2.3-5.7
		l2.3,1C858.9,166.3,858.1,168.2,857.5,170z M931.1,164.4c-0.8-1.8-1.7-3.5-2.7-5.2l2.1-1.3c1,1.7,2,3.6,2.9,5.4L931.1,164.4z
		 M862.4,159.4l-2.1-1.3c1.1-1.8,2.2-3.5,3.4-5.1l2,1.5C864.5,156.1,863.4,157.7,862.4,159.4z M925,154.4c-1.2-1.6-2.5-3-3.8-4.4
		l1.8-1.8c1.4,1.4,2.8,3,4.1,4.6L925,154.4z M869.5,150.1l-1.8-1.8c1.5-1.5,3-2.9,4.6-4.1l1.5,2
		C872.4,147.4,870.9,148.7,869.5,150.1z M916.8,146.2c-1.6-1.2-3.2-2.3-4.9-3.2l1.2-2.2c1.8,1,3.5,2.1,5.2,3.4L916.8,146.2z
		 M878.7,143.1l-1.2-2.2c1.8-1,3.7-1.9,5.6-2.6l0.8,2.4C882.2,141.3,880.4,142.1,878.7,143.1z M906.7,140.6
		c-1.8-0.6-3.7-1.1-5.6-1.5l0.4-2.5c2,0.3,4,0.9,6,1.6L906.7,140.6z M889.6,139.2l-0.4-2.5c2-0.4,4.1-0.5,6.2-0.5l0,2.5
		C893.4,138.7,891.5,138.9,889.6,139.2z"/>
</g>
<g fill="#0A0A0A" stroke="#0A0A0A">
	<path fill="white" stroke="#000000" stroke-width="2.5" d="M551.9,42.2v11.6h12.9c0.6,0,1.2,0.2,1.6,0.7c0.4,0.5,0.7,1,0.7,1.6
		c0,0.6-0.2,1.2-0.7,1.6c-0.5,0.4-1,0.7-1.6,0.7h-12.9v14c0,0.6-0.2,1.2-0.7,1.6c-0.5,0.5-1,0.7-1.6,0.7c-0.6,0-1.2-0.2-1.6-0.7
		c-0.4-0.4-0.7-1-0.7-1.6V39.9c0-0.6,0.2-1.2,0.7-1.6c0.5-0.5,1-0.7,1.6-0.7h17.6c0.6,0,1.2,0.2,1.6,0.7c0.4,0.4,0.7,1,0.7,1.6
		s-0.2,1.2-0.7,1.6c-0.5,0.5-1,0.7-1.6,0.7H551.9z"/>
	<path fill="white" stroke="#000000" stroke-width="2.5" d="M597.5,47.1c0.6,0,1.2,0.2,1.6,0.7c0.4,0.4,0.7,1,0.7,1.6v23
		c0,0.6-0.2,1.2-0.7,1.6s-1,0.7-1.6,0.7s-1.2-0.2-1.6-0.7c-0.5-0.4-0.7-1-0.7-1.6v-1.2c-2.6,2.3-5.5,3.5-9,3.5c-3.7,0-6.9-1.3-9.6-4
		c-2.7-2.7-4-5.9-4-9.7c0-3.8,1.3-7.1,4-9.7c2.6-2.7,5.8-4.1,9.6-4.1c3.4,0,6.4,1.2,9,3.5v-1.2c0-0.6,0.2-1.2,0.7-1.6
		C596.4,47.3,596.9,47.1,597.5,47.1z M586.3,70c2.5,0,4.6-0.9,6.3-2.7c1.7-1.8,2.6-4,2.6-6.5c0-2.5-0.9-4.7-2.6-6.5
		c-1.8-1.8-3.9-2.7-6.3-2.7c-2.5,0-4.6,0.9-6.3,2.7c-1.8,1.8-2.6,4-2.6,6.5c0,2.5,0.9,4.7,2.6,6.5C581.7,69.1,583.8,70,586.3,70z"/>
	<path fill="white" stroke="#000000" stroke-width="2.5" d="M617.6,47.1c0.6,0,1.2,0.2,1.6,0.7c0.5,0.4,0.7,1,0.7,1.6
		s-0.2,1.2-0.7,1.6c-0.4,0.5-1,0.7-1.6,0.7c-2.2,0-4.1,0.9-5.7,2.7c-1.6,1.8-2.4,4-2.4,6.5v11.5c0,0.6-0.2,1.2-0.7,1.6
		c-0.5,0.4-1,0.7-1.6,0.7c-0.6,0-1.2-0.2-1.6-0.7c-0.4-0.4-0.7-1-0.7-1.6v-23c0-0.6,0.2-1.2,0.7-1.6c0.5-0.5,1-0.7,1.6-0.7
		c0.6,0,1.2,0.2,1.6,0.7c0.4,0.4,0.7,1,0.7,1.6v0.9C611.8,48.1,614.5,47.1,617.6,47.1z"/>
	<path fill="white" stroke="#000000" stroke-width="2.5" d="M654.5,47.1c3.3,0,6.2,1.4,8.5,4.1c2.4,2.7,3.5,5.9,3.5,9.7v11.5
		c0,0.6-0.2,1.2-0.7,1.6c-0.5,0.4-1,0.7-1.6,0.7c-0.6,0-1.2-0.2-1.6-0.7c-0.4-0.5-0.7-1-0.7-1.6V60.9c0-2.5-0.7-4.7-2.2-6.5
		c-1.5-1.8-3.3-2.7-5.3-2.7c-2.1,0-3.8,0.9-5.3,2.7c-1.5,1.8-2.2,4-2.2,6.5v11.5c0,0.6-0.2,1.2-0.7,1.6c-0.5,0.4-1,0.7-1.6,0.7
		c-0.6,0-1.2-0.2-1.6-0.7c-0.4-0.5-0.7-1-0.7-1.6V60.8c0-2.5-0.7-4.7-2.2-6.5c-1.5-1.8-3.3-2.7-5.3-2.7c-2.1,0-3.8,0.9-5.3,2.7
		c-1.5,1.8-2.2,4-2.2,6.5v11.5c0,0.6-0.2,1.2-0.7,1.6c-0.5,0.4-1,0.7-1.6,0.7c-0.6,0-1.2-0.2-1.6-0.7c-0.4-0.4-0.7-1-0.7-1.6v-23
		c0-0.6,0.2-1.2,0.7-1.6c0.5-0.5,1-0.7,1.6-0.7c0.6,0,1.2,0.2,1.6,0.7c0.4,0.4,0.7,1,0.7,1.6v0.7c2.2-2,4.7-3,7.5-3
		c4.1,0,7.4,1.9,9.8,5.7C647.1,49,650.4,47.1,654.5,47.1z"/>
	<path fill="white" stroke="#000000" stroke-width="2.5" d="M673.8,70.6c-1.3-1.3-2.3-2.7-3-4.3c-0.7-1.7-1.1-3.5-1.1-5.3
		c0-3.8,1.4-7.1,4.1-9.8c1.3-1.3,2.8-2.3,4.4-3c1.7-0.7,3.5-1.1,5.4-1.1c3.8,0,7.1,1.4,9.8,4.1c1.3,1.3,2.3,2.7,3,4.4
		c0.7,1.7,1.1,3.5,1.1,5.4c0,0.6-0.2,1.2-0.7,1.6c-0.5,0.5-1,0.7-1.6,0.7h-20.6c0.5,2,1.6,3.6,3.3,4.9c1.7,1.3,3.6,2,5.7,2
		c3.4,0,6-1,7.8-3.1c0.4-0.5,0.9-0.7,1.6-0.8c0.6,0,1.2,0.2,1.7,0.6c0.5,0.4,0.7,1,0.8,1.6c0,0.6-0.2,1.2-0.6,1.6
		c-2.7,3.1-6.5,4.6-11.2,4.6C679.8,74.6,676.5,73.3,673.8,70.6z M692.6,58.6c-0.5-2-1.6-3.7-3.2-5c-1.7-1.3-3.6-2-5.7-2
		c-2.1,0-4.1,0.7-5.8,2c-1.6,1.3-2.7,3-3.2,5H692.6z"/>
	<path fill="white" stroke="#000000" stroke-width="2.5" d="M713.8,47.1c0.6,0,1.2,0.2,1.6,0.7c0.5,0.4,0.7,1,0.7,1.6
		s-0.2,1.2-0.7,1.6c-0.4,0.5-1,0.7-1.6,0.7c-2.2,0-4.1,0.9-5.7,2.7c-1.6,1.8-2.4,4-2.4,6.5v11.5c0,0.6-0.2,1.2-0.7,1.6
		c-0.5,0.4-1,0.7-1.6,0.7c-0.6,0-1.2-0.2-1.6-0.7c-0.4-0.4-0.7-1-0.7-1.6v-23c0-0.6,0.2-1.2,0.7-1.6c0.5-0.5,1-0.7,1.6-0.7
		c0.6,0,1.2,0.2,1.6,0.7c0.4,0.4,0.7,1,0.7,1.6v0.9C708,48.1,710.7,47.1,713.8,47.1z"/>
	<path fill="white" stroke="#000000" stroke-width="2.5" d="M721,72.9c-1.4-0.9-2.5-2.1-3.3-3.4c-0.3-0.5-0.4-1.1-0.3-1.7
		c0.1-0.6,0.5-1.1,1-1.4c0.5-0.3,1.1-0.4,1.7-0.3c0.6,0.1,1.1,0.5,1.4,1c0.5,0.8,1.1,1.4,2,2c0.9,0.6,1.8,1,2.8,1c1.1,0,2-0.3,2.8-1
		c0.8-0.7,1.2-1.5,1.2-2.4c0-1-0.3-1.7-1-2.2c-0.6-0.4-1.8-0.9-3.6-1.4c-2.4-0.7-4.1-1.4-5.1-2.1c-1.9-1.3-2.8-3.3-2.8-5.8
		c0-2.2,0.8-4.1,2.5-5.7c1.7-1.6,3.7-2.3,6-2.3c1.7,0,3.3,0.4,4.7,1.3c1.4,0.9,2.5,2.1,3.1,3.5c0.3,0.6,0.3,1.2,0.1,1.8
		c-0.2,0.6-0.6,1-1.2,1.3c-0.6,0.3-1.1,0.3-1.7,0.1c-0.6-0.2-1-0.6-1.3-1.2c-0.3-0.7-0.8-1.2-1.4-1.6c-0.7-0.4-1.4-0.6-2.2-0.6
		c-1.1,0-2,0.3-2.8,1c-0.8,0.7-1.1,1.5-1.1,2.4c0,1,0.3,1.7,0.9,2.1c0.6,0.4,1.8,0.8,3.6,1.4c2.4,0.7,4.1,1.4,5.2,2.1
		c1.9,1.4,2.8,3.3,2.8,5.8c0,2.2-0.8,4.1-2.5,5.7c-1.7,1.6-3.7,2.3-6,2.3C724.4,74.6,722.7,74.1,721,72.9z"/>
</g>
<g fill="#0A0A0A" stroke="#0A0A0A">
	<path d="M475.2,88.7c5.1,0,9.4,1.8,13,5.4c3.6,3.6,5.4,7.9,5.4,13c0,5.1-1.8,9.4-5.4,13c-3.6,3.6-7.9,5.4-13,5.4h-8.1
		c-0.6,0-1.2-0.2-1.6-0.7c-0.4-0.4-0.7-1-0.7-1.6V91c0-0.6,0.2-1.2,0.7-1.6c0.5-0.5,1-0.7,1.6-0.7H475.2z M475.2,121
		c3.8,0,7.1-1.4,9.8-4.1c2.7-2.7,4.1-6,4.1-9.8c0-3.8-1.4-7.1-4.1-9.8c-2.7-2.7-6-4.1-9.8-4.1h-5.8V121H475.2z"/>
	<path d="M510.9,98.1c0.6,0,1.2,0.2,1.6,0.7c0.5,0.4,0.7,1,0.7,1.6s-0.2,1.2-0.7,1.6c-0.4,0.5-1,0.7-1.6,0.7c-2.2,0-4.1,0.9-5.7,2.7
		c-1.6,1.8-2.4,4-2.4,6.5v11.5c0,0.6-0.2,1.2-0.7,1.6c-0.5,0.4-1,0.7-1.6,0.7c-0.6,0-1.2-0.2-1.6-0.7c-0.4-0.4-0.7-1-0.7-1.6v-23
		c0-0.6,0.2-1.2,0.7-1.6c0.5-0.5,1-0.7,1.6-0.7c0.6,0,1.2,0.2,1.6,0.7c0.4,0.4,0.7,1,0.7,1.6v0.9C505.2,99.1,507.9,98.1,510.9,98.1z
		"/>
	<path d="M540.7,98.1c0.6,0,1.2,0.2,1.6,0.7c0.4,0.4,0.7,1,0.7,1.6v23c0,0.6-0.2,1.2-0.7,1.6s-1,0.7-1.6,0.7s-1.2-0.2-1.6-0.7
		c-0.5-0.4-0.7-1-0.7-1.6v-1.2c-2.6,2.3-5.5,3.5-9,3.5c-3.7,0-6.9-1.3-9.6-4c-2.7-2.7-4-5.9-4-9.7c0-3.8,1.3-7.1,4-9.7
		c2.6-2.7,5.8-4.1,9.6-4.1c3.4,0,6.4,1.2,9,3.5v-1.2c0-0.6,0.2-1.2,0.7-1.6C539.5,98.3,540.1,98.1,540.7,98.1z M529.5,121
		c2.5,0,4.6-0.9,6.3-2.7c1.7-1.8,2.6-4,2.6-6.5c0-2.5-0.9-4.7-2.6-6.5c-1.8-1.8-3.9-2.7-6.3-2.7c-2.5,0-4.6,0.9-6.3,2.7
		c-1.8,1.8-2.6,4-2.6,6.5c0,2.5,0.9,4.7,2.6,6.5C524.9,120.1,527,121,529.5,121z"/>
	<path d="M579.6,99.3c0.2,0.3,0.3,0.7,0.3,1c0,0.2,0,0.5-0.1,0.7l-7.4,23c-0.3,1-1.1,1.6-2.2,1.6c-1.1,0-1.8-0.5-2.2-1.6l-5.2-16.2
		l-5.2,16.2c-0.3,1-1.1,1.6-2.2,1.6c-1.1,0-1.8-0.5-2.2-1.6l-7.4-23c-0.1-0.2-0.1-0.5-0.1-0.7c0-0.4,0.1-0.7,0.3-1
		c0.3-0.6,0.7-0.9,1.3-1.1c0.2-0.1,0.5-0.1,0.7-0.1c0.4,0,0.7,0.1,1,0.3c0.6,0.3,0.9,0.7,1.1,1.3l5.2,16.2l5.2-16.2
		c0.3-1.1,1.1-1.6,2.2-1.6c1.1,0,1.8,0.5,2.2,1.6l5.2,16.2l5.2-16.2c0.2-0.6,0.6-1,1.1-1.3c0.3-0.2,0.7-0.3,1-0.3
		c0.2,0,0.5,0,0.7,0.1C578.9,98.4,579.3,98.8,579.6,99.3z"/>
	<path d="M613,98.1c0.6,0,1.2,0.2,1.6,0.7c0.4,0.4,0.7,1,0.7,1.6s-0.2,1.2-0.7,1.6c-0.4,0.5-1,0.7-1.6,0.7h-3.6v20.7
		c0,0.6-0.2,1.2-0.7,1.6s-1,0.7-1.6,0.7s-1.2-0.2-1.6-0.7c-0.5-0.4-0.7-1-0.7-1.6v-20.7h-3.5c-0.6,0-1.2-0.2-1.6-0.7
		c-0.4-0.4-0.7-1-0.7-1.6s0.2-1.2,0.7-1.6c0.5-0.5,1-0.7,1.6-0.7h3.5v-7c0-0.6,0.2-1.2,0.7-1.6c0.4-0.5,1-0.7,1.6-0.7
		s1.2,0.2,1.6,0.7c0.4,0.4,0.7,1,0.7,1.6v7H613z"/>
	<path d="M630.8,98c3.5,0,6.5,1.4,9,4.1c2.5,2.7,3.7,5.9,3.7,9.7v11.5c0,0.6-0.2,1.2-0.7,1.6c-0.4,0.4-1,0.7-1.6,0.7
		c-0.6,0-1.2-0.2-1.6-0.7c-0.4-0.5-0.7-1-0.7-1.6v-11.5c0-2.5-0.8-4.7-2.4-6.5c-1.6-1.8-3.5-2.7-5.7-2.7c-2.2,0-4.1,0.9-5.7,2.7
		c-1.6,1.8-2.4,4-2.4,6.5v11.5c0,0.6-0.2,1.2-0.7,1.6c-0.5,0.4-1,0.7-1.6,0.7c-0.6,0-1.2-0.2-1.6-0.7c-0.4-0.4-0.7-1-0.7-1.6V91
		c0-0.6,0.2-1.2,0.7-1.6c0.5-0.5,1-0.7,1.6-0.7c0.6,0,1.2,0.2,1.6,0.7c0.4,0.4,0.7,1,0.7,1.6v10.2C625.1,99.1,627.8,98,630.8,98z"/>
	<path d="M650.5,121.6c-1.3-1.3-2.3-2.7-3-4.3c-0.7-1.7-1.1-3.5-1.1-5.3c0-3.8,1.4-7.1,4.1-9.8c1.3-1.3,2.8-2.3,4.4-3
		c1.7-0.7,3.5-1.1,5.4-1.1c3.8,0,7.1,1.4,9.8,4.1c1.3,1.3,2.3,2.7,3,4.4c0.7,1.7,1.1,3.5,1.1,5.4c0,0.6-0.2,1.2-0.7,1.6
		c-0.5,0.5-1,0.7-1.6,0.7h-20.6c0.5,2,1.6,3.6,3.3,4.9c1.7,1.3,3.6,2,5.7,2c3.4,0,6-1,7.8-3.1c0.4-0.5,0.9-0.7,1.6-0.8
		c0.6,0,1.2,0.2,1.7,0.6c0.5,0.4,0.7,1,0.8,1.6c0,0.6-0.2,1.2-0.6,1.6c-2.7,3.1-6.5,4.6-11.2,4.6
		C656.5,125.6,653.2,124.3,650.5,121.6z M669.3,109.6c-0.5-2-1.6-3.7-3.2-5c-1.7-1.3-3.6-2-5.7-2c-2.1,0-4.1,0.7-5.8,2
		c-1.6,1.3-2.7,3-3.2,5H669.3z"/>
	<path d="M707.2,88.7c0.6,0,1.2,0.2,1.6,0.7c0.5,0.4,0.7,1,0.7,1.6s-0.2,1.2-0.7,1.6c-0.4,0.5-1,0.7-1.6,0.7h0
		c-2.1,0-3.5,0.4-4.4,1.2c-0.7,0.7-1.2,1.9-1.2,3.5h2.6c0.6,0,1.2,0.2,1.6,0.7c0.5,0.4,0.7,1,0.7,1.6s-0.2,1.2-0.7,1.6
		c-0.4,0.5-1,0.7-1.6,0.7h-2.6v20.7c0,0.6-0.2,1.2-0.7,1.6c-0.4,0.4-1,0.7-1.6,0.7s-1.2-0.2-1.6-0.7c-0.5-0.4-0.7-1-0.7-1.6v-20.7
		h-0.6c-0.6,0-1.2-0.2-1.6-0.7c-0.4-0.4-0.7-1-0.7-1.6s0.2-1.2,0.7-1.6c0.5-0.5,1-0.7,1.6-0.7h0.6c0.1-3,1-5.2,2.6-6.9
		C701.4,89.6,703.9,88.7,707.2,88.7L707.2,88.7z"/>
	<path d="M736.9,98.1c0.6,0,1.2,0.2,1.6,0.7c0.4,0.4,0.7,1,0.7,1.6v23c0,0.6-0.2,1.2-0.7,1.6s-1,0.7-1.6,0.7s-1.2-0.2-1.6-0.7
		c-0.5-0.4-0.7-1-0.7-1.6v-1.2c-2.6,2.3-5.5,3.5-9,3.5c-3.7,0-6.9-1.3-9.6-4c-2.7-2.7-4-5.9-4-9.7c0-3.8,1.3-7.1,4-9.7
		c2.6-2.7,5.8-4.1,9.6-4.1c3.4,0,6.4,1.2,9,3.5v-1.2c0-0.6,0.2-1.2,0.7-1.6C735.7,98.3,736.2,98.1,736.9,98.1z M725.6,121
		c2.5,0,4.6-0.9,6.3-2.7c1.7-1.8,2.6-4,2.6-6.5c0-2.5-0.9-4.7-2.6-6.5c-1.8-1.8-3.9-2.7-6.3-2.7c-2.5,0-4.6,0.9-6.3,2.7
		c-1.8,1.8-2.6,4-2.6,6.5c0,2.5,0.9,4.7,2.6,6.5C721,120.1,723.1,121,725.6,121z"/>
	<path d="M756.6,102.7c-2.5,0-4.6,0.9-6.3,2.7c-1.8,1.8-2.6,4-2.6,6.5c0,2.5,0.9,4.7,2.6,6.5c1.8,1.8,3.9,2.7,6.3,2.7
		c3,0,5.4-1.3,7.3-3.8c0.4-0.5,0.9-0.8,1.5-0.9c0.1,0,0.3,0,0.4,0c0.5,0,0.9,0.1,1.3,0.4c0.5,0.4,0.8,0.9,0.9,1.5c0,0.1,0,0.3,0,0.4
		c0,0.5-0.1,0.9-0.4,1.3c-2.7,3.8-6.4,5.7-11,5.7c-3.7,0-6.9-1.3-9.6-4c-2.7-2.7-4-5.9-4-9.7c0-3.8,1.3-7.1,4-9.7
		c2.6-2.7,5.8-4.1,9.6-4.1c4.6,0,8.2,1.9,11,5.7c0.3,0.4,0.4,0.8,0.4,1.3c0,0.1,0,0.3,0,0.4c-0.1,0.6-0.4,1.1-0.9,1.5
		c-0.4,0.3-0.8,0.4-1.3,0.4c-0.1,0-0.3,0-0.4,0c-0.6-0.1-1.1-0.4-1.5-0.9C762,103.9,759.6,102.7,756.6,102.7z"/>
	<path d="M774.1,121.6c-1.3-1.3-2.3-2.7-3-4.3c-0.7-1.7-1.1-3.5-1.1-5.3c0-3.8,1.4-7.1,4.1-9.8c1.3-1.3,2.8-2.3,4.4-3
		c1.7-0.7,3.5-1.1,5.4-1.1c3.8,0,7.1,1.4,9.8,4.1c1.3,1.3,2.3,2.7,3,4.4c0.7,1.7,1.1,3.5,1.1,5.4c0,0.6-0.2,1.2-0.7,1.6
		c-0.5,0.5-1,0.7-1.6,0.7h-20.6c0.5,2,1.6,3.6,3.3,4.9c1.7,1.3,3.6,2,5.7,2c3.4,0,6-1,7.8-3.1c0.4-0.5,0.9-0.7,1.6-0.8
		c0.6,0,1.2,0.2,1.7,0.6c0.5,0.4,0.7,1,0.8,1.6c0,0.6-0.2,1.2-0.6,1.6c-2.7,3.1-6.5,4.6-11.2,4.6
		C780.1,125.6,776.8,124.3,774.1,121.6z M792.9,109.6c-0.5-2-1.6-3.7-3.2-5c-1.7-1.3-3.6-2-5.7-2c-2.1,0-4.1,0.7-5.8,2
		c-1.6,1.3-2.7,3-3.2,5H792.9z"/>
	<path d="M803.5,123.9c-1.4-0.9-2.5-2.1-3.3-3.4c-0.3-0.5-0.4-1.1-0.3-1.7c0.1-0.6,0.5-1.1,1-1.4c0.5-0.3,1.1-0.4,1.7-0.3
		c0.6,0.1,1.1,0.5,1.4,1c0.5,0.8,1.1,1.4,2,2c0.9,0.6,1.8,1,2.8,1c1.1,0,2-0.3,2.8-1c0.8-0.7,1.2-1.5,1.2-2.4c0-1-0.3-1.7-1-2.2
		c-0.6-0.4-1.8-0.9-3.6-1.4c-2.4-0.7-4.1-1.4-5.1-2.1c-1.9-1.3-2.8-3.3-2.8-5.8c0-2.2,0.8-4.1,2.5-5.7c1.7-1.6,3.7-2.3,6-2.3
		c1.7,0,3.3,0.4,4.7,1.3c1.4,0.9,2.5,2.1,3.1,3.5c0.3,0.6,0.3,1.2,0.1,1.8c-0.2,0.6-0.6,1-1.2,1.3c-0.6,0.3-1.1,0.3-1.7,0.1
		c-0.6-0.2-1-0.6-1.3-1.2c-0.3-0.7-0.8-1.2-1.4-1.6c-0.7-0.4-1.4-0.6-2.2-0.6c-1.1,0-2,0.3-2.8,1c-0.8,0.7-1.1,1.5-1.1,2.4
		c0,1,0.3,1.7,0.9,2.1c0.6,0.4,1.8,0.8,3.6,1.4c2.4,0.7,4.1,1.4,5.2,2.1c1.9,1.4,2.8,3.3,2.8,5.8c0,2.2-0.8,4.1-2.5,5.7
		c-1.7,1.6-3.7,2.3-6,2.3C806.9,125.6,805.1,125.1,803.5,123.9z"/>
</g>
<g fill="#0A0A0A" stroke="#0A0A0A">
	<path d="M1045.4,350.3v-4.9l-0.1-0.2c-0.3-0.8-0.5-1.6-0.8-2.4c-3.7-11.2-7.9-24-20.2-29.3c-1.1-0.5-1.9-0.9-2.7-1.3
		c-1.4-0.7-2.7-1.3-4.3-1.7c-0.7-0.1-18.2-3.3-34.7,1.1c-0.4-2.2-0.5-4-0.7-6.1c-0.2-3-0.4-6.5-1.7-11.8c-2.6-13-6.5-32.6-24.2-37.8
		c-3.2-1-6.6-1.8-10.3-2.6c-6.8-1.6-13.8-3.2-19.4-6.1c0,0,0.1-0.1,0.1-0.1c-0.3-0.1-0.6-0.2-0.9-0.2c-0.1,0-0.1-0.1-0.2-0.1l0,0.1
		c-0.5-0.1-1.1-0.2-1.7-0.2c-0.6,0-1.2,0.1-1.9,0.2c-3.5-0.4-7-1.9-8.6-5.3c-0.3-0.7-0.6-1.5-0.7-2.3c-0.2-1.2-2.1-0.8-1.9,0.4
		c0.1,0.9,0.4,1.8,0.8,2.7c0,0,0,0,0,0c0,0,0,0.1,0.1,0.1c0,0.1,0.1,0.1,0.1,0.2c0,0,0,0,0.1,0.1c1.5,2.8,4.1,4.6,7.1,5.5
		c-2.1,1.3-4.1,3.1-5.7,4.4c-10.1,8.1-19.5,17.1-29.5,25.4c-0.1,0-0.2-0.1-0.3-0.1c-2,0.1-3.9,0.1-5.9,0.2c-4.6,0.1-7.2-2-9.5-5.8
		c-2.3-3.7-4.2-7.7-6-11.7c7.6-2.9,15.1-6.5,15.6-6.7l-0.2-0.3c1.1-0.9,1.7-2.1,2.2-3.5c0.9-2.8,1.4-5.9,2.1-8.8
		c0.3-1.2-1.6-1.8-1.9-0.6c-0.5,2.1-1,4.3-1.5,6.4c-0.5,2.1-0.8,4.4-2.9,5.5c-0.2,0.1-0.3,0.2-0.4,0.4c-4.1,1.9-15,6.8-22,8.6
		c-2,0.2-20.9,1.9-23.5,6c-1.4,2.2-2,5-2.8,8.6c-0.6,2.7-1.3,5.8-2.5,9.4c-1.7,5.4-2.8,17.6-3.8,28.4c-0.6,6.8-1.2,12.6-1.7,15.3
		c-0.7,3.5-0.9,7-1.1,10.8c-0.2,4.1-0.4,8.4-1.3,13.2l-0.6,3.1c-1.6,8.4-3.3,17.2-3.3,25.9c0,3.4,0,6.1,0,8.7c0,4.7-0.1,8.8,0,15.8
		c0.1,6.8,0.6,11.3,1,14.6c0.2,2,0.4,3.5,0.4,4.8c0,3.6,0.2,5.5,1.2,6.4c0.1,0.1,0.2,0.1,0.3,0.2c-0.1,4.2-0.9,21.3-1.9,26.2
		c-0.5,1.5-1.9,6.4-1.1,10.4c0.3,1.3,0.3,6-2.5,12.2c-0.7,1.5-1.3,2.8-1.8,3.8c-1.8,3.6-2.4,5-1.9,8.3c0.5,2.7,1.6,4.9,2.6,6.6
		c0.5,0.8,0.9,1.6,1,2.2c0.6,1.8,1.6,7.4,1.9,10.5l0.1,0.2c0.6,1.7,1.7,2.7,2.1,3.1c2,3.3,4.9,8.3,5.1,9.4c0.3,1.7,0.3,3.5,0.3,3.6
		l0,0.1c0.2,1.4,0.5,5.3,0,6.9c-0.8,2.8-8,55.9-7.9,69.6l0,2.3c0,8.9,0,21.1,2.1,29.1c1,4.3,3.6,6.5,3.7,6.6l1.1,0.9l0.5-1.3
		c0.1-0.2,0.8-2.3-0.2-5.8c-0.9-3.2-2.4-17-2.4-24.7c0-8,3.5-49.5,5.3-58.5c0.8-6.6,3-18.9,4.1-22.5c0.1-0.3,0.2-0.6,0.3-0.8
		c0.1-0.2,0.3-0.4,0.4-0.6c0.1,0,0.5,0.1,0.7,0.2c0.5,0.2,1.1,0.4,1.8,0.4c0.4,0,0.9,0,1.3,0c1,0,3.2-0.2,3.6,0.2
		c0.5,0.9,3.9,5,6.6,5.3c0.2,3.9-1,22.6-2.2,42.3c-0.2,3.4-0.4,7-0.7,10.6c-0.2,0.2-0.4,0.5-0.4,0.9c0.1,0.7,0.1,1.5,0.2,2.2
		c-1.8,29.5-3.6,61.2-2.6,71.4c1.8,18.9,4.2,33.5,6.4,39c0.7,1.8,1,3.3,1.2,4.8c0.5,2.6,0.9,5,3.3,7.9c3.6,4.3,17.7,13.3,24.1,15.5
		c0.1,0.1,0.3,0.1,0.4,0.2c0.1,0,0.1,0,0.2,0c0.1,0,0.2,0.1,0.4,0.1l0,0c2.5,0.4,4.5,1.4,6.4,2.8c0,1.6-0.4,3.1-1,4.7
		c-2.2,5.5-4.1,11-7.4,15.8c-1,1.5-1.6,2.8-2,4c-0.1,0.1-0.2,0.3-0.2,0.6c0,0.3,0,0.6,0,0.9c0,0.3,0,0.6,0,1
		c0.1,3.2,0.6,6.5,3.1,8.6c4.1,3.5,9.3,5.2,14.5,6.1c4.4,0.8,9.7,1.2,13.6-1.5c3.1-2.2,3.3-7.8,2.6-11.5c0.2-2.2,0.1-4.5,0.2-6.5
		c0.5-7.1,0.5-13.9,2-20.9c3.8-0.5,10.3-1,13.4-0.6c3.7,0.5,9.6-0.2,11.8-0.5c0.4,0.6,1.6,0.4,1.8-0.5c0.7-4.2,4.4-5.7,8.4-6.5
		c-1.4,2.9-0.4,6.5,0.3,9.9c1.8,7.8,1.5,15.5,2.1,23.4c0.4,4.7,0.9,11.2,4.4,14.7c3.1,3.1,9.1,2.3,12.8,1c5-1.8,11.8-3.6,15.6-7.5
		c1.9-1.9,2.2-4.6,1.9-7.3c0,0,0,0,0-0.1c0-0.2,0-0.4-0.1-0.5c-0.2-1.3-0.6-2.6-1-3.7c-0.9-2.4-2.7-4.6-4.2-6.7
		c-2.5-3.5-3.7-7.6-5.4-11.6c-1.2-2.7-0.1-5.1-0.7-7.6c-0.7-3.6-6.3-4.5-4.2-9.3c0.1-0.2,0.1-0.4,0.1-0.5
		c5.1-5.7,11.4-13.6,12.2-16.3c0.8-2.7,2.1-13.9,0-19.3c-2-5.2-3.4-14.3-4-26.3c-0.7-14.1-1.1-31.9-0.2-37.4
		c0.1-0.6,0.3-1.3,0.6-1.9c0.1-0.1,0.2-0.3,0.3-0.4c0.2-0.2,0.2-0.5,0.2-0.7c1.1-2,2.7-4.1,4.2-5.9c2.1-2.6,3.9-4.8,4.1-6.8
		c0.1-1.3-0.2-6.1-0.7-13.3c-0.6-8.9-1.4-20.8-1.7-31.1c0.1-0.2,0.1-0.5,0.2-0.7c0.1-0.4,0-0.7-0.3-0.9c-0.1-4.4-0.1-8.4,0.1-11.7
		c0.6-10.7-1-18.8-2.3-25.3c-0.8-4.3-1.5-7.7-1.3-10.5c0.1-1.3,0.2-3.4,0.3-6.2c0,0,0-0.1,0-0.1c0-0.1,0-0.2,0-0.3
		c0.1-5.2,0.2-12.2,0.1-19.4c0-0.2,0.1-0.5,0.1-0.7c0-0.2,0-0.4-0.1-0.5c-0.2-10.1-0.6-20.1-1.6-24.4c0-0.1,0.1-0.2,0.1-0.3
		c0.3-0.6,0-1.2-0.5-1.4c-1.1-4.8-1.8-10.5-2.2-14.6c0.1,0.2,0.3,0.4,0.5,0.6l0.3,0.3h0.4c3,0,5.1-1.8,6.9-3.4l0.4-0.4
		c0.1,0,0.2,0,0.3,0c0.4,0,0.8,0.1,1.2,0.1c-0.6,2.1-0.1,3.3,0.5,4.1c0.5,0.7,1.5,1.4,3.5,1.4c0.4,0,0.9,0,1.5-0.1
		c2.6-0.4,4-1.9,5.3-3.3c0.3-0.4,0.7-0.7,1-1.1c0.2,0.1,0.4,0.1,0.6,0.1c0.2,0,0.4-0.1,0.6-0.2c0.5,1.1,1.1,1.9,1.8,2.4
		c1.5,1,3.2,0.6,4.1,0.5c0.2,0,0.3-0.1,0.4-0.1h0.4l0.3-0.3c0.8-0.8,1.6-1.7,2.4-2.6c4.7-5.2,8.2-8.4,12.8-5.1l0.6,0.4l0.6-0.4
		c2-1.3,2.2-3.1,2.4-4.6c0.1-1.1,0.2-1.8,0.7-2.3l1.8-0.9l0.1-0.1c1.7-1.7,3.5-3.4,5.3-5.1c6.1-5.8,12.5-11.8,16.3-19.5
		C1048.9,388.5,1050.5,370,1045.4,350.3z M1043.4,345.7v4.7l0,0.3c0.5,2.1,1,4.1,1.4,6.1c-0.1,2.7-0.4,5.4-1.1,8.1
		c-1.2-3-2.8-5.9-2.1-9c0.1-0.6-0.3-1.1-0.8-1.2c0.9-4.8,1.2-9.6,0.7-14.5c0.4,1.1,0.7,2.1,1.1,3.2
		C1042.9,344.2,1043.1,345,1043.4,345.7z M1032.4,389.2c-3.1,4.2-7.5,7.1-11.1,10.9c-1.5,1.6-2.6,3.4-3.9,5.2
		c-2.2,3.3-5.3,5.8-8.5,7.9c-2.2,1.5-4.6,2.8-7,4c5.3-5.4,10.2-11.1,14.8-17.1c0.3-0.4,0.2-0.7,0-1c2.8-2.6,5.6-5.2,7.9-8.3
		c2.7-3.5,4.3-7.8,5.8-11.9c0.9-1.2,1.7-2.5,2.5-3.8C1032,379.7,1031.8,384.4,1032.4,389.2z M938,421.6c-0.9-0.9-1.8-1.8-2.6-2.6
		c9.8,1.8,19.6,3,29.6,3.6c-1.3,1.1-2.5,2.4-3.5,3.7c-0.1,0.1-0.1,0.1-0.1,0.2c-7.9-0.7-15.9-2.7-22.7-4.9
		C938.3,421.5,938.2,421.5,938,421.6z M913.9,461.6c7-0.7,13.2-3.4,18.6-8c3.3-2.9,5.9-6.4,9.5-9.1c4.2-3.3,9.5-5.2,14.5-6.8
		c0.4-0.1,0.7-0.5,0.7-0.9c0.7,0.3,1.3,0.6,2,0.9c-0.3,8.7-2.7,16.8-7.3,24.2c-0.7,1.1,1,2.1,1.6,1.1c4.6-7.5,7.1-15.7,7.5-24.4
		c1.1,0.5,2.2,0.9,3.3,1.3c-0.1,0.5,0.1,0.9,0.6,1.2c0.3,3.2,1.2,13.1,2.9,20.2c-6.9,14-12.3,28.6-16.7,43.6c-2.4,7.9-4.4,16-6.4,24
		c-1,4-1.9,8.1-2.9,12.1c-0.5,2.3-1.1,4.6-1.6,6.9c-0.3,1.2-0.5,2.3-0.8,3.5c-0.1,2.2-1.5,2.3-4.1,0.4c0-0.2-0.1-0.4-0.1-0.6
		c-0.2-0.9-1.6-1.1-1.9-0.1c-0.4,1.3,0,2.8,0.8,4c1,4.5,1.6,9.1,1.8,13.7c0.2,3.9,1.4,14-2.3,16.6c-3.4-3-6.7-6-10.1-9.1
		c-6.1-5.5-10.1-13-16.5-18.1c-3.8-3.1-7.4-5.2-10.4-9.2c-3.1-4.2-5.9-8.5-8.7-13c-5.1-8.2-9.9-16.5-14.9-24.8
		c7-12.1,14.3-24.1,20.6-36.5c6.4-12.4,10.2-25.7,15-38.8c3.7-10.2,7.9-20.2,12-30.1c3.2,5.1,7.5,9.3,11.7,13.2
		c2.4,2.3,4.9,4.7,7.2,7.3l0.1,0.1c4.7,4.1,10.2,7.2,15.7,9.8c-6.8,2.3-13.2,5.2-18.4,10.3c-3.5,3.3-6.3,6.8-10.5,9.4
		c-3.9,2.4-8.4,3.6-12.9,4.1C912.3,459.8,912.7,461.7,913.9,461.6z M889.7,589.4c2.1,17.9,3.5,36.3,9.2,53.5
		c2.1,6.3,6.3,8.5,12.6,8.7c6.1,0.1,10.3-7.7,13.4-12c9.4-12.7,16.4-27.1,21.1-42.2c0-0.1,0.1-0.1,0.1-0.2c0-0.1,0.1-0.2,0.1-0.4
		c-3.3,18.7-8.4,36.8-17.6,53.7c-5.2,9.5-11.7,18.4-18.9,26.4c-4.8,5.4-9.5,9.6-17.3,8c-6.6-1.4-11.2-6.9-14.6-12.2
		c-6.1-9.5-11.7-20.6-14.5-31.6c-3-11.6-4.1-23.9-6.1-35.7c-4-24.4-8.3-48.7-8.8-73.5c2.1-0.9,4.1-1.9,5.8-2.8
		c7.1-3.8,13-9.5,17.5-16.1c4.7,7.9,9.3,15.8,14.1,23.6c0.2,0.3,0.3,0.5,0.5,0.8c0,0.1,0,0.1,0,0.2
		C885.4,555,887.7,572.2,889.7,589.4z M927.1,633c-3.7,5.6-9.6,16.7-17,16.5c-10.2-0.2-11.3-13.2-13-20.8
		c-3.1-14.2-4.2-28.9-5.9-43.3c-1.7-15-3.6-30-2.9-45.1c3.7,6.1,7.8,12.6,13.5,16.6c4,2.9,7.3,5.5,10.3,9.4c2.7,3.5,5.4,6.8,8.6,9.9
		c7.6,7.1,15.5,13.9,23.3,20.9C940,609.9,934.4,621.9,927.1,633z M835.2,507c0.3-1.7-0.1-3.8,0-5.4c0.1-3.7,0.6-7.5,1.1-11.2
		c0.1-0.9,0.2-1.7,0.3-2.6c1.6,4.4,4.3,8.7,7.5,11.6c4.4,3.9,10.3,2.3,15.1,0.3c10.8-4.6,18.7-13.8,25.9-23.1
		c-2.8,4.9-5.7,9.8-8.6,14.6c-4.6,7.6-9.7,15-16.9,20.4c-3.7,2.8-8,4.6-12.5,5.5c-3.1,0.7-7.2,0.9-9.8-1.5c-1.9-1.7-1.7-5.6-1.6-7.8
		C835.8,507.5,835.5,507.2,835.2,507z M866.5,493.1c-5.2,4-13.5,9-20,5.6c-4.9-2.6-8.6-11.5-9.2-16.6c-0.1-0.5-0.4-0.7-0.7-0.7
		c-0.3-2.7-0.9-5.4-2-8.2c-0.9-2.7-1.9-5.3-2.7-8c4.7,6,13.5,7.9,20.1,3.2c5.3-3.7,8.9-9.3,13.4-13.9c5.1-5.3,11.5-9.2,16.3-14.8
		c10.5-12.5,19-27,28.7-40.2c1.9-2.6,3.8-5.1,5.7-7.6c0.6,3.6,1.5,7.2,2.9,10.7c0.1,0.2,0.3,0.5,0.4,0.7
		c-3.6,8.9-7.1,17.8-10.5,26.6c-1.6,4-3,8-4.4,12c-0.3-0.1-0.7,0.1-0.9,0.5c-3.9,7.9-8,15.7-12.3,23.5
		C883.4,475.3,876.4,485.5,866.5,493.1z M851.8,263.5c-1.5,4.7-6.3,20.3-8.8,29.1c-1.9,6.5-3.9,18.1-6.1,30.5
		c-1.4,7.8-2.8,15.9-4.2,22.7c-3.6,17.6-10,45-12.9,54.2c-2.2,6.9-3.1,15.5-3.7,20.7c-0.2,1.6-0.3,2.9-0.4,3.5c0,0-0.1,0-0.1,0
		c-0.1-0.9-0.2-1.8-0.3-2.8c-0.4-3.3-0.9-7.7-1-14.4c0-1.1,0-2.1,0-3c0.2-0.1,0.4-0.3,0.5-0.5c4.9-10.7,4.5-21.6,6.2-33
		c1.9-12.5,8.1-23.6,11-35.8c2.8-11.9,2.6-24.3,5.6-36.3c2.9-11.6,7.2-23,11-34.3C849.9,263.7,851,263.6,851.8,263.5z M840.2,373.9
		c-0.1,2.6-0.2,5.2-0.3,7.8c-0.1,3.4-1.6,6.2-2.1,9.4c-0.3,2.3-0.2,4.3,0.1,6.5c0.7,4.7,0.8,8.4-0.2,13.1
		c-1.2,5.6-0.7,11.4-2.2,16.9c-2.1-1.6-4.3-2.2-6.9-2.7c-3.7-0.7-7.3-1.2-11-1.1c0.1-0.7,0.2-1.8,0.4-3.2c0.6-5.1,1.5-13.5,3.6-20.3
		c2.9-9.2,9.3-36.8,12.9-54.4c0.5-2.4,1-4.9,1.5-7.5h7.8c-0.6,3.8-1,7.6-1.5,11.3c-1,7.9-2.2,15.8-2.3,23.7
		C840.2,373.8,840.2,373.9,840.2,373.9z M840.4,407.4c0.3,0.1,0.6,0.1,0.9-0.2c10.5-9.4,18-21.3,25.4-33.1
		c8.4-13.6,16.4-27.4,23.9-41.5c7.1-13.4,12.6-28.4,21.3-40.8c8-11.3,20.6-18.6,32.4-25.4c-0.1,0.2-0.1,0.5-0.2,0.7
		c-1,4.7-2.9,9.3-5.2,13.5c-0.1,0-0.3,0-0.4,0c-0.2,0.5-0.6,0.9-1.1,1.3c-3.2,7.1-6.5,14.1-10.9,20.6c-3.9,5.8-8.8,10.8-12.3,17
		c-3.4,5.9-4.6,12.8-6.6,19.2c-2.7,8.6-8.4,14.7-14.1,21.4c-9.8,11.5-18.6,23.8-27.1,36.2c-4.4,6.4-8.8,12.9-13.2,19.4
		c-4.4,6.5-8.9,14.3-17,16.5c0.1-0.2,0.1-0.4,0.2-0.6c1.2-3.4,1.7-6.8,2-10.2l0.2-2.2c0.2-2.5,0.5-5.1,1-7.6
		C839.9,410,840.2,408.7,840.4,407.4z M955.7,258.9c-1.8,10.3-3.7,20.7-5.5,31c0,0-0.1-0.1-0.1-0.1c0,0,0-0.1-0.1-0.1
		c-0.3,1.8-0.9,3.5-1.7,5.1c-2.9,13.8-6.2,27.7-13.1,40.1c-3.7,6.6-9,12.1-13.8,17.9c-5.5,6.6-10.4,13.8-15.3,20.9
		c-4.6,6.6-9.2,13.2-14.1,19.6c-4.9,6.2-10.6,11.6-15.6,17.7c-5.2,6.3-9.2,13.5-14.9,19.4c-4.6,4.8-20.1,18.4-26.2,10.3
		c-0.2-0.3-0.4-0.4-0.7-0.4c0.3-2.1,0.6-4.3,1.2-6.3c0.2,0.2,0.5,0.3,0.8,0.2c5.5-1.4,9.3-5.1,12.7-9.5c5-6.3,9.2-13.2,13.7-19.8
		c10.1-14.8,20.3-29.6,31.9-43.3c4.3-5.1,9.4-9.9,12.2-16c3.3-7.2,4.5-15,7.5-22.3c3-7.4,9-13.3,13.6-19.7
		c4.4-6.2,7.6-13.2,10.7-20.1c0.1,0,0.1,0.1,0.2,0.1c0.3-0.6,0.7-1.1,1.3-1.5c0,0,0,0-0.1,0c2-3.6,3.5-7.4,4.8-11.3
		c0.5-1.6,0.9-3.3,1.2-5C948.9,263.3,952,259.6,955.7,258.9z M964.8,313.8c0,0.7,0,1.5-0.1,2.2c0.2,0.3,0.4,0.6,0.5,0.9
		c0.1,0.5,0.2,1.1,0.3,1.6c-9.2,4.9-18.3,9.5-25.9,16.6c-0.1,0-0.2,0.1-0.3,0.2c-0.1,0.1-0.2,0.2-0.3,0.3c-0.3,0.3-0.6,0.6-0.9,0.9
		c-0.4,0.4-0.8,0.7-1.2,1c-0.1,0.3-0.2,0.5-0.3,0.7c-1.5,1.6-3,3.3-4.5,4.9c0,0,0,0,0-0.1c0.8-1,1.5-2,2.3-3.1
		c9.4-13.7,13-30.7,16.3-46.7c1.4,1.8,2.8,3.5,4.8,5c3.9,2.9,7.5,5,8.8,10.1c0.1,0.5,0.2,1,0.3,1.5c0.1,0.8,0.2,1.6,0.3,2.4
		c0,0.1,0,0.2,0,0.3c0,0,0,0,0,0C964.7,313,964.8,313.4,964.8,313.8z M980.7,312.2c-0.6,0.2-1.3,0.5-1.9,0.7c0,0-0.1,0-0.1,0
		c-3.8,1.4-7.5,2.9-11.2,4.7c-0.2-0.5-0.4-0.9-0.6-1.3c-0.1-0.4-0.1-0.9-0.2-1.3c4.6-1.1,9.3-2.1,13.9-3.2
		C980.7,311.9,980.7,312.1,980.7,312.2z M967.8,319.9c0.2-0.2,0.4-0.4,0.4-0.6c2.6-1.2,5.3-2.4,7.9-3.4c-3,3.5-5,7.7-7,11.9
		c0,0.1-0.1,0.1-0.1,0.2c-2.7,1.7-5.4,3.6-8,5.5c-0.8,0.3-1.5,0.7-2.2,1.2c0.1-0.1,0.2-0.2,0.3-0.4c1.1-3.1-1.9-4.3-4.5-3.3
		c-3.1,1.2-3,5-2.3,8.2c-2.5,2.5-4.8,5.1-7.1,7.8c1.3-6.5,4.4-12.6,7-18.7c0,0,0-0.1,0-0.1c0.1-0.1,0.2-0.2,0.3-0.2
		c1.7-1,3.3-2,5.1-2.9c0.5-0.2,1-0.4,1.5-0.7c0.4,0,0.7-0.1,0.9-0.4C962.7,322.7,965.4,321.6,967.8,319.9z M974.7,322.7l5.2,0.3
		c-1.7,0.5-3.3,1.1-4.8,1.8L974.7,322.7z M1025.1,325.4l5.6,3.9c0.8,0.8,1.5,1.7,2.1,2.6l-1,1.2c0,0,0,0-0.1,0
		c-2.4-1.2-4.2-3.2-6.5-4.5c-2.4-1.4-4.8-2.6-7.3-3.7l0.9-1.8C1021,323.7,1023.1,324.5,1025.1,325.4z M1032.5,328.7
		c-2.1-2.6-5.1-4.5-8.4-5.9c3.3,0.1,6.6,0.5,9.8,1.1c1.8,2.5,3.3,5.4,4.6,8.3c-0.1,0.2-0.2,0.4-0.1,0.7c1.7,6.7,1.9,13.3,0.8,19.7
		l-0.2-1.1c0,0,0,0,0,0c0-0.4,0-0.8,0-1.2c0-0.1,0-0.2,0-0.3c0-0.2,0-0.3-0.1-0.4c-0.2-3.9-0.7-7.7-1.7-11.4l-0.5-3.6l-0.6,0.6
		c-0.5-1.3-1.1-2.5-1.8-3.7l0.5-0.6l-1.5-1C1033.2,329.6,1032.9,329.1,1032.5,328.7z M1037.7,359.9c-0.4,1.4-0.9,2.8-1.4,4.1
		l-24.8,14.1l0.2,0.3c-0.1,0.8,0,1.5,0.3,2.3c0,0.1,0.1,0.2,0.2,0.2l-0.6,0.1l-0.2,0.4c-1-3-2.6-6-2.7-5.9c1.5-1.6-0.2-3.7-0.9-5.3
		l0.6-0.7c0.2,0.9,0.6,1.7,1,2.6c0.7,1.3,1.2,2.6,1.5,4.1c0.1,0.6,1.1,0.4,1-0.2c-0.2-1.1-0.5-2.1-1-3.1c-0.6-1.3-1.4-2.5-1.6-3.9
		c0-0.1-0.1-0.2-0.1-0.2l1.7-2c0.7,2.4,1.6,4.8,2.7,7.1c0,0,0,0.1,0.1,0.1l-1.9,1.3l0.6,0.8l25.4-17.3c0,0.1,0,0.2-0.1,0.4
		C1037.2,359.3,1037.4,359.7,1037.7,359.9z M933.6,416.8c-0.2,0-0.3,0-0.5,0c-3.2-3.1-6.4-6.2-9.1-9.8c6.2,3.6,12.5,6.7,19.8,7.3
		c13.9,5.1,30.6,4.8,43.7-0.4c7.7-3,15.8-7,22.2-12.4c3.7-3.2,6.8-7.2,10.3-10.7c2-2,3.9-4.1,5.8-6.2l0.3-0.3
		c-0.9,1.9-1.9,3.7-3.1,5.5c-2.4,3.6-6.1,6.5-9.3,9.5c-6.6,6.2-13.6,11.8-21.9,15.4c-9,3.9-18.5,6.5-28.3,5.9
		C953.5,420.1,943.5,418.7,933.6,416.8z M920.7,401.7c-1.9-5-3-10.2-3.3-15.4c2.4,11.1,9.4,19.3,18.6,24.5c-4.6-1.6-9-4.1-13.3-6.6
		c-0.3-0.2-0.5-0.2-0.8-0.1C921.6,403.3,921.1,402.5,920.7,401.7z M923.4,361.7L923.4,361.7c0-0.1,0-0.2,0.1-0.3
		c1.4-4.1,2.9-8.1,5.4-11.6c-0.6,6,0.4,12.3,0.9,18.3c-1.6,2.8-2.9,5.8-3.8,9c-1.7,6-1.3,12.4-0.9,18.5c-0.2,0.2-0.3,0.4-0.2,0.7
		c0.1,0.6,0.1,1.3,0.2,2c-3.7-5.2-6.2-11.3-6.6-18c0-0.5-0.4-0.8-0.8-0.9C918.3,373.1,920.2,367.1,923.4,361.7z M932.1,364.5
		c-0.2,0.3-0.4,0.6-0.6,0.9c-0.6-6.1-1.5-12.5-0.2-18.5c2.9-3.3,6-6.6,9-9.9c0.1-0.1,0.1-0.1,0.2-0.2c1.3-1.1,2.9-2,4.3-3.1
		c1.5-1.1,3-2.3,4.5-3.5c-2.7,6.3-5.5,12.5-6.3,19.4c-3.7,4.5-7.3,9.2-10.6,14C932.1,364,932.1,364.3,932.1,364.5z M934.6,364.2
		c-0.1,0-0.1,0-0.2,0c5.6-8,11.7-15.6,18.5-22.6c0,0.1,0.1,0.2,0.1,0.3c0,0.1-0.1,0.3-0.1,0.4c0.1,1.6,1,2.9,1.1,4.5
		c0.1,1.1,0.1,2.2,0.1,3.4c-0.2-0.2-0.4-0.3-0.7-0.1c-0.9,0.6-1.7,1.3-2.5,2c-0.5,0.4,0.2,1.1,0.7,0.7c0.8-0.7,1.6-1.4,2.5-2
		c0,0,0,0,0.1-0.1c0,0.6-0.1,1.1-0.2,1.7c0.1,0,0.1,0,0.2,0c0,0.2,0.1,0.5,0.1,0.7c-0.1-0.3-0.6-0.5-0.9-0.2c-0.3,0.4-0.7,0.7-1.1,1
		c-0.5,0.3-0.1,1.2,0.4,0.9c0.6-0.3,1.1-0.8,1.5-1.3c0.1-0.1,0.1-0.2,0.1-0.3c0.1,0.7,0.2,1.5,0.3,2.2c-0.1,0-0.1,0.1-0.2,0.1
		c-0.3,0.3-0.6,0.5-1,0.6c-0.6,0.2-0.1,1.1,0.4,0.9c0.4-0.1,0.7-0.3,1-0.6c0.1,0.3,0.1,0.7,0.2,1c0,0-0.1,0-0.1-0.1
		c0.2,0.4,0.3,0.7,0.4,1.1c-1.4-0.2-3-0.2-4.6,0c0.2-0.2,0.4-0.3,0.6-0.5c0.5-0.4-0.2-1.1-0.7-0.7c-0.6,0.5-1.2,1-1.9,1.5
		c-0.1,0.1-0.2,0.2-0.2,0.2c-2,0.6-3.9,1.8-5.1,3.5c-0.7,1-1.3,2.1-1.8,3.2c-0.2-0.2-0.6-0.2-0.8,0c-0.9,1.1-1.7,2.2-2.7,3.3
		c-0.4,0.5,0.4,1,0.8,0.5c0.7-0.9,1.4-1.8,2.1-2.7c-0.7,1.9-1.1,3.9-1.3,5.9c-0.2-0.1-0.5,0-0.6,0.3c-0.6,1.5-1.3,2.8-2.4,4
		c-0.7,0.8-1.6,1.4-1.8,2.5c-0.1,0.6,0.9,0.7,1,0.1c0.1-0.7,0.7-1.1,1.2-1.5c0.4-0.4,0.8-0.9,1.1-1.4c0.6-0.7,1-1.5,1.4-2.4
		c0,1.3,0,2.5,0.2,3.7c-0.7,0.2-1.3,0.5-1.9,0.8c-0.2,0-0.4,0-0.6,0.2c-1.6,1.4-3.1,3-4.4,4.7c0.1-0.3,0.1-0.7,0.2-1
		c0.1-0.6-0.9-0.7-1-0.1l-0.3,1.7c0,0.3,0.1,0.4,0.3,0.5c-2.8,4-4.1,8.7-1.4,13.6c1.2,2.1,3.1,3.5,5.3,4.4c-0.1,0.2-0.2,0.4,0,0.6
		c0.8,0.8,1.6,1.6,2.3,2.4c0.4,0.4,1.2-0.2,0.7-0.7c-0.6-0.7-1.3-1.3-1.9-2c0.8,0.2,1.7,0.4,2.5,0.5c0,0.1,0.1,0.1,0.2,0.2
		c0.3,0.2,0.6,0.4,0.9,0.6c0.5,0.3,0.9-0.3,0.7-0.7c1.4,0,2.8-0.1,4.2-0.3c-0.2,0.6-0.3,1.2-0.4,1.8c-0.7-0.2-1.4-0.4-2.2-0.5
		c-0.6-0.1-0.7,0.9-0.1,1c0.7,0.1,1.4,0.3,2.1,0.5c-0.1,0.6-0.2,1.3-0.1,2c0,0,0,0-0.1,0c-1.2-0.5-2.5-1.1-3.7-1.6
		c-0.6-0.3-0.9,0.7-0.3,0.9c1.2,0.5,2.5,1.1,3.7,1.6c0.2,0.1,0.3,0,0.4,0c0,0.4,0.1,0.8,0.2,1.2c0.3,1.5,1.2,2.7,2.3,3.7
		c-0.4-0.1-0.9-0.2-1.3-0.4c-0.5-0.2-1-0.3-1.5-0.5c-0.1-0.3-0.4-0.5-0.8-0.6c-0.3,0-0.7-0.1-1-0.1c-2.9-1.2-5.7-2.7-8.3-4.4
		c0.2-0.2,0.2-0.5-0.1-0.7c-1-0.6-1.5-1.5-2.1-2.5c-0.6-0.9-1.3-1.7-2.3-2.2c-0.5-0.3-1.1,0.5-0.5,0.8c1.1,0.6,1.7,1.6,2.4,2.6
		c-1.4-1.2-2.8-2.4-4.1-3.8c0.1-0.3,0-0.5-0.2-0.8c-0.8-0.9-1.1-2.4-1.2-3.7c0-0.1,0.1-0.1,0.1-0.2c0,0.2,0,0.4,0,0.6
		c0,0.6,0.9,0.7,1,0.1c0.1-1.9,0.3-3.9,0.5-5.8c0.1-0.6-0.9-0.7-1-0.1c-0.1,1.5-0.2,3-0.4,4.5c-0.3-5.4-0.5-10.7,0.2-16.1
		C927.9,374.6,931,369.1,934.6,364.2z M1007.4,333.9c-0.1,0-0.1-0.1-0.2-0.1c-4.7-0.7-9.4-1.1-14.2-1.5l0.2-2.1c0,0,0,0,0.1,0
		c5.2-0.1,10.4,0.1,15.5,0.7L1007.4,333.9z M1009.2,330.1c-0.1-0.1-0.2-0.1-0.3-0.1c-5.2-0.6-10.4-0.9-15.6-0.8c0,0,0,0-0.1,0
		l0.2-2.9c5.2,1.7,11,1.2,16.4,1.3c0.6,0,0.7-1,0.1-1c-5.4,0-11.1,0.5-16.3-1.2c0,0-0.1,0-0.1,0l0.1-1.4c0.1,0,0.1,0,0.2,0
		c6-0.1,11.9,0.1,17.9,0.6c0,0,0.1,0,0.1,0L1009.2,330.1z M993,333.3c4.7,0.4,9.4,0.8,14,1.5l-1.3,2.7c0,0,0,0,0,0
		c-4.2-1-8.5-1.5-12.8-1.7L993,333.3z M1017.4,325.7c2.5,1.1,4.9,2.3,7.3,3.7c2.3,1.3,4.1,3.3,6.5,4.5l-2,2.4c0-0.1,0-0.2-0.1-0.3
		c-1.6-1.6-3.3-3.1-5.2-4.3c-2.4-1.5-5.2-2.3-7.4-4.1L1017.4,325.7z M1014.2,373.2c-1.1-2.4-2.1-4.9-2.8-7.5l2-2.3
		c0.6,1.1,1.1,2.3,1.8,3.3c0.8,1.2,1.8,2.3,2.3,3.6c0.1,0.2,0.3,0.3,0.5,0.3L1014.2,373.2z M1018.4,369.9c-0.5-1.2-1.3-2.3-2.1-3.3
		c-0.9-1.2-1.5-2.6-2.2-4l1.6-1.9c1.6,2.6,3.5,5.2,4,8.3c0,0.2,0.1,0.3,0.2,0.3l-1.6,1.1C1018.4,370.3,1018.4,370.1,1018.4,369.9z
		 M1020.6,368.8c-0.5-3.3-2.6-6.1-4.3-8.9l1.8-2.1c0.3,1.5,1.2,3,1.6,4.3c0.6,1.9,1.1,3.7,2.3,5.4c0,0.1,0.1,0.1,0.1,0.1
		L1020.6,368.8z M1023,367.2C1022.9,367.2,1022.9,367.2,1023,367.2c-1.1-1.7-1.7-3.4-2.2-5.2c-0.4-1.4-1.7-3.5-1.7-5
		c0,0,0-0.1,0-0.1l1.9-2.2c1,2.1,1.7,4.2,2.3,6.4c0.5,1.6,1.2,3,2.4,4.1c0.1,0,0.1,0.1,0.2,0.1L1023,367.2z M1026.4,364.8
		c0-0.1,0-0.2-0.1-0.3c-1.7-1.6-2.2-3.7-2.8-5.9c-0.5-1.7-1.2-3.3-1.9-4.8l2-2.3c0.9,4,3.3,8,5,11.7c0,0,0,0,0,0.1L1026.4,364.8z
		 M1029.4,362.8c-1.7-3.7-4.2-7.9-5-12c0-0.1,0-0.1-0.1-0.2l1.8-2c1.2,2.3,2.1,4.6,2.7,7.3c0.4,2,1.1,3.8,2.3,5.3
		c0.1,0.1,0.2,0.2,0.3,0.2L1029.4,362.8z M1031.9,360.6c-1.6-2-2-4.5-2.6-7c-0.5-2.1-1.5-3.9-2.5-5.8l2-2.3c1.2,4.9,2.1,10,4.6,14.4
		c0,0,0.1,0.1,0.1,0.1l-1.6,1.1C1032,360.9,1032,360.7,1031.9,360.6z M1034.3,359.5C1034.3,359.5,1034.3,359.5,1034.3,359.5
		c-2.6-4.4-3.5-9.5-4.6-14.4c0-0.1-0.1-0.2-0.2-0.3l1.4-1.7c1.4,5,2.9,10,4.6,15c0.1,0.2,0.2,0.3,0.4,0.3L1034.3,359.5z M1036.4,358
		c0-0.1,0-0.1,0-0.2c-1.7-5.1-3.3-10.3-4.8-15.6c0,0,0,0,0-0.1l1.6-1.8c1.3,5.5,2.6,11,4,16.4c0.1,0.3,0.3,0.4,0.5,0.4L1036.4,358z
		 M1037.6,354.7c-1.2-5.1-2.4-10.1-3.7-15.2l1.5-1.7c1.2,4.1,1.7,8.5,1.9,12.4C1037.2,351.7,1037.5,353.2,1037.6,354.7z
		 M1026.1,347.1c-0.3,0-0.6,0.2-0.5,0.6l-4.9,5.7c-0.1,0.1-0.2,0.1-0.2,0.2l-13,15.1l-1.3-3.4l27.1-32.4c0.7,1.2,1.2,2.5,1.7,3.8
		L1026.1,347.1z M1012.7,393.2c-0.3-0.5-1.2-0.1-0.9,0.4c0.2,0.3-1.9,2.5-2.2,2.8c-0.7,0.8-1.3,1.6-2,2.4c0.2-0.9,0.3-1.8,0.4-2.7
		c0.2,0.2,0.5,0.2,0.8-0.1c0.5-0.7,1.1-1.4,1.6-2.1c0.4-0.6,1-1.1,1-1.9c0-0.6-1-0.7-1-0.1c0,0.6-0.7,1.2-1,1.6
		c-0.4,0.6-0.9,1.1-1.3,1.7c0-0.7,0.1-1.5,0.1-2.2c0.2,0.1,0.4,0.2,0.6,0c0.8-0.6,1.5-1.3,1.8-2.3c0.2-0.6-0.7-0.9-0.9-0.3
		c-0.3,0.8-0.9,1.3-1.5,1.9c0-0.6-0.1-1.1-0.2-1.7c0,0,0.1,0,0.1-0.1c0.4-0.5,0.8-1,0.9-1.7c0.1-0.6-0.8-0.9-0.9-0.3
		c-0.1,0.3-0.2,0.5-0.3,0.7c-0.3-1.3-0.6-2.5-1.1-3.7c0.7,0.6,1.5,1.1,2.6,1.3c0.2,0,0.4,0.1,0.6,0.1l7.1,4.4
		c-1.5,1.6-3,3.1-4.5,4.7l-0.4,0.4c0,0.1-0.1,0.1-0.1,0.2c-1.1,1.2-2.3,2.3-3.5,3.4c-0.1-0.1-0.3-0.1-0.4-0.2c0,0,0.1,0,0.1-0.1
		l3.3-4C1011.9,395.2,1013.3,394.2,1012.7,393.2z M956.1,349.7C956.1,349.7,956.1,349.7,956.1,349.7c0.8,0.2,1.1,1.3,1.6,1.8
		c0.5,0.5,1.2,0.7,1.9,0.5c0.8-0.2,1.5-0.9,1.8-1.6c0.2-0.6,0.4-1.3,0.6-1.9c0.3-1.1,1.7-0.8,2.5-0.7c0.5,0.1,1-0.4,1-0.9
		c0.1-1.5,0.2-3,0.3-4.4c0,0,0,0,0,0c0.4,0,0.7,0,1.1,0c0.2,0,0.4,0,0.6,0.1c4.3,0.3,8.2,1.5,12.1,3.6c4.9,2.7,6,6.9,6.6,12
		c0,0.3,0.1,0.4,0.3,0.6c-0.2,1.7-0.6,3.4-1.5,5c-0.3,0.5-0.9,1-1.4,1.5c-0.2,0-0.4,0.1-0.5,0.3c-5.1,6.2-14.1,4-20.1,0.4
		c-4.4-2.7-6.2-8-6.8-13c0.1-0.1,0.1-0.3,0.1-0.5C956.1,351.5,956.1,350.6,956.1,349.7z M1002.2,363.2c0.9,0.8,1.4,1.7,1.8,2.6
		c-1,0-1.9,0.2-2.5,1.1c-0.4,0.7-0.5,1.6-0.7,2.4c-0.8,2.7-2.8,0.1-3.9,0c-1.4-0.1-3.1,0.5-3.4,2.1c-0.5,2.2,1.5,3.7,1.1,5.6
		c-2.3,0-4.7,0.4-6.6,1c-0.1-0.4-0.3-0.9-0.6-1.5c-0.8-1.6-1.8-3-3-4.1c0-0.1,0.1-0.3,0-0.5c-0.1-0.6-0.2-1.2-0.3-1.9
		c1.5-0.9,0-3.1,1.4-4.5c1-0.9,1.6-2.1,2-3.3c0.2,0,0.4-0.2,0.5-0.4C991.9,357.1,998.3,359.6,1002.2,363.2z M968.6,388.4
		c-0.1-0.8-1-0.9-1.5-0.5c-0.7,0.5-1.4,0.9-2.1,1.3c0.2-2.6,2.1-4.8,1.2-7.4c-0.2-0.4-0.9-0.7-1.2-0.4c-0.6,0.4-1.2,0.8-1.7,1.3
		c-0.3-0.2-0.6-0.3-1-0.4c0.1-0.1,0.1-0.1,0.1-0.2c1-1.4,1.8-2.8,2.6-4.3c-0.1,0-0.1,0-0.2,0c2-2.6,4.5-4.7,7.4-6.2
		c0.2-0.1,0.3-0.2,0.4-0.4c2.6,0.2,5.1,0,7.4-1c-0.1,0.1-0.2,0.3-0.3,0.4c1.1-0.1,2.3,0.8,2.1,2.2c0,0.2-0.1,0.3-0.1,0.4
		c1.9,1.2,5.1,3.9,4.7,5.7c-0.3,0.2-0.5,0.5-0.5,0.8c-1.4,1.4-2.8,2.5-3.8,4.2c-0.8,1.3-0.8,3.4-1,4.9c-0.5,4.4-3.3,7.7-8.1,7.9
		c-0.2,0-0.4,0.1-0.5,0.2c-1.1-1.2-2.4-2.2-3.8-3C969.1,392,968.7,389.2,968.6,388.4z M959.3,389.3c0.5,0,1-0.3,1-0.9
		c0-1.8,0.2-3.2,0.9-4.6c0.1,0.1,0.2,0.1,0.3,0.1c0.3,0.2,0.7,0.4,1,0.6c0.3,0.4,1,0.4,1.3,0.1c0.2-0.3,0.5-0.5,0.7-0.7
		c-0.2,1.2-1,2.5-1.3,3.6c-0.3,1.1-0.2,2.2-0.1,3.3c0.1,0.6,0.8,0.8,1.3,0.6c0.9-0.4,1.7-0.8,2.5-1.3c0.1,1.4,0,3.1-1.5,3
		c-1-0.1-2-0.1-3,0c-1.9,0.2-3.6,0.6-5.3,1.3c0.3-1,0.6-2,0.7-3.1c0.2,0,0.3-0.1,0.5-0.2C958.4,391.1,960.2,389.3,959.3,389.3z
		 M981.5,369.2c0.4-0.2,0.8-0.5,1.1-0.8C982.8,369,982.2,369.1,981.5,369.2z M986.1,381.7c0.6-0.6,1.1-1,1.4-1.5
		c2.6-1.1,5.2-1.2,8-0.9c1.8,0.1,3.1,0.8,4.3,1.5c0.1,0,0.1,0.1,0.2,0.1c6.2,3.2,7.4,11.7,5.8,18c-4.6-1.8-9.9-2.5-14.5-0.4
		c-1.6,0.7-3,1.6-4.3,2.6c-2.3-2.4-3.9-5.3-4.6-8.5C983.5,389,982.6,384.9,986.1,381.7z M985.5,349.3c0.5,0.1,1,0.2,1.5,0.2
		c0.1,0,0.1,0,0.1,0l-0.1,3.5C986.7,351.7,986.2,350.5,985.5,349.3z M987.6,339.9c-0.1-0.1-0.2-0.1-0.3-0.1c-3,0.4-6,0.7-9,1.1
		c0,0,0,0,0,0l-0.3-1.4c0,0,0,0,0,0c3.2-0.2,6.4-0.5,9.7-0.7L987.6,339.9z M978.4,341.9c3-0.4,6-0.7,9-1.1c0,0,0.1,0,0.1,0l-0.1,2.1
		c-0.1,0-0.1,0-0.2,0c-2.8,0-5.5,0.1-8.3,0.1c-0.2,0-0.3,0.1-0.4,0.2L978.4,341.9C978.4,341.9,978.4,341.9,978.4,341.9z
		 M987.2,343.8c0.1,0,0.2,0,0.2-0.1l-0.1,2.1c-0.1-0.1-0.3-0.3-0.5-0.2c-1.3,0.1-2.6,0.1-3.9-0.1c-0.3,0-0.5,0.2-0.5,0.4
		c-0.2-0.2-0.5-0.4-0.7-0.6c-0.7-0.5-1.5-1-2.3-1.4C982,343.9,984.6,343.8,987.2,343.8z M987.1,346.5c0.1,0,0.2-0.1,0.3-0.1
		l-0.1,2.3c0,0-0.1,0-0.1,0c-0.6-0.1-1.1-0.2-1.7-0.3c-0.2,0-0.3,0.1-0.4,0.2c-0.5-0.7-1.1-1.4-1.9-2.1
		C984.5,346.6,985.8,346.6,987.1,346.5z M976.8,333.8c3.6,0.6,7.5-1,11-1.9c0,0,0,0,0,0l-0.1,1.9c-3.4,0.8-7.1,2.3-10.6,1.8
		L976.8,333.8z M987.9,331c-0.1,0-0.2,0-0.3,0c-3.4,0.9-7.3,2.4-10.8,1.8c-0.1,0-0.1,0-0.2,0l-0.3-1.7c0.1,0.1,0.2,0.2,0.4,0.1
		c1.9-0.3,3.7-0.5,5.6-0.8c1.9-0.3,3.5-1.2,5.4-1.6c0.1,0,0.2-0.1,0.3-0.2L987.9,331z M987.8,334.8l-0.1,3.1c0,0-0.1,0-0.2,0
		c-3.2,0.3-6.3,0.5-9.5,0.7c-0.1,0-0.2,0-0.2,0.1l-0.4-2C980.8,337,984.4,335.6,987.8,334.8z M956.1,360.6c0.1,0,0.1,0.1,0.2,0.1
		c1.6,3.5,4.2,6.4,8.1,8.1c0.2,0.1,0.5,0.2,0.8,0.3c0.1,0.2,0.2,0.4,0.4,0.5c0.8,0.6,1.5,1.3,1.9,2.2c0,0.1,0.1,0.1,0.2,0.2
		c-1.8,1.4-3.4,3-4.8,4.9c-0.2,0.3-0.2,0.6-0.1,0.8c-0.9,1.6-1.9,3.2-3,4.7c-0.1,0.1-0.2,0.3-0.3,0.4c-0.2,0-0.3,0.1-0.4,0.2
		c-0.6,0.4-1.1,0.8-1.8,1c-0.1-0.4-0.3-0.8-0.5-1.2c-2.2-4.3-9.1-6.2-14.5-5.4c-0.6-3.9,0.4-7.5,1.6-11.3c1.7-5,6.6-6.8,11.5-6
		c0.3,0,0.5,0,0.6-0.1C956,360.2,956.1,360.4,956.1,360.6z M955.9,385.8c2.2,6.5-2.9,14-8.9,15.6c-5.2,1.4-12-0.1-14.8-5
		c-3.2-5.5,1.8-11.5,5.8-15.2c0,0,0.1,0,0.1-0.1C943,376.5,953.9,380.1,955.9,385.8z M948,403.3c0-0.1,0-0.2,0-0.3
		c1.1-0.3,2.2-0.7,3.1-1.1c2.1-1,3.7-2.7,4.8-4.8c0,0,0.1,0,0.1,0c3.7-2.3,7.1-1.7,11.2-2.1c2.8,1.5,5,3.4,6.6,6.2
		c2,3.5,2.1,10.7,0.2,14.2c0,0,0,0,0,0c-7.5,1.2-15.1,1-22.6-0.6c0-0.3-0.1-0.5-0.4-0.7c-1.6-1.2-3-2.4-3.7-4.3
		C946.6,407.8,947.4,405.3,948,403.3z M973.7,398.3c2.5-0.3,5.7-1.3,7.3-3.3c0.9,2.7,2.4,5.2,4.4,7.3c-0.7,0.6-1.3,1.1-2,1.7
		c-2.6,2.4-3.2,5.4-6.3,7.5C977.9,406.8,976.6,402,973.7,398.3z M976.7,413.7c0.2,0,0.4,0,0.5-0.1c4.4-2.4,5.6-6.6,9.2-9.8
		c6-5.2,13.4-5.7,20.3-2.4c-4.4,3.4-9.3,5.8-14.4,8.3c-5.2,2.5-10.7,4.3-16.3,5.4C976.4,414.6,976.6,414.1,976.7,413.7z
		 M1017.7,390.7l-0.3-0.2c0.7-1.1,1.8-1.8,2.6-2.8c1-1.2,1.8-2.5,2.6-3.9c0.1-0.1,0.1-0.2,0-0.4l1.9-0.1
		C1022.3,386,1020,388.4,1017.7,390.7z M1019.5,386.9c-0.9,1.1-2.1,1.9-2.9,3.2c0,0,0,0,0,0l-1-0.6c1.2-1.9,2.3-3.8,3.5-5.6
		c0-0.1,0.1-0.1,0.1-0.2l2.4-0.1C1021,384.7,1020.3,385.9,1019.5,386.9z M1014.8,389l-0.7-0.4c1-1.4,2-2.9,3-4.3
		c0.1-0.2,0.1-0.3,0-0.5l0.9,0C1017,385.4,1015.9,387.2,1014.8,389z M1013.2,388l-0.9-0.6c0.3-0.7,0.6-1.3,1.2-1.8
		c0.5-0.5,0.8-0.9,0.9-1.6c0-0.1,0-0.2,0-0.3l1.9-0.1C1015.2,385.2,1014.2,386.6,1013.2,388z M1013.4,384c-0.1,0.6-0.7,1-1.1,1.5
		c-0.4,0.5-0.6,0.9-0.8,1.5l-0.3-0.2c0.7-0.5,0.8-1.6,0.6-2.9l1.6,0C1013.4,383.9,1013.4,383.9,1013.4,384z M1006.9,383
		c-0.1-0.3-0.3-1.1-0.7-1.3c-2.1-1.1-4.1-2.2-6.1-3.4c-1-0.6-2.3-1-3.7-1.2c0.2-1,0-1.9-0.5-2.9c-0.2-0.3-0.4-0.6-0.6-0.9
		c-0.6-1.7,0.1-2.3,2-1.8c0.5,0.3,1,0.8,1.6,0.8c1.1,0.1,2.3-0.2,3-1.2c0.8-1.3,0.7-3.7,2.7-3.4c0.3,1.1,0.7,2.3,1.3,3.4
		c1.1,2.1,0.3,3.1,0.2,4.9c-0.1,1.7,3.1,4,3.5,5.2C1010.2,383,1007.7,384.9,1006.9,383z M1016,328.5c1.6,1.2,3.4,1.9,5.2,2.8
		c2.7,1.3,5.1,3.2,7.2,5.4c0.1,0.2,0.3,0.2,0.5,0.1l-2,2.4c0-0.1,0-0.2-0.1-0.3c-3.6-3.2-7.6-5.9-11.9-8.2L1016,328.5z
		 M1014.3,331.6c4.2,2.2,8.1,4.8,11.6,8c0.1,0.1,0.3,0.1,0.5,0.1l-2.5,2.9c0-0.1,0-0.2-0.1-0.2c-3.2-3.1-6.7-6.4-10.8-8.4
		L1014.3,331.6z M1012.6,334.8c4,2,7.3,5.2,10.5,8.2c0.1,0.1,0.3,0.1,0.4,0.1l-2,2.4c0-0.1-0.1-0.1-0.1-0.2c-1.8-1.5-3.5-3-5.2-4.6
		c-1.4-1.3-3.3-2.3-5-3.3L1012.6,334.8z M1010.7,338.3c1.8,1.1,3.7,2.1,5.3,3.6c1.6,1.5,3.2,2.9,4.9,4.3c0,0,0.1,0,0.1,0l-1.8,2.2
		c0,0,0,0,0,0c-2.6-3.3-6.3-5.2-9.8-7.4L1010.7,338.3z M1008.8,341.8c3.4,2.1,7,4,9.5,7.2c0,0.1,0.1,0.1,0.1,0.1l-1.6,1.9
		c0-0.1-0.1-0.1-0.1-0.2c-1.2-1.2-2.4-2.4-3.7-3.5c-1.6-1.3-3.8-2-5.7-2.9L1008.8,341.8z M1006.9,345.4c1.7,0.8,3.4,1.6,5,2.5
		c1.6,0.8,2.8,2.5,4.1,3.7c0.1,0.1,0.2,0.1,0.3,0.1l-1.9,2.3c0,0-0.1-0.1-0.1-0.1c-2.8-2.2-5.6-4.3-8.8-5.9L1006.9,345.4z
		 M1005.1,348.8c3.2,1.6,5.9,3.7,8.7,5.9c0,0,0,0,0,0l-1.9,2.2c0-0.2,0-0.3-0.2-0.4c-1.5-0.8-3-1.7-4.5-2.7c-1.1-0.7-2.2-2-3.5-2.6
		L1005.1,348.8z M1003.3,352.1c1.2,0.5,2.4,1.9,3.4,2.5c1.4,1,3,1.8,4.5,2.7c0.1,0.1,0.3,0.1,0.4,0l-1.6,1.9
		c-1.1-0.9-2.1-1.7-3.3-2.5c-1.5-0.9-3.2-1.5-4.5-2.6L1003.3,352.1z M1001.7,355.1c1.1,0.8,2.3,1.3,3.5,1.9c1.5,0.8,2.9,1.8,4.2,2.9
		l-1.7,2c0,0,0,0,0-0.1c-0.8-1.1-1.8-1.9-2.9-2.7c-1.2-0.8-2.5-2.2-4-2.4L1001.7,355.1z M1000.3,357.6c0.1,0,0.1,0.1,0.2,0.1
		c1.2,0.1,2.3,1.3,3.3,2c1.1,0.8,2.2,1.5,3,2.7c0.1,0.2,0.2,0.2,0.4,0.2l-1.8,2.1c-0.7-1.3-1.6-2.5-2.9-3.7c-0.9-0.8-1.8-1.5-2.8-2
		L1000.3,357.6z M996.7,356.2c-1.8-0.5-3.5-1.6-5.5-1.4l0.2-2.4l6,2c0.1,0,0.1,0,0.2,0L996.7,356.2z M997.9,353.7
		c-0.1-0.1-0.1-0.1-0.2-0.2l-6.2-2c0,0,0,0,0,0l0.1-1.8c2.5,0.5,5,1,7.5,1.5L997.9,353.7z M999.6,350.2
		C999.6,350.2,999.6,350.2,999.6,350.2c-2.6-0.5-5.2-1-7.9-1.6c0,0,0,0,0,0l0.2-2.2c2.7,1,5.7,1.3,8.6,1.7c0,0,0.1,0,0.1,0
		L999.6,350.2z M1000.9,347.5c-0.1-0.1-0.2-0.3-0.4-0.3c-2.9-0.4-5.8-0.7-8.5-1.7l0.2-2.4c3.2,0.4,6.5,0.8,9.6,2.1
		c0.1,0,0.2,0,0.3,0L1000.9,347.5z M1002.3,344.5c0-0.1-0.1-0.2-0.3-0.3c-3.1-1.3-6.5-1.7-9.8-2.1l0.2-2.4c3.5,0,7.4,1.3,10.8,2.1
		c0.2,0,0.4,0,0.5-0.2L1002.3,344.5z M1003.5,340.8c-3.5-0.8-7.4-2.1-11-2.1l0.2-1.9c4.2,0.2,8.4,0.7,12.5,1.7l-1.4,2.9
		C1003.9,341.1,1003.8,340.9,1003.5,340.8z M991.2,355.8C991.2,355.8,991.2,355.8,991.2,355.8c1.8-0.3,3.5,0.8,5.1,1.3l-0.3,0.6
		c-1.7-0.3-3.4-0.2-5,0.3L991.2,355.8z M988.1,359.5c0.1-0.6,0.2-1.2,0.2-1.8c0.1-0.5-0.2-0.8-0.6-0.9c0-0.3-0.1-0.6-0.1-0.9
		l2.3,2.5C989.3,358.6,988.7,359,988.1,359.5z M988,328.1c-0.1-0.2-0.3-0.3-0.5-0.2c-1.6,0.3-3.1,1.1-4.7,1.5
		c-2.1,0.4-4.2,0.6-6.3,0.9c-0.2,0-0.3,0.1-0.3,0.2l-0.5-2.4c0.1,0.2,0.3,0.3,0.5,0.2c1.6-0.2,3.5-0.3,5.1-0.9
		c2.2-0.8,4.2-1.6,6.6-1.8c0.1,0,0.1,0,0.2-0.1L988,328.1z M977.6,342.9c-3.6-1.6-7.5-2.4-11.3-2.4c0-0.1,0-0.2,0-0.3
		c-1.8-0.1-3.6-0.3-5.4-0.2c-0.3,0-0.5,0-0.7-0.1c-0.4,0.1-0.7,0.2-0.8,0c-0.3-0.5-0.7-1.2-1.1-2c-0.3-0.2-0.5-0.5-0.6-0.8
		c0.4,0.2,0.8,0.2,1.2-0.1c1.2-0.8,2.4-1.5,3.7-2c0.3-0.1,0.5-0.3,0.5-0.6c3.7-2.7,7.5-5.2,11.5-7.2L977.6,342.9z M959,342.2
		c0.2,0.1,0.4,0.1,0.6,0.1c0.2,0,0.4-0.1,0.6-0.1c1.2,0,2.4,0,3.6,0c0,0,0,0,0,0.1c-0.1,1.2-0.1,2.3-0.2,3.5c-1.5,0-2.8,0.5-3.5,2.1
		c-0.2,0.4-0.3,1-0.4,1.4c-0.4,1.6-1.2,0.1-1.4-0.2c-0.4-0.6-0.9-1.1-1.6-1.2c-0.3-0.1-0.5,0-0.7,0.1c0-0.4,0-0.7,0-1.1
		c-0.1-1.5-0.7-2.7-1-4.1c0,0,0.1-0.1,0.1-0.1C956.4,342.4,957.7,342.3,959,342.2z M954.8,340.8c-0.5-1.5-0.8-3-0.9-4.5
		c0.5-0.3,1-0.6,1.4-0.9c0.1,1.7,1.1,3.7,2.1,5.1C956.5,340.6,955.6,340.7,954.8,340.8z M1025.3,382.5l-13.7,0.4
		c0-0.1,0-0.2-0.1-0.2l0.4-0.7l14.9-1.6C1026.4,381.1,1025.9,381.8,1025.3,382.5z M1012.8,380.5c-0.2-0.6-0.3-1.2-0.3-1.9l2-1.1
		c-0.2,0.9-0.5,1.9-0.7,2.8c-0.1,0.2,0,0.4,0.1,0.5l-1.2,0.1C1012.8,380.8,1012.8,380.6,1012.8,380.5z M1024.7,379.3
		c1-3.2,2.1-6.3,3.8-9.2c0.1-0.2,0.1-0.4,0-0.5l4-2.2c-0.4,0.9-1.4,2-1.9,2.7c-0.6,0.8-1,1.8-1.4,2.7c-1,2.2-1.8,4.5-3.4,6.4
		c-0.1,0.1-0.1,0.2-0.1,0.3l-3.1,0.3c0,0,0,0,0,0c0.8-2.3,2.1-4.9,2-7.4c0-0.2-0.1-0.3-0.2-0.4l3-1.7c-1.5,2.8-2.6,5.7-3.5,8.7
		C1023.6,379.6,1024.5,379.9,1024.7,379.3z M1028.1,378.9c-0.1,0.1-0.2,0.3-0.3,0.4l-1.1,0.1c1.5-1.9,2.3-4.1,3.3-6.3
		c0.7-1.5,1.5-2.9,2.6-4.1c0.6-0.7,0.9-1.3,0.9-2.2c0,0,0,0,0-0.1l2.1-1.2c-1.7,4.1-3.9,8.1-6.4,11.8c-0.1,0.1-0.2,0.2-0.3,0.4
		c0,0,0,0.1,0,0.1C1028.6,378.2,1028.3,378.5,1028.1,378.9z M1021.6,379.5c-0.1,0.2,0,0.3,0.1,0.4l-1.9,0.2c0.1-0.1,0.1-0.1,0.1-0.2
		c0.5-2,1.1-4,1.7-5.9c0.1-0.2,0-0.3-0.1-0.4l2-1.1C1023.6,374.8,1022.3,377.3,1021.6,379.5z M1019,379.6c-0.1,0.3,0.1,0.5,0.3,0.6
		l-2,0.2c0.1-0.1,0.2-0.1,0.2-0.2c0.7-1.6,0.9-3.2,0.8-4.8l2.2-1.2C1020,375.9,1019.5,377.8,1019,379.6z M1017.4,375.8
		c0,1.4-0.3,2.7-0.8,4c-0.1,0.3,0,0.5,0.3,0.6l-2.1,0.2c0,0,0-0.1,0.1-0.1c0.4-1.2,0.7-2.5,1-3.7L1017.4,375.8z M998.9,358.1
		l-1.7-0.6l16.9-35.4c1.3,0.2,2.5,0.4,3.7,0.7L998.9,358.1z M1012.2,323.8c-0.1-0.1-0.2-0.2-0.4-0.2c-6-0.6-11.9-0.8-17.9-0.6
		c-0.1,0-0.1,0-0.2,0l0-0.6c2.6-0.2,5.2-0.4,7.7-0.6c3.8-0.3,7.7-0.3,11.6,0.2L1012.2,323.8z M990.1,357l-2.1-2.2l1.2-31.9
		c1.2-0.2,2.4-0.3,3.6-0.4L990.1,357z M988.2,323.5l0,1.3c-0.1-0.1-0.2-0.1-0.4-0.1c-1.9,0.2-3.6,0.6-5.3,1.3
		c-2.1,0.8-4.2,1.1-6.4,1.4c-0.2,0-0.3,0.2-0.4,0.4l-0.2-0.9c1.4-0.6,2.7-1.2,4.2-1.7c2.1-0.7,4.4-1.3,6.6-1.7L988.2,323.5z
		 M972,326.3c0.6-1.2,1.1-2.3,1.7-3.4l0.4,2.3C973.4,325.5,972.7,325.9,972,326.3z M815.9,430.3c-0.1-0.9-0.2-2.2-0.2-3.1
		c0.2-0.1,0.3-0.1,0.5-0.2c0.4-0.2,0.7-0.6,0.9-1c2.3-0.1,4.6,0.1,7,0.4c3.5,0.5,7.8,0.7,10.6,3.1c0.1,0.1,0.3,0.2,0.4,0.2
		c-0.3,0.8-0.5,1.7-0.8,2.5c-3.2-1-6.4-2.1-9.7-2.9C821.7,428.5,818.7,429.4,815.9,430.3z M834.2,442.5c4.3,4.9,10.9,1.8,15.8-0.9
		c6.6-3.7,12.3-8.9,17-14.7c6-7.3,10.9-15.1,17.4-22.1c6.3-6.8,11.9-14,17.3-21.5c5.3-7.5,10.4-15.2,15.9-22.6
		c2.6-3.5,5.5-6.9,8.4-10.3c-2,3.2-3.3,6.8-4.5,10.4c-4.9,8.2-6.9,18.2-5.9,28.2c-9.4,12.4-18.5,25.1-27.3,38
		c-4,5.8-7.8,11.4-13,16.1c-4.8,4.4-10,8.1-14.3,13.1c-3.8,4.4-7.2,9.1-12.5,11.8c-6.9,3.4-14.8-1.1-17.3-7.8
		c-0.1-0.2-0.2-0.4-0.4-0.5c0.1-3.1,1.3-6.3,2-9.2c0.1-0.1,0.2-0.2,0.2-0.4C833.6,447.6,833.9,445.1,834.2,442.5z M967.3,423.1
		c0.2-0.2,0.3-0.3,0.3-0.5c8.7,0,17.1-3,25.1-6.3c6.6-2.7,12.4-7,17.8-11.7c-3.9,4.8-8.1,9.3-12.4,13.6c-0.2,0.2-0.3,0.5-0.3,0.8
		c-7,2.9-14.5,5-21.6,6.6c-4,0.9-8.3,1.2-12.6,1C964.8,425.4,966,424.2,967.3,423.1z M1035.5,370.4c0.9-1.9,1.8-3.8,2.5-5.7l1.4-2.5
		l-0.6,0.3c0.4-1.1,0.7-2.2,1-3.3c0.6,3.1,2.5,6,3,9.3c-2,6.5-5.2,12.8-8.7,18.2c-0.4-5.2,0.1-10.2,1.7-15.3
		C1036,371,1035.8,370.6,1035.5,370.4z M1020.8,314c0.8,0.4,1.7,0.8,2.8,1.3c3.5,1.5,6.3,3.7,8.6,6.4c-3.9-0.6-7.9-0.9-11.9-0.8
		l-1-0.7l-0.5,0.9c-1.3-0.3-2.6-0.6-3.8-0.8l0.3-0.6l-3.9,0.1c-0.4-0.1-0.9-0.1-1.3-0.1c-3.3-0.3-6.8,0-10.2,0.4l-5.4,0.1
		c6-2.9,12.2-5.6,18.5-8c0.1-0.1,0.3-0.1,0.3-0.2c2.2,0.3,3.5,0.5,3.6,0.5C1018.3,312.8,1019.4,313.3,1020.8,314z M1009.3,311.6
		c-7.2,2.8-14.2,6-21,9.6c-0.1,0.1-0.2,0.1-0.3,0.2c-1.6,0.2-3.1,0.5-4.7,0.8l-8.9-0.5c1.5-2.6,3.3-5,5.7-7.1
		c0.1-0.1,0.1-0.1,0.2-0.2c0.3-0.1,0.6-0.2,0.9-0.3l1-0.3C991.9,311,1002.4,311.1,1009.3,311.6z M978.3,294.2
		c1.2,5.1,1.5,8.5,1.7,11.5c0.1,1.4,0.2,2.8,0.4,4.2c0,0,0,0,0,0c-4.6,1.1-9.2,2.1-13.8,3.2c-0.2-2.1-0.4-4.3-0.9-6.4
		c-0.3-1.3-0.9-2.4-1.6-3.4l-1.3-1.5c-1-1-2-1.9-3.2-2.8c-3-2.3-5.6-4.3-7.8-7c2-11.1,3.9-22.2,5.9-33.3
		C971.2,263.9,975.1,278.4,978.3,294.2z M917.8,251.3c2.6-1.4,5.3-2.3,7.8-2c0,0,0-0.1,0-0.1c5.8,3,12.9,4.6,19.8,6.2
		c2.9,0.7,5.7,1.3,8.4,2.1c-2.6,0.9-4.8,3-6.8,5c0-0.1,0-0.2,0-0.2c-0.5,0.6-1.1,1.2-1.8,1.6c-0.5,0.3-1,0.5-1.6,0.7
		c-10.9,6.3-21.7,12.8-30.2,22.3c-4.5,5-7.6,10.9-10.5,16.9c-3.7,7.6-7.4,15.3-11.3,22.8c-7.3,14.2-15.2,28.1-23.5,41.7
		c-7.9,13.1-16,26.5-27.3,36.9c0.1-0.9,0.1-1.9,0-2.8c-0.2-3.2-1.2-6.2-1.1-9.5c0-3.1,1.9-6.1,2.2-9.3c0-0.4,0.1-0.7,0.1-1.1
		c3.9-6.5,6.8-13.5,8.5-20.9c0.1-0.2,0-0.5-0.1-0.7c2.4-9.8,4.8-19.6,7.3-29.4c2.9-11.4,6.4-22.3,13.5-31.9
		c7-9.5,16.4-15.9,25.3-23.4c8.2-7,14.8-15.8,21.3-24.3C917.7,251.7,917.8,251.5,917.8,251.3z M903,263.6c2.7-2.4,6.3-6.1,10.1-9.2
		c-6.3,8.2-12.8,16-20.9,22.6c-8.3,6.7-16.4,13-22.9,21.6c-6.6,8.6-10.1,18.7-12.8,29c-3.4,12.7-6.5,25.4-9.5,38.2
		c0,0.2,0,0.3,0,0.4c-1.3,4.1-3,8.1-5,12c0-1.5,0.1-2.9,0.1-4.4c0-0.1,0-0.3-0.1-0.4c0.2-13.2,2.4-26.9,4.7-39.9
		c2.5-14.4,7.5-28.7,17.8-39.5c0.1-0.1,0.2-0.2,0.2-0.4C879,285.5,890.9,274.4,903,263.6z M868.7,277c2.8,3.8,8,3.3,12.4,3
		c-5.6,4.5-11.5,8.7-17.8,12.3c-0.4,0.2-0.5,0.5-0.5,0.9c-5.3,5.7-9.2,12.3-12.1,19.4l-0.7,1.8c-1.6,4.3-2.9,8.7-3.9,13.2
		c-0.7,3-1.2,6-1.7,9.1h-7.8c0.8-4.3,1.6-8.8,2.4-13.2c2.2-12.3,4.2-23.9,6-30.3c2.7-9.5,8.1-26.7,9.1-30c1.9-0.5,3.9-1.2,6.1-2
		C862.4,266.7,865.1,272.2,868.7,277z M814.2,391c0-2.5,0-5.3,0-8.7c0-8.6,1.7-17.2,3.3-25.6l0.6-3.1c0.9-5,1.2-9.3,1.4-13.5
		c0.2-3.7,0.4-7.2,1-10.5c0.6-2.8,1.1-8.7,1.7-15.6c0.9-10.2,2.1-22.8,3.7-28c1.2-3.7,1.9-6.9,2.5-9.6c0.8-3.4,1.4-6.1,2.6-8
		c1.2-1.9,9.3-3.4,15.3-4.3c-3.7,11.1-7.7,22.1-10.7,33.4c-3.2,11.9-3.1,24.3-5.6,36.3c-2.4,11.7-8.4,22.3-10.8,34.2
		c-2.1,10.7-1.5,21.3-5.2,31.5C814.2,396.4,814.2,393.8,814.2,391z M815.4,515.2l-0.1-0.2l-0.1-0.1c0,0-1-0.8-1.6-2.2
		c-0.3-3-1.3-8.7-2-10.8c-0.3-0.8-0.7-1.6-1.2-2.5c-0.9-1.6-1.9-3.6-2.3-6c-0.5-2.7,0-3.6,1.7-7.1c0.5-1,1.1-2.3,1.8-3.8
		c3.6-8,2.6-13.2,2.6-13.5c-0.8-3.5,0.6-8,1-9.4l0-0.1c1.2-5.5,2-25.2,2-27.5l0-0.2c2.6-0.8,5.1-1.3,7.9-0.5
		c2.9,0.7,5.8,1.8,8.7,2.7c0.1,0,0.1,0,0.1,0c-1.2,5.1-1.5,10.1-2.6,15.3c-0.1,0.1-0.1,0.2-0.2,0.4c-0.9,3.5-2.7,7.9-2.2,11.6
		c0.7,4.8,2.7,9.4,4.3,14c1.9,5.7,1.7,11,0.9,16.9c-0.3,2.5-0.6,5-0.8,7.5c-0.1,1.3-0.1,2.5-0.2,3.8l0,1.9c0.3,1.6-0.4,2.6-2.3,3.2
		c-0.1-0.1-0.1-0.1-0.2-0.1c-1.2-5.8-1.7-11.7-1.6-17.6c0-0.2-0.1-0.4-0.2-0.6c-0.2-0.9-1.6-1.2-1.9-0.2c-1.7,6.9-5.8,12.3-6.3,19.6
		c-0.2,3.1,0.4,6.3,1.2,9.3c0.8,2.9,3.6,5.8,3.8,8.7c0,0.1,0,0.1,0.1,0.2c-0.2,0.4-0.5,0.9-0.7,1.2c-0.3,0.2-0.6,0.5-0.9,1
		c-0.7,0.6-1.6,0.6-2.4-0.4c-0.2-0.2-0.5-0.3-0.7-0.3c0,0,0,0,0,0c0-0.4,0-2.2-0.3-3.8C820.6,523.5,816.3,516.5,815.4,515.2z
		 M825,521.1c-1.7-3.5-2.2-7.6-2.1-11.4c0.1-5.3,2.5-9.6,4.5-14.2c0.2,4.7,0.7,9.4,1.7,14c0,0.2,0.1,0.3,0.2,0.4
		c-0.1,2.6-0.2,5.2-0.5,7.7c-0.2,2.2-0.7,4.3-1.3,6.4c0,0.2-0.1,0.5-0.3,0.9C826.5,523.6,825.6,522.4,825,521.1z M819.6,554.2
		c-1.9,9.1-5.4,50.8-5.4,58.9c0,7.8,1.5,21.9,2.5,25.2c0.3,0.9,0.4,1.7,0.4,2.4c-0.6-0.9-1.3-2.2-1.7-3.9c-2.1-7.8-2.1-19.8-2-28.6
		l0-2.3c-0.1-14.3,7.3-67.2,7.8-69c0.4-1.3,0.4-3.4,0.3-5.1c0.7,0.5,1.3,0.8,2,0.9C822.2,537.3,820.3,548.2,819.6,554.2z
		 M830.1,529.3c-0.5,0-0.9,0-1.3,0c-0.4,0-0.7-0.1-1.1-0.3c-0.1,0-0.2-0.1-0.4-0.1c2.3-5.2,3.4-14.2,3.8-18.1c1,0.3,2-0.1,2.8-0.9
		c0.4,6.2,3.3,10.2,10.6,9.6c10.2-0.9,18.4-6.8,24.9-14.4c7.3-8.6,12.7-19,18.2-28.8c1.8-3.2,3.6-6.4,5.3-9.6
		c0.1-0.1,0.1-0.2,0.2-0.2c0.1-0.2,0.2-0.3,0.2-0.5c2.6-4.8,5.2-9.7,7.7-14.6c-2.4,6.9-5,13.7-8.2,20.3
		c-6.4,13.1-14.2,25.6-21.5,38.3c-0.2,0.3-0.2,0.5-0.1,0.7c-3.5,5.4-7.7,9.9-12.9,13.7c-2.6,2-6.5,4.5-10.6,6c-0.4-0.1-0.8,0-1,0.4
		c-3.9,1.3-7.8,1.7-10.8-0.2c-0.2-0.1-0.3-0.1-0.5-0.1C834.6,529.1,832.2,529.2,830.1,529.3z M872.9,730.1c-0.5-0.2-1.1-0.3-1.7-0.4
		l0,0c-4.4-1.1-14.9-7.4-20.7-12.1c7.8,1.9,15.8,0.2,23.3-3.1C872.8,719.7,872.5,724.9,872.9,730.1z M874.2,712.2c0,0.1,0,0.1,0,0.2
		c-8.4,3.8-17.4,5.6-25.8,2.6c-0.3-0.1-0.6-0.1-0.8,0.1c-0.2-0.2-0.3-0.3-0.4-0.5c-2.1-2.5-2.5-4.6-2.9-7c-0.3-1.5-0.6-3.2-1.4-5.2
		c-1.6-4.1-4.2-16.3-6.3-38.4c-0.8-8.3,0.3-31.5,1.7-55.9c1.7,22.7,4.2,45.7,14.4,66c4.8,9.6,11.1,20.3,22.4,22.8
		c11.5,2.6,22.4-4.6,32.9-9.1c-2.8,2.5-5.7,5-8.6,7.5c-6.5,5.5-14.9,12.1-23.8,16.4C875.1,711.4,874.3,711.5,874.2,712.2z
		 M875.9,713.5c6.2-3,11.9-6.9,17-10.6c2.5-1.8,5-3.7,7.4-5.7c0.7,6.5-0.3,12.5-1,18.9c-0.2,1.8-0.3,3.5-0.3,5.3c0,0.1,0,0.3,0,0.4
		c0,1.7,0.1,3.3,0.2,5c0,2.7-0.5,5.2-1.4,7.8c-5,1.4-12.6,2.5-17,0.1c-2.3-1.2-3.9-2.6-5.9-3.7c0-0.1,0-0.1,0-0.2
		C874.4,725,874.7,719.2,875.9,713.5z M879.1,736.7c0-0.2,0.1-0.5,0.1-0.7c1,0.8,2.2,1.4,3.5,1.5c4.7,0.5,9.7,0.5,14.3-0.6
		c-1.5,3.2-4.2,4.4-6.3,7.2c-0.9,1.2-1.7,2.4-2.4,3.6c-2,3.2-4.5-0.9-5.7-2.1c-1.7-1.6-3.7-2.3-5.9-2.6
		C877.6,740.8,878.7,738.8,879.1,736.7z M874.7,748c5.3,2.4,7.7,6,9.9,11.1c-0.6,0.7-1,1.2-1.2,2.3c-0.4,2.4-4.9,2.6-4-0.4
		c0.5-1.6,0.5-1.1,0.5-2.7c0-0.9-1.3-1.5-1.8-0.6c-0.5,1.1-1,2.1-1.5,3.2c-1.9,0-2.9-0.7-2.8-2.2c-0.1-0.8-1.4-1.1-1.8-0.3
		c-1.2-0.2-1.8-0.8-1.6-1.9c0-0.2-0.1-0.4-0.3-0.5C871.8,753.4,874.1,751.2,874.7,748z M893.2,774.3c-2.8,0.5-6.1,0-9-0.4
		c-3.6-0.5-7-1.8-10.1-3.4c-1.9-1-3.2-2.2-4.1-3.7c3.6,2.8,9.2,4.4,13.4,5.4c3.9,1,10.2,1.7,13.6-1.2c0.3-0.3,0.6-0.6,0.9-0.9
		C897.2,772.2,895.7,773.9,893.2,774.3z M898.3,759.9c0,0.3,0,0.7-0.1,1c-0.2,0.2-0.4,0.5-0.2,0.9c0.1,0.2,0.1,0.4,0.2,0.6
		c-0.2,3-0.6,6.3-3.5,7.8c-3.6,1.9-8.7,0.7-12.3-0.2c-5.7-1.4-15.5-4.1-13.4-11.4c0.7,1.8,2,3.3,3.4,2.4c0.5,1.4,1.4,2.4,3.2,2.8
		c0.5,0.1,1,0,1.4-0.2c-0.2,2.1,0.2,3.9,2.4,3.8c1.4,0,3.3-0.2,4.4-1.2c0.5-0.4,0.7-0.9,0.9-1.5c0.1,1.2,0.5,2.2,1.3,2.8
		c2.6,1.6,5.9,1.5,8.7,0.3c2.6-1.1,2.5-4.6,2.6-6.9c0.3-5,1-10,0.8-15c0-0.1,0-0.2-0.1-0.3c0.3-0.2,0.5-0.4,0.8-0.5
		C898.6,749.9,898.7,754.9,898.3,759.9z M890.4,766.7c-4.3,0.2-3.4-4.2-4-6.7c1.9-2,2.5-4.4,3.9-6.7c1-1.7,3-2.6,4.2-4.2
		c0.6-0.8,1.2-1.4,1.8-2c0,4.1-0.8,8.2-0.8,12.3C895.4,762.6,895.8,766.4,890.4,766.7z M899.2,742.6c-3.4,1.6-4.6,3.5-7.2,6.2
		c-1.1,1.1-2.3,2.1-3.3,3.3c-1.3,1.5-1.7,3.5-2.7,5.2c-2.4-5.3-5.2-8.8-10.8-11.2c0.2-0.5,0.4-1,0.6-1.5c0.1,0,0.1,0,0.2,0.1
		c5.2,0.7,6.3,4.3,9.9,6.9c0.3,0.2,0.7,0.2,1,0c1.8-0.8,2.7-2.6,3.8-4.2c1.9-3,5-4.3,7-7.1c0.9-1.3,1.6-2.7,2.1-4.3
		c0.2-0.1,0.5-0.1,0.9-0.2C900.2,738.1,899.6,740.4,899.2,742.6z M927.9,731.9c0,0.2,0,0.3,0,0.5c0,0,0,0,0,0
		c-1.7,0.2-8,1.1-11.8,0.6c-3.3-0.5-9.9,0.1-14,0.6c-0.3-1.7-0.6-3.4-0.7-5c0-1.7-0.1-3.5-0.2-5.2c0-0.2-0.1-0.4-0.1-0.6
		c0-3.3,0.2-6.6,0.7-9.9c0.8-5.8,1.2-11.2,0.4-17c10.7-8.7,21-18.9,28.6-30.1c1.5-2.2,2.9-4.5,4.2-6.9
		C935.1,683.2,931.3,707.9,927.9,731.9z M940.5,738.6c-0.6-3.2-2.4-7.4-0.8-10.5c0.4,1.9,0.8,3.8,1.2,5.7c0.3,1.6,0.4,5.5,1.7,6.7
		c0,0,0.1,0.1,0.1,0.1c-0.1,0.1-0.2,0.3-0.2,0.5v1.5c-0.4,0-0.8,0.1-1.3,0.1C941,741.4,940.7,740,940.5,738.6z M970.1,768.8
		c-4,2.8-10.1,4.7-14.7,6.1c-3.5,1-8.4,1-10.5-2.6c0,0,0,0,0,0c4.8,2.5,10.4,2.2,15.5,0.4c3.2-1.1,9.3-3.7,12.6-7.2
		C972.5,766.7,971.6,767.8,970.1,768.8z M970.5,762.4c1-1.4,1.3-3.1,1.3-4.8c0.6,1.2,1.1,2.4,1.4,3.6c0,0.1,0,0.1,0,0.2
		c-0.4,4.1-8.9,7.5-12.1,8.9c-5.6,2.5-12.3,2.7-17.4-1.1c-0.5-1.9-0.8-4-1.1-5.7c-0.8-5.2-0.3-10.6-0.8-15.8c-0.1-1-0.2-2-0.3-2.9
		c0.4-0.1,0.8-0.1,1.1-0.1c0,0.1-0.1,0.2-0.1,0.3c0.1,5,1.9,9.5,1.4,14.7c-0.3,3.1,0.2,6.4,2.6,8.7c1.9,1.8,6.2,1.9,8.4,0.8
		c1-0.5,1.4-1.9,1.5-3.5c0.4,1.2,1.3,1.8,4.6,2c1.8,0.1,2.4-1.2,2.5-2.9c0.5,0.6,1.2,0.9,1.9,0.7c1.6-0.4,2.6-1.2,3-2.5
		C969.2,763.3,970,763.2,970.5,762.4z M944.5,745.1c4.8,2.2,7.5,11.9,10,15.5c-0.1,2.1-0.3,4.1-0.5,6.2c-3,1.9-5.6,1-7.8-2.8
		c-0.5-1.4-0.5-2.8-0.3-4.3C946.5,754.6,944.6,750.2,944.5,745.1z M967.3,750.5c0.4,0.6,0.8,1.3,1.3,1.9c0,0.2,0,0.3,0.1,0.5
		c0.3,0.8,0.6,1.7,0.9,2.5c0.7,1.9,0.4,3.6-0.9,5c0-0.1,0-0.2,0-0.3c-0.3-1.2-2.2-0.8-1.9,0.4c0.1,0.2,0.1,0.4,0,0.6
		c0,0,0,0.1,0,0.1c0,0.1,0,0.2,0,0.3c-1.5,1.8-2.3,1.7-2.5-0.1c-0.4-0.8-0.8-1.6-1.4-2.3c-0.6-0.9-2-0.5-1.8,0.6
		c0.3,1.5,0.5,3.1,0.6,4.6c-1.4,1.9-2.7,1.6-3.8-0.7c-0.2-1.5-0.6-2.7-1.2-3.9c1.6-5.8,4-9.3,9.2-12.3
		C966.2,748.5,966.7,749.5,967.3,750.5z M964.1,744c0.2,0.6,0.5,1.2,0.7,1.7c-5.4,3-8,6.4-9.8,12.1c-2.7-5.2-5.2-13.4-10.6-14.9
		v-1.2c1.1,0.5,2.3,1,3.4,1.9c2.4,2.1,4.1,5.5,6,8.1c0.4,0.5,1.2,0.3,1.5-0.1C957.7,748.3,960.6,745.9,964.1,744z M961,733.7
		c-0.4,1.2-0.6,1.6,0,2.8c0.9,1.8,1.6,3.8,2.4,5.7c-3.5,1.8-6.4,4.2-8.9,7.2c-2.1-3.2-4.5-7.8-8.1-9c-4-1.3-4.4-9.3-5.2-13.6
		c1.3-0.2,2.6-0.3,3.6-0.4c4.2-0.6,8.3-1.1,12.1-2.8c-0.2,1.7,0.3,3.1,1.6,4.7C960.2,730.1,962.2,730.2,961,733.7z M965.8,659.8
		c0.6,12.4,2,21.5,4.1,26.9c1.8,4.7,0.8,15.4,0,18c-0.7,2.3-7.6,11-13.1,17c-0.2,0-0.3,0-0.5,0.1c-6.6,3-20,1.3-25.9,6.8
		c3.5-24,7.1-48.7,6.5-73c0-0.1,0-0.1,0-0.2c3.1-6.2,5.6-12.6,7.7-19.2c0,0,0,0,0,0c8.3-1.6,15.3-6.7,21-12.8
		C964.6,631.1,965.2,649.6,965.8,659.8z M970.5,523.7c1.3,6.4,2.8,14.4,2.3,24.9c-0.2,3.8-0.2,8.4-0.1,13.4
		c-3,9.9-7.6,19.2-13.7,27.6c-0.7,1,0.9,2.1,1.6,1.1c5.2-7.1,9.3-14.8,12.3-23c0.3,7.1,0.7,14.5,1.2,20.9c-2.2,4.5-4.5,8.9-6.8,13.3
		c-2,3.8-3.9,8.7-7.5,11.2c-1,0.7,0.3,2.1,1.3,1.4c3.4-2.3,5-6.4,6.9-9.9c2.2-4,4.3-8.1,6.4-12.2c0,0.4,0.1,0.7,0.1,1.1
		c0.4,6.6,0.8,11.8,0.7,13c-0.1,1.4-1.8,3.5-3.6,5.7c-1.9,2.3-3.9,4.8-5,7.5c-5.6,6.6-12.7,12.6-21.3,14.6
		c6.4-21.5,8.8-44.6,15.2-66.1c0.1,0,0.1,0,0.2,0c0.4-2.2,1.5-4.2,1.6-6.6c0.1-2,0-4.1,0.5-6c1.2-14,2.6-28,6.5-41.4
		C969.1,516.7,969.7,519.8,970.5,523.7z M969.5,506.5c-6.4,17.9-7.8,36.9-9.3,55.7c-10.7,31.4-11.1,65.9-26.9,95.6
		c-5.4,10.1-13.1,18.7-21.4,26.5c-0.1,0-0.2,0-0.3,0c-11.4,4-21.8,11.7-34.4,10.8c-13.4-0.9-20.8-17.5-25.5-28.1
		c-5-11.4-7.2-23.4-8.7-35.7c-1.5-12.7-2.7-25.4-3.7-38.2c0.3-4.7,0.6-9.4,0.9-13.9c2.6-41.9,2.5-43.5,1.6-44.2l-0.5-0.3l-0.5,0.2
		c-0.4,0.1-1.4-0.4-2.3-1.2c2.6,0.5,5.5,0,8.2-0.9c0.6,26.5,5.4,52.6,9.7,78.7c2,12.2,2.9,25.5,7.3,37.1c4.2,11.2,10,24.3,18.6,32.8
		c6.3,6.3,15.9,8,23.2,2.7c4.3-3.1,7.8-7.9,11.1-12c4.2-5.1,7.9-10.5,11.3-16.1c13.2-21.7,18.8-46.1,22.3-71c0-0.1,0-0.1,0-0.2
		c2.5-8.3,4.5-16.7,6.1-25.3c1.2-6.7,2.2-13.4,2.9-20.1c0.8-7.2,1.3-14.4,4.8-21c0.2-0.4,0.1-0.8-0.1-1.1c2.1-6.6,4.2-13,5.8-19.6
		C969.6,501,969.5,504,969.5,506.5z M969.5,487.2c-1.4,10.9-4.7,20.8-8.1,31.1c-0.1,0.2,0,0.4,0,0.6c-4.7,10.2-4.3,22.3-5.9,33.1
		c-2.2,14.7-5.9,29.1-10.7,43.1c-3.3-2.9-6.5-5.8-9.8-8.7c3.3-2.9,2.8-8.4,2.9-12.4c0.2-5.8-0.4-11.7-1.5-17.4
		c1.1,0.3,2.2,0,3.2-1.3c2.5-3.2,2.7-8.3,3.6-12.2c1.3-5.8,2.7-11.5,4.1-17.3c5.2-21.1,11.6-41.9,21-61.5
		C969.1,469.5,969.4,478.4,969.5,487.2z M968.9,443.8c-0.3-0.6-0.4-1.6-0.2-2.8c1.4,0.3,2.9,0.5,4.4,0.7
		C971.9,442.8,970.6,443.7,968.9,443.8z M986.6,442.9c-1.2,1.3-2.2,2.4-4.1,2.7c-1.5,0.2-2.6,0-3-0.5c-0.4-0.5-0.4-1.5,0-2.7
		c2.8,0.1,5.5,0,8.2-0.4C987.2,442.2,986.9,442.5,986.6,442.9z M998.4,441.6c-0.7,0.8-1.4,1.6-2.1,2.3c-0.1,0-0.2,0-0.4,0.1
		c-0.8,0.2-1.8,0.4-2.6-0.2c-0.7-0.5-1.2-1.4-1.5-2.9c0.1,0,0.1,0,0.2,0c3.3-0.9,6.6-1.8,9.9-2.8
		C1000.6,439.2,999.4,440.5,998.4,441.6z M1013.2,435.8c-1-0.6-1.9-0.9-2.8-1.1c1.3-0.7,2.6-1.4,3.8-2.3c0,0.2-0.1,0.4-0.1,0.7
		C1014.1,434.2,1014,435.1,1013.2,435.8z M1045.4,383.3C1045.4,383.3,1045.4,383.3,1045.4,383.3c-0.7,0.9-1.2,1.7-1.8,2.5
		c-0.4,0.5,0.5,1,0.8,0.5c0.2-0.3,0.4-0.6,0.6-0.9c-1.2,6.6-3.4,12.9-6.4,19c-3.7,7.4-9.6,13-15.9,19c-1.7,1.6-3.5,3.3-5.2,5
		l-1.9,0.9l-0.1,0.1c-0.2,0-0.4,0-0.6,0.2c-6.3,5.1-14.4,6.9-22,9.1c-4,1.2-8.4,1.7-12.8,1.7l0.1-0.2l-1.6,0c-0.3,0-0.6,0-1,0
		c-0.7,0-1.5-0.1-2.1,0c-2.2-0.2-4.4-0.5-6.4-0.9l0,0l-0.6-0.1c-0.1,0-0.2,0-0.4-0.1c-9.1-3.5-19.4-7.5-27.2-14.4
		c-0.2-0.2-0.4-0.4-0.6-0.6c11.1,3.3,23.1,5.2,34.6,3.7c6.3-0.8,12.6-3.4,18.6-5.4c5.6-1.9,11.1-4.4,16.1-7.5
		c4.7-2.9,7.9-6.7,11-11.2c3.4-5,8.9-8.2,12.8-12.9c0,0,0.1-0.1,0.1-0.1c0.4-0.1,0.8-0.5,0.8-1c3.1-4.2,5.2-9.2,7.3-13.9
		c0.9-2.1,1.8-4.3,2.5-6.5c0.3-0.2,0.5-0.5,0.4-0.9c0-0.1,0-0.1,0-0.2c0.5-1.4,0.8-2.9,1.2-4.4c0.2,1.6,0.3,3.1,0.4,4.7
		c-0.1,0-0.2,0-0.2,0.1c-1.2,1.3-1.8,3-1.6,4.8c0.1,0.6,1,0.4,1-0.2c-0.1-1.2,0.2-2.4,0.9-3.4
		C1046.4,374.3,1046.1,378.9,1045.4,383.3z"/>
	<path d="M945.4,394.7c1.7,0.7,3.8,0.6,5.1-0.7c1.2-1.1,0.5-3.2-1.1-3.3c0,0,0,0,0,0c0,0,0,0-0.1-0.1c-1.4-0.7-2.9-0.5-4.1,0.4
		C944,392,943.8,394.1,945.4,394.7z M946.9,392.2c0.4-0.2,1-0.2,1.4,0c0.2,0.1,0.3,0.1,0.4,0.1c0.1,0.1,0.3,0.2,0.5,0.2
		c0,0.1-0.1,0.3-0.2,0.3c-0.2,0.2-0.7,0.3-1,0.4c-0.7,0.2-1.5,0-2.1-0.3C945.9,392.9,946.8,392.2,946.9,392.2z"/>
	<path d="M911.2,506.2c-4.9,5.1-7.5,12-10.1,18.4c-0.5,1.2,1.4,1.8,1.9,0.6c3.2-7.8,6.4-14.7,12.6-20.5c4.5-4.3,9.1-8.1,11.6-13.9
		c0.5-1.2-1.4-1.8-1.9-0.6C922.3,496.9,916.1,501,911.2,506.2z"/>
	<path d="M970.9,331.4c-2,1.2-4.3,2-6.6,2.8c-0.6,0.2-0.1,1.1,0.4,0.9c2.2-0.9,4.5-1.6,6.6-2.8C971.9,331.9,971.5,331,970.9,331.4z"
		/>
	<path d="M971.4,334.5c-1.6,0.6-3.2,1.1-4.9,1.5c-0.6,0.1-0.4,1.1,0.2,1c1.7-0.4,3.4-0.9,5.1-1.6C972.4,335.2,972,334.3,971.4,334.5
		z"/>
	<path d="M972.4,337.1c-0.6,0-1.1,0.2-1.7,0.5c-0.7,0.3-1.4,0.9-2.2,0.7c-0.6-0.1-0.9,0.8-0.3,0.9c1.6,0.4,2.7-1,4.2-1.1
		C973,338,973.1,337.1,972.4,337.1z"/>
	<path d="M972.7,339.5c-0.3,0.3-0.7,0.4-1.1,0.4c-0.6,0-0.7,0.9-0.1,1c0.7,0,1.3-0.2,1.8-0.6C973.8,339.8,973.1,339.1,972.7,339.5z"
		/>
	<path d="M961.2,336.4c-0.7,0.3-1.5,0.7-2.2,1c-0.6,0.3-0.1,1.1,0.4,0.9c0.7-0.3,1.5-0.7,2.2-1C962.2,337,961.8,336.2,961.2,336.4z"
		/>
	<path d="M963.3,337.8c-0.9,0.4-1.8,0.8-2.7,1.2c-0.6,0.3-0.1,1.1,0.4,0.9c0.9-0.4,1.8-0.8,2.7-1.2
		C964.3,338.4,963.9,337.5,963.3,337.8z"/>
	<path d="M948.7,349.4c0.6-0.8,1.5-1.3,2.3-1.9c0.9-0.7,1.6-1.5,2.1-2.5c0.3-0.5-0.5-1.1-0.8-0.5c-0.6,1-1.3,1.8-2.1,2.4
		c-0.8,0.6-1.6,1.1-2.2,1.9C947.5,349.3,948.3,349.9,948.7,349.4z"/>
	<path d="M949.6,350c-0.6,0.3-0.1,1.1,0.4,0.9c1.5-0.7,2.8-1.7,3.8-3c0.4-0.5-0.4-1-0.8-0.5C952.2,348.5,951,349.4,949.6,350z"/>
	<path d="M940.8,357.9c1.2-0.5,2.2-1.4,3.2-2.2c1.2-1,2.4-2.1,3.6-3.2c0.4-0.4-0.2-1.2-0.7-0.7c-0.9,0.9-1.8,1.8-2.8,2.6
		c-1.1,1-2.3,2.1-3.7,2.7C939.8,357.2,940.3,358.1,940.8,357.9z"/>
	<path d="M949.2,354.3c0.4-0.5-0.3-1.2-0.7-0.7c-0.9,1-2.2,1.5-3.3,2.3c-1.3,0.9-2.2,2.2-3.8,2.8c-0.6,0.2-0.1,1.1,0.4,0.9
		c1.3-0.5,2.3-1.5,3.3-2.4C946.5,356,948.1,355.6,949.2,354.3z"/>
	<path d="M949.2,355.6c-1.7,1.6-3.5,3.1-5.4,4.4c-0.5,0.4,0.2,1.1,0.7,0.7c1.9-1.4,3.7-2.8,5.4-4.4
		C950.4,355.9,949.7,355.2,949.2,355.6z"/>
	<path d="M935.5,366.7c1.3-1.5,2.4-3.1,3.4-4.8c0.3-0.5-0.5-1.1-0.8-0.5c-0.9,1.6-2,3.2-3.3,4.6
		C934.4,366.4,935.1,367.1,935.5,366.7z"/>
	<path d="M936.7,367.6c0.1,0.6,1,0.4,1-0.2c-0.1-0.6,1-1.3,1.4-1.7c0.5-0.6,1-1.2,1.4-1.9c0.3-0.5-0.5-1.1-0.8-0.5
		c-0.6,0.9-1.3,1.8-2.1,2.6C937.1,366.3,936.6,366.8,936.7,367.6z"/>
	<path d="M929.8,376c1.7-2.2,3.2-4.6,4.5-7.1c0.3-0.6-0.5-1.1-0.8-0.5c-1.3,2.5-2.8,4.8-4.5,7.1C928.6,375.9,929.4,376.5,929.8,376z
		"/>
	<path d="M930.6,376.9c-0.5,0.4,0.2,1.1,0.7,0.7c0.9-0.7,1.3-1.9,1.9-2.8c0.9-1.3,1.9-2.5,2.8-3.8c0.4-0.5-0.4-1-0.8-0.5
		c-0.9,1.1-1.7,2.3-2.6,3.4C931.9,374.9,931.4,376.2,930.6,376.9z"/>
	<path d="M936.9,372.3c-1.4,2.2-2.7,4.3-4.4,6.3c-0.4,0.5,0.4,1,0.8,0.5c1.6-2,3-4.2,4.4-6.3C938,372.3,937.2,371.7,936.9,372.3z"/>
	<path d="M928.5,386.8c0.7-2,1.1-4,1.3-6.1c0.1-0.6-0.9-0.7-1-0.1c-0.2,2-0.7,4-1.3,5.9C927.4,387.1,928.3,387.4,928.5,386.8z"/>
	<path d="M931,381.4c-0.4,1.5-0.7,2.9-1.1,4.4c-0.2,0.6,0.8,0.9,0.9,0.3c0.4-1.5,0.8-2.9,1.1-4.4C932.1,381.1,931.2,380.8,931,381.4
		z"/>
	<path d="M929.6,395.7c0.1-0.6-0.9-0.7-1-0.1c-0.1,1.2,0,2.5,0.4,3.7c0.2,0.6,1.1,0.4,1-0.2C929.6,398,929.5,396.9,929.6,395.7z"/>
	<path d="M935.5,407.1c0.3,0.5,1.2,0.1,0.9-0.4c-0.8-1.2-1.6-2.5-2.4-3.7c-0.3-0.5-1.2-0.1-0.9,0.4
		C933.9,404.7,934.7,405.9,935.5,407.1z"/>
	<path d="M939.4,409.7c1.9,0.1,3.7,0.8,5.1,2.1c0.5,0.4,1.2-0.2,0.7-0.7c-1.6-1.5-3.6-2.4-5.8-2.4
		C938.8,408.8,938.7,409.7,939.4,409.7z"/>
	<path d="M953.9,428.7c0.6-0.1,0.4-1-0.2-1c-1.7,0.1-3.5,0.2-5.2,0.1c-0.6,0-0.7,0.9-0.1,1C950.3,428.9,952.1,428.9,953.9,428.7z"/>
	<path d="M954.7,430.1h-3.6c-0.6,0-0.7,1-0.1,1h3.6C955.2,431.1,955.3,430.1,954.7,430.1z"/>
	<path d="M956.7,432.4c-0.6,0.1-1.3,0-1.9-0.1c-0.6-0.1-0.9,0.8-0.3,0.9c0.8,0.2,1.6,0.2,2.4,0.1
		C957.5,433.3,957.3,432.3,956.7,432.4z"/>
	<path d="M963.8,428.6c-1.8-0.1-3.7-0.2-5.5-0.3c-0.6,0-0.7,0.9-0.1,1c1.8,0.1,3.7,0.2,5.5,0.3C964.3,429.6,964.4,428.6,963.8,428.6
		z"/>
	<path d="M964.4,430.3c-1.7,0-3.4-0.1-5-0.1c-0.6,0-0.7,1-0.1,1c1.7,0,3.4,0.1,5,0.1C965,431.3,965,430.3,964.4,430.3z"/>
	<path d="M965.4,432.2h-5c-0.6,0-0.7,1-0.1,1h5C966,433.2,966,432.2,965.4,432.2z"/>
	<path d="M966.4,435.2c-1.8-0.3-3.7-0.6-5.5-0.8c-0.6-0.1-0.7,0.9-0.1,1c1.8,0.3,3.7,0.6,5.5,0.8C966.9,436.3,967,435.3,966.4,435.2
		z"/>
	<path d="M976.2,429.7c0.6-0.1,0.4-1.1-0.2-1c-2.8,0.5-5.5,0.7-8.3,0.5c-0.6,0-0.7,0.9-0.1,1C970.5,430.5,973.3,430.3,976.2,429.7z"
		/>
	<path d="M977.5,431.4c0.6-0.1,0.4-1.1-0.2-1c-2.9,0.5-5.7,0.6-8.6,0.4c-0.6,0-0.7,0.9-0.1,1C971.6,432.1,974.5,431.9,977.5,431.4z"
		/>
	<path d="M977.5,433.3c0.6-0.2,0.4-1.1-0.2-1c-2.7,0.7-5.4,0.9-8.1,0.8c-0.6,0-0.7,0.9-0.1,1C971.9,434.3,974.7,434,977.5,433.3z"/>
	<path d="M977.8,436c0.6,0,0.7-1,0.1-1c-2.4,0.1-4.9,0.2-7.3,0.1c-0.6,0-0.7,1-0.1,1C973,436.2,975.4,436.2,977.8,436z"/>
	<path d="M979,437.8h-7.1c-0.6,0-0.7,1-0.1,1h7.1C979.6,438.7,979.6,437.8,979,437.8z"/>
	<path d="M994.1,423.9c-4.6,1.5-9.2,2.7-13.9,3.6c-0.6,0.1-0.4,1.1,0.2,1c4.7-0.9,9.3-2.1,13.9-3.6
		C994.9,424.7,994.7,423.7,994.1,423.9z"/>
	<path d="M993.3,426.3c-3.9,1.3-7.9,2.3-11.9,3.2c-0.6,0.1-0.4,1.1,0.2,1c4-0.9,8-1.9,11.9-3.2C994.1,427.1,993.9,426.1,993.3,426.3
		z"/>
	<path d="M992.6,429.1c-3.1,1-6.3,1.7-9.5,2c-0.6,0.1-0.4,1,0.2,1c3.3-0.3,6.4-1,9.5-2C993.4,429.8,993.2,428.9,992.6,429.1z"/>
	<path d="M991.6,432.5c0.7-0.1,1.5-0.3,2.2-0.4c0.6-0.1,0.4-1.1-0.2-1c-0.5,0.1-0.9,0.2-1.4,0.3c-0.1,0-0.2-0.1-0.3,0
		c-2.5,0.8-5.1,1.4-7.8,1.8c-0.6,0.1-0.4,1.1,0.2,1c2.4-0.4,4.8-1,7.1-1.6C991.4,432.5,991.5,432.5,991.6,432.5z"/>
	<path d="M993.4,434.7c0.6-0.3,0.1-1.2-0.4-0.9c-0.5,0.3-1.1,0.3-1.6,0c-0.3-0.1-0.5,0-0.6,0.3c-1.8,0.7-3.7,1.1-5.6,1.2
		c-0.6,0-0.7,1-0.1,1c2.2-0.1,4.3-0.5,6.3-1.4C992.1,435.1,992.8,435,993.4,434.7z"/>
	<path d="M993.7,436.3c-0.4,0.2-0.7,0.2-1.1,0.2c-0.1-0.3-0.4-0.5-0.7-0.3c-0.1,0-0.2,0.1-0.3,0.1l0,0c-0.3-0.1-0.5,0-0.5,0.2
		c-1.7,0.6-3.4,1.1-5.3,1.3c-0.6,0.1-0.4,1,0.2,1c2-0.2,3.8-0.7,5.7-1.4c0.8,0.2,1.7,0.2,2.5-0.2C994.7,436.9,994.3,436,993.7,436.3
		z"/>
	<path d="M1009.2,418.5c-2.3,0.7-4.6,1.4-6.9,2.2c-1.5,0.5-4.9,1.1-5.6,2.6c-0.1,0.2-0.1,0.4,0.1,0.6c0,0.1,0.1,0.1,0.1,0.2
		c0.4,0.5,1.1-0.2,0.7-0.7c0.2,0.3,4.6-1.6,5.1-1.8c2.2-0.8,4.4-1.5,6.6-2.1C1010,419.2,1009.8,418.3,1009.2,418.5z"/>
	<path d="M998.4,426c3.3-0.7,6.4-1.9,9.4-3.5c0.6-0.3,0.1-1.2-0.4-0.9c-2.9,1.5-5.9,2.7-9.1,3.4C997.6,425.2,997.8,426.2,998.4,426z
		"/>
	<path d="M1007.8,424.3c-3.3,1.6-6.7,2.7-10.3,3.3c-0.6,0.1-0.4,1,0.2,1c3.7-0.6,7.2-1.7,10.6-3.4
		C1008.8,424.9,1008.4,424,1007.8,424.3z"/>
	<path d="M998.5,431.3c2.5-0.8,4.9-1.7,7.4-2.7c0.6-0.2,0.1-1.1-0.4-0.9c-2.4,0.9-4.7,1.8-7.1,2.6
		C997.7,430.5,997.9,431.5,998.5,431.3z"/>
	<path d="M1005.6,430.8c0.5-0.3,0.1-1.2-0.4-0.9c-2.1,1.3-4.3,2.1-6.7,2.6c-0.6,0.1-0.4,1.1,0.2,1
		C1001.1,433,1003.4,432.1,1005.6,430.8z"/>
	<path d="M1006.3,432.6c-2.4,1.3-4.9,2-7.6,2.3c-0.6,0.1-0.4,1,0.2,1c2.8-0.3,5.4-1.1,7.9-2.4
		C1007.3,433.1,1006.9,432.3,1006.3,432.6z"/>
	<path d="M1017.3,412.4c0.4-0.5-0.2-1.2-0.7-0.7c-1.7,1.8-3.6,3.3-5.7,4.6c-0.5,0.3-0.1,1.2,0.4,0.9
		C1013.6,415.9,1015.6,414.3,1017.3,412.4z"/>
	<path d="M1018.7,414c-2.2,1.9-4.5,3.6-7,5.3c-0.5,0.3-0.1,1.2,0.4,0.9c2.5-1.7,4.9-3.5,7.2-5.4
		C1019.8,414.3,1019.1,413.6,1018.7,414z"/>
	<path d="M1018.8,417.8c-2,1.3-4.1,2.6-6.1,3.9c-0.5,0.3-0.1,1.2,0.4,0.9c2-1.3,4.1-2.6,6.1-3.9
		C1019.7,418.3,1019.3,417.5,1018.8,417.8z"/>
	<path d="M1019.6,421.1c-2.7,1.2-5.4,2.6-7.9,4.1c-0.5,0.3-0.1,1.2,0.4,0.9c2.5-1.6,5.2-2.9,7.9-4.1
		C1020.6,421.7,1020.1,420.8,1019.6,421.1z"/>
	<path d="M1018.5,424.9c-2.2,0.9-4.2,1.9-6.2,3.2c-0.5,0.3-0.1,1.2,0.4,0.9c1.9-1.3,4-2.4,6.2-3.2
		C1019.6,425.5,1019.1,424.7,1018.5,424.9z"/>
	<path d="M1019.2,409.4c2.6-1.9,4.9-4.2,6.9-6.7c0.4-0.5-0.4-1-0.8-0.5c-1.9,2.5-4.2,4.6-6.7,6.5
		C1018,409.1,1018.7,409.8,1019.2,409.4z"/>
	<path d="M1026.6,404.8c0.4-0.5-0.4-1-0.8-0.5c-1.6,2.1-3.5,4-5.5,5.7c-0.5,0.4,0.2,1.1,0.7,0.7
		C1023,408.9,1024.9,406.9,1026.6,404.8z"/>
	<path d="M1022.4,413.2c1.7-2.2,3.7-4,5.9-5.6c0.5-0.4-0.1-1.1-0.7-0.7c-2.3,1.6-4.3,3.6-6.1,5.8
		C1021.1,413.1,1022,413.6,1022.4,413.2z"/>
	<path d="M1028.5,411c0.4-0.5-0.2-1.2-0.7-0.7c-1.8,2-3.7,3.8-5.7,5.5c-0.5,0.4,0.2,1.1,0.7,0.7C1024.8,414.8,1026.7,413,1028.5,411
		z"/>
	<path d="M1029,414.3c-2.1,1.7-4.2,3.4-6.3,5.1c-0.5,0.4,0.2,1.1,0.7,0.7c2.1-1.8,4.1-3.5,6.3-5.1
		C1030.1,414.6,1029.5,413.9,1029,414.3z"/>
	<path d="M1026.6,400.1c0.3-1.1,1.9-1.9,2.7-2.6c1.1-0.9,2.3-1.8,3.4-2.7c0.5-0.4-0.2-1.1-0.7-0.7c-1.3,1-2.5,2-3.8,3
		c-1,0.8-2.3,1.5-2.6,2.7C1025.5,400.4,1026.5,400.8,1026.6,400.1z"/>
	<path d="M1027.9,401.5c-0.4,0.5,0.2,1.2,0.7,0.7c1.6-1.7,3.3-3.3,5.2-4.8c0.5-0.4-0.2-1.1-0.7-0.7
		C1031.2,398.2,1029.5,399.8,1027.9,401.5z"/>
	<path d="M1035.3,399.7c-2.1,1.6-4.1,3.1-6.2,4.7c-0.5,0.4,0.2,1.1,0.7,0.7c2.1-1.6,4.1-3.1,6.2-4.7
		C1036.5,400.1,1035.8,399.4,1035.3,399.7z"/>
	<path d="M1035.2,403.1c-2,1.7-3.7,3.6-5.3,5.6c-0.4,0.5,0.4,1,0.8,0.5c1.5-2,3.2-3.8,5.1-5.4
		C1036.4,403.4,1035.7,402.6,1035.2,403.1z"/>
	<path d="M1034.8,406.2c-1.3,1.8-2.8,3.4-4.5,4.8c-0.5,0.4,0.2,1.1,0.7,0.7c1.8-1.5,3.3-3.1,4.7-5
		C1036,406.2,1035.2,405.7,1034.8,406.2z"/>
	<path d="M1035.8,391.8c0.6-2.3,1.7-4.4,3.2-6.3c0.4-0.5-0.4-1-0.8-0.5c-1.5,2-2.6,4.1-3.3,6.5
		C1034.7,392.1,1035.6,392.4,1035.8,391.8z"/>
	<path d="M1039.3,387.4c-1.2,1.4-2.2,3-2.8,4.8c-0.2,0.6,0.7,0.9,0.9,0.3c0.6-1.6,1.4-3.1,2.5-4.4
		C1040.4,387.7,1039.7,386.9,1039.3,387.4z"/>
	<path d="M1040,389.7c-0.8,1.6-1.6,3.3-2.4,4.9c-0.3,0.6,0.5,1.1,0.8,0.5c0.8-1.6,1.6-3.3,2.4-4.9
		C1041.1,389.7,1040.3,389.2,1040,389.7z"/>
	<path d="M1041.7,392.9c-0.9,1.8-1.9,3.5-3.1,5.1c-0.4,0.5,0.4,1,0.8,0.5c1.2-1.6,2.3-3.3,3.1-5.1
		C1042.7,392.8,1041.9,392.3,1041.7,392.9z"/>
	<path d="M1044.6,376.1c-1.8,2-3.4,4.2-4.8,6.5c-0.3,0.5,0.5,1.1,0.8,0.5c1.3-2.2,2.9-4.3,4.6-6.3
		C1045.6,376.3,1045,375.6,1044.6,376.1z"/>
	<path d="M1043.9,378.8c-1.1,1.7-1.8,3.5-2,5.5c-0.1,0.6,0.9,0.7,1,0.1c0.2-1.8,0.8-3.5,1.9-5.1
		C1045.1,378.8,1044.3,378.3,1043.9,378.8z"/>
</g>
<g fill="#0A0A0A" stroke="#0A0A0A">
	<g fill="#0A0A0A" stroke="#0A0A0A">
		<path d="M349,778.6c-0.6,0-1.2-0.1-1.8-0.3c-1.8-0.6-3.5-2.3-6.4-5.3c-2.9-2.9-6.8-6.8-12.9-11.9c-10.3-8.6-9.5-14.8-8.9-19.3
			c0.1-1,0.3-1.9,0.2-2.7c-0.2-4.5-2.1-23.8-2.1-24c-0.6-11.9-2.3-21.1-3.6-27.8l-0.4-2.2c-0.5-2.4-1.1-6.8-2-12.3
			c-1.6-10.2-3.8-24.3-6.5-38.8c-4.4-23.7,2.3-35.4,3.1-36.6c0.5-0.8,0.8-1.8,1-2.5c-1.9-0.4-5.8-1.6-6.6-4.6
			c-0.8-3.1-1.5-43.4,1-62.9c2.9-21.9,1.9-43.8,1.9-44c-0.2-5.1,1.7-69.9,2.5-76.9c0.6-5,3.5-10.5,5.8-15c1.2-2.3,2.2-4.3,2.7-5.7
			c0.5-1.6,1-3.2,1.6-5.1c1-3.5,2.2-7.6,4.1-12.7c2.2-5.9,1.3-11,0.5-16c-0.2-1.4-0.5-2.8-0.6-4.2c-0.6-5-2.1-21.6-2.7-28.2
			c-2.3,3.2-6.7,9.3-9.5,12.5c-3.2,3.7-14.6,14-21.5,20.1c-1.5,1.3-2.7,2.4-3.6,3.2c-4.1,3.7-13.6,4.7-17,3.2
			c-1.4-0.6-1.6-1.6-1.6-2.1c0-1.3-0.4-2.3-1-3.6c-0.5-1.2-1.2-2.6-1.7-4.6c-1.3-5.2-1.3-11.6,0-17.6c1.1-4.9,9.8-16.4,17.9-26.8
			c1.9-2.4,3.4-4.3,3.8-5c0.9-1.4,1.1-4.9,1.3-8.5c0.2-3.1,0.4-6.5,1.1-9.5c1.1-4.8,6.8-9.3,10.4-11.7c-2.8-0.2-6.4-0.7-7.9-2.2
			c-0.6-0.6-0.9-1.3-0.8-2.1c0.2-4.2,13.9-30.1,16.5-33.5c2.7-3.5,9.3-3.1,12.5-3c0,0,0.1,0,0.1,0c0.9-4.2,5.7-4.4,9.3-4.6
			c4.9-0.2,5.6,5.5,5.8,7.3c0,0.2,0,0.3,0.1,0.4c0.3,0.4,1.6,1.6,2.6,2.5c2.3,2,4.9,4.2,5.8,6.2c0.9,2.2,1.1,5.7,1.1,7.7
			c3.4-1.4,12-4.9,13.7-5.5c0.6-0.9,0.8-6.1,0.5-10.5l2-0.1c0.4,7.6-0.1,11.8-1.7,12.4c-1.7,0.6-15.1,6.1-15.2,6.1l-1.4,0.6l0.1-1.5
			c0-0.1,0.2-5.5-1-8.4c-0.6-1.5-3.3-3.8-5.2-5.4c-2.2-1.9-3.2-2.7-3.3-3.6c0-0.1,0-0.3-0.1-0.6c-0.3-2.8-1-5.7-3.8-5.6
			c-5.1,0.2-7.4,0.8-7.5,3.7l0,0.9h-0.9c-0.2,0-0.6,0-1.1,0c-2.6-0.1-8.7-0.5-10.8,2.2c-2.8,3.7-15.9,29-16.1,32.4
			c0,0.2,0,0.4,0.3,0.6c1.4,1.5,6.8,1.8,9.9,1.7l4.2-0.2l-3.6,2c-0.1,0.1-11,6.2-12.4,12.2c-0.6,2.8-0.8,6.1-1,9.2
			c-0.2,4.1-0.5,7.6-1.7,9.5c-0.5,0.8-1.9,2.6-3.9,5.2c-5.7,7.4-16.4,21.1-17.5,26c-1.2,5.7-1.2,11.7,0,16.7c0.5,1.8,1,3.1,1.6,4.3
			c0.7,1.5,1.2,2.7,1.2,4.4c0,0.1,0.5,0.4,1.8,0.6c3.5,0.6,10.4-0.4,13.5-3.2c0.8-0.8,2.1-1.9,3.6-3.2c6.4-5.7,18.2-16.4,21.3-19.9
			c3.7-4.4,10.9-14.4,10.9-14.5l1.6-2.2l0.2,2.7c0,0.2,2.2,24.6,2.9,30.8c0.1,1.4,0.4,2.7,0.6,4.1c0.8,5.2,1.7,10.7-0.6,17
			c-1.9,5-3,9-4.1,12.5c-0.6,1.9-1.1,3.6-1.6,5.2c-0.5,1.6-1.6,3.7-2.9,6c-2.2,4.3-5,9.6-5.6,14.3c-0.8,6.9-2.8,71.4-2.5,76.6
			c0,0.2,1,22.3-1.9,44.3c-2.5,19.4-1.9,59.1-1.1,62.2c0.6,2.1,4.5,3.1,5.9,3.3l0.9,0.1l-0.1,1c0,0.1-0.2,2.4-1.4,4.2
			c-0.3,0.5-7.2,11.9-2.8,35.2c2.7,14.6,4.9,28.6,6.5,38.9c0.9,5.5,1.5,9.8,2,12.2l0.4,2.1c1.3,6.7,3.1,16,3.6,28
			c0.1,0.7,2,19.5,2.1,24.1c0,1-0.1,2-0.2,3.1c-0.6,4.3-1.3,9.6,8.2,17.5c6.2,5.2,10.2,9.1,13.1,12c2.7,2.7,4.3,4.3,5.6,4.8
			c1.1,0.4,2,0.2,2.6-0.3c0.4-0.4,0.5-0.9,0.4-1.4c-0.1-0.5-0.1-0.9,0.2-1.3c0.5-0.7,1.6-0.8,3-0.8c1,0,2.5-0.1,2.9-0.5
			c0,0,0.1-0.1,0.1-0.4c0-0.9,0.3-1.4,0.6-1.7c0.9-0.7,2.2-0.5,3.5-0.2c0.5,0.1,1.5,0.3,1.8,0.2c0-0.1,0-0.3-0.1-0.8l-0.4-1.4
			l1.4,0.1c2.7,0.2,7.1-0.1,7.7-1.3c0.3-0.5-0.3-1.4-0.7-1.9c-0.5-0.6-1.7-1.3-3-2c-1-0.5-2-1.1-2.8-1.7l-1-0.7
			c-6-4.5-13.5-10-16.6-16.7c-4.1-8.9-7.1-21.2-7.1-21.3c-2.3-11-3-26.4-2.6-33.4c0.4-7,2-39.2,2.1-45.2c0-1.8,0.2-4.7,0.3-8.2
			c0.3-7.7,0.7-19.2,0.4-20.9c-0.4-2.4-1.5-5.4-1.5-5.5l-0.5-1.4l29.5,0.3l-0.1,1.1c0,0.1-0.8,13-0.8,17c0,4.1-0.9,17.5-1.8,22.9
			c-0.7,3.8-8.7,45.4-10.5,47.7l-0.2,0.2c-1.5,1.9-4.6,5.9-2.6,9.7c2,3.8,8.6,6.6,11.8,7.5c2.6,0.8,13,7.6,15.1,10.2
			c1.9,2.3,6.9,5.2,9.1,5.6c1.8,0.3,2.8,1.8,3.7,3c0.6,0.8,1.2,1.6,1.7,1.8c2.2,0.5,8.1,0.6,9,0c0.6-0.4,1-0.9,1.1-1.4
			c0.1-0.4,0-0.9-0.4-1.4l-2.1-3.1l3.4,1.6c0.6,0.3,1.5,0.5,1.8,0.4c0,0,0-0.2-0.1-0.6c-0.1-0.5-0.2-1-0.3-1.4
			c-0.4-2.2-0.7-3.6-4.3-6.2c-4.8-3.5-9.1-7-12.3-13.6c-1.2-2.5-2.4-4.4-3.5-6c-1.7-2.7-3.1-4.9-3.1-7.6l0-0.7
			c0-20.3,0.4-31.7,1.1-33.7l0.5-1.5c9-25,14.4-39.3,16.1-42.6c1.4-2.9,3.6-8.5,5.4-13.5c1.6-4.2,2.9-7.8,3.6-9
			c1-1.8,4.2-3.5,7.9-5.5c0.9-0.5,2.1-1,2.4-1.3c0.6-1.7,1.3-13.1-0.2-23.2l-0.1-0.4c-1.6-10.8-6.3-43.5-6.2-52.5
			c0.1-7.8,1.3-103.8,0.7-111c-1-11.7-3.4-20.1-6.7-23.5l-0.3-0.4l0.1-0.5c0.4-2.5,0.9-7,1.5-12.1c2.9-24.7,4.7-36.7,6.7-38.2
			l0.7-0.6l0.6,0.7c1.5,1.6,3.2,7.3,5.3,14.5c0.5,1.8,1,3.4,1.4,4.7c0.4,1.1,0.7,2.6,1.1,4.3c1.6,6.6,4.1,16.6,9.8,21.4
			c9.2,7.9,15.9,9.9,20,6.2c5.5-5.1,13.7-16.2,14.7-23.9c0.5-3.7,1-8.8,1.6-14.2c0.7-6.3,1.3-12.9,2-17.9c1.3-9.7,5-16.5,7.7-17.3
			c1.1-0.3,3.5-0.3,7.5-0.3c2.5,0,6.2,0.1,7-0.2c0.2-0.2,0.6-0.4,1-0.7c1.3-0.9,3.6-2.4,4.6-5.4l0.2-0.7h0.7c0.1,0,0.3,0,0.6,0
			c6.9,0.7,19,0.4,23.2-10.2c3.3-8.4,4.7-16.3,5.8-22c0.7-3.8,1.1-6.3,1.9-7.5c1.7-2.7,1.8-4.2,1.5-4.9c-0.2-0.5-0.5-0.9-1.1-1.2
			c-1.9-1-15.2-4.7-35.5-10.1c-9-2.4-50.6-9.1-61-6.1c-2,0.6-4.6,1.7-5,3.5c-0.5,2,1.6,4.4,2.4,5.1l0.3,0.3l0.7,30.2l-1.7-1.5
			c-0.1-0.1-13.3-11.5-18.7-13.8c-4.9-2-7.1-4.4-8.9-6.4c-0.4-0.4-0.8-0.8-1.1-1.2c-1.6-1.6-7-3.7-8.9-4.4l-0.7-0.2l0.2-12.8l2,0
			l-0.2,11.3c1.9,0.7,7.1,2.8,9,4.6c0.4,0.4,0.8,0.8,1.2,1.3c1.8,1.9,3.7,4.1,8.2,5.9c4.6,1.9,13.8,9.4,17.6,12.7l-0.6-24.8
			c-0.9-0.9-3.4-3.8-2.7-6.7c0.5-2.3,2.7-3.9,6.4-5c11.1-3.2,53.6,3.9,62,6.1c12.2,3.2,33.1,8.8,35.9,10.2c1.1,0.6,1.9,1.4,2.2,2.5
			c0.5,1.7-0.1,3.8-1.8,6.5c-0.6,0.9-1,3.5-1.6,6.8c-1,5.5-2.5,13.8-5.9,22.4c-4.6,11.7-17.5,12.3-25,11.5c-1.3,3.1-3.7,4.7-5.1,5.6
			c-0.3,0.2-0.7,0.4-0.8,0.6c-0.7,0.7-2.3,0.7-8.3,0.7c-2.7,0-6.1-0.1-6.9,0.2c-1.5,0.4-5,6.4-6.3,15.7c-0.7,5-1.4,11.5-2,17.8
			c-0.6,5.4-1.1,10.6-1.6,14.3c-1.1,8.2-9.6,19.8-15.3,25.1c-5,4.6-12.6,2.5-22.7-6.1c-6.1-5.3-8.7-15.6-10.4-22.5
			c-0.4-1.7-0.8-3.1-1.1-4.2c-0.4-1.3-0.9-2.9-1.4-4.7c-1.2-4-2.9-9.7-4.1-12.4c-1.7,5.2-4,24.7-5.3,35.7c-0.6,4.8-1.1,9.1-1.4,11.7
			c4.4,5,6.2,15.9,6.9,24.3c0.6,7.3-0.6,103.3-0.7,111.2c-0.1,8.8,4.6,41.4,6.1,52.1l0.1,0.4c1.5,10.1,0.9,23.4-0.2,24.7
			c-0.4,0.4-1.2,0.8-3.1,1.8c-2.4,1.2-6.3,3.2-7.1,4.6c-0.6,1.1-2,4.8-3.5,8.8c-1.9,5-4,10.8-5.5,13.7c-1.1,2.2-4.8,11.3-16,42.4
			l-0.5,1.5c-0.3,0.8-1,5.7-1,33.1l0,0.7c0,2.2,1.2,4,2.8,6.6c1.1,1.7,2.4,3.7,3.6,6.2c3,6.2,7,9.5,11.7,12.9c4.3,3.1,4.6,5,5.1,7.5
			c0.1,0.4,0.2,0.8,0.3,1.3c0.3,1.5-0.2,2.2-0.6,2.6c-0.5,0.4-1.2,0.5-1.9,0.4c0,0.3,0,0.5-0.1,0.8c-0.2,1-0.9,2-2,2.7
			c-1.8,1.2-9,0.6-10.5,0.3c-1.3-0.3-2.1-1.4-2.9-2.6c-0.7-1.1-1.5-2.1-2.4-2.2c-2.9-0.5-8.3-3.8-10.3-6.3c-1.8-2.2-12-8.9-14.2-9.5
			c-0.4-0.1-10.1-3-13-8.5c-2.6-4.9,1.1-9.8,2.8-11.9l0.2-0.2c1.2-2,7.9-34.7,10.1-46.8c1-5.2,1.8-18.5,1.8-22.5
			c0-3.4,0.6-12.9,0.8-16.1l-24.6-0.3c0.4,1.2,0.9,2.9,1.1,4.5c0.3,1.8,0,10.3-0.4,21.4c-0.1,3.4-0.2,6.4-0.3,8.1
			c-0.1,6.2-1.7,38.1-2.1,45.3c-0.4,6.8,0.2,22.1,2.5,32.8c0,0.1,3,12.3,7,20.9c2.9,6.2,10.1,11.6,16,16l1,0.7
			c0.7,0.5,1.7,1.1,2.6,1.6c1.5,0.8,2.9,1.6,3.6,2.5c1.2,1.5,1.5,2.9,0.9,4.1c-1.2,2.3-6,2.5-8.4,2.5c0,0.5-0.1,1-0.5,1.4
			c-0.9,0.9-2.3,0.6-3.7,0.3c-0.5-0.1-1.4-0.3-1.7-0.2c0,0,0,0,0,0.1c0,0.7-0.2,1.4-0.6,1.9c-1,1.1-2.8,1.1-4.3,1.1
			c-0.4,0-0.8,0-1.2,0c0.1,1-0.3,2.1-1,2.8C351,778.2,350,778.6,349,778.6z"/>
	</g>
	<g fill="#0A0A0A" stroke="#0A0A0A">
		<path d="M356.8,315.4c-6.7,1.4-15.1,1.3-21.8-0.4c-4.3-1.1-8.8-3-10.3-7.6c-1.3-4-1.8-9.3-1.4-13.4c0.1-1.3-1.9-1.4-2-0.1
			c-0.3,4-0.2,9.2,1.3,13.5c-0.7,2.9-1.7,5.7-3.1,8.4c-0.6,1.2,1.1,2.3,1.7,1.1c1.1-2.1,2-4.4,2.7-6.7c1.1,1.9,2.7,3.5,4.8,4.5
			c8.6,3.9,19.3,4.5,28.5,2.7C358.5,317.2,358.1,315.2,356.8,315.4z"/>
	</g>
	<g fill="#0A0A0A" stroke="#0A0A0A">
		<path d="M420,310.2c-2.8,6.6-9.2,9.5-16,9.7c-5.9,0.2-13.4,1.4-17.5-3.7c-0.8-1-2.3,0.4-1.5,1.4c4.9,6,13.5,4.5,20.3,4.3
			c3.7-0.1,7.1-1.2,10-3.1c-0.5,2.7-0.4,5.4-0.1,8.1c0.1,1.3,2.1,0.9,2-0.4c-0.3-3.2-0.4-6.3,0.6-9.4c0-0.1,0-0.3,0-0.4
			c1.7-1.7,3.2-3.7,4.2-6C422.5,309.7,420.5,309,420,310.2z"/>
	</g>
	<g fill="#0A0A0A" stroke="#0A0A0A">
		<path d="M502.8,296.3c-7.7,0.1-15.2-0.9-22.8-2.1c-3.2-0.5-7.1-1.6-10.9-1.9c-0.1,0-0.2-0.1-0.3-0.1c-7.5-0.7-13.7-2.6-20.4-5.8
			c-3.4-1.7-6.4-3.8-8.9-6.7c-2.4-2.7-2.9-6.4-4.6-9.5c-0.6-1.2-2.4-0.2-1.8,0.9c1.4,2.6,1.9,5.6,3.5,8.1c0,0.1,0,0.1,0,0.1
			c1.7,8.6,4.4,17,6.6,25.5c2,8,3.3,16.3,5.8,24.2c0,0.1,0.1,0.2,0.2,0.3c-4.1,9.3-17.5,11.5-26.7,12.3c-1.3,0.1-0.9,2.1,0.4,2
			c5.8-0.5,12.7-1.5,18.4-4.3c-2,7.1-5.4,15.4-1.7,22.2c0.6,1.2,2.4,0.2,1.8-0.9c-3.5-6.5,0.6-15.4,2.2-22.1c0-0.2,0-0.3,0-0.5
			c3.3-2,6.1-4.7,7.6-8.4c6.9-8,5.4-20.8,8-30.4c2.3-8.4,16.6-3.7,22.6-2.7c6.9,1.1,13.9,1.9,20.9,1.8
			C504,298.3,504.1,296.3,502.8,296.3z M456,304.6c-1.1,7.1-1,16.4-5.4,22.6c-2.3-7.5-3.6-15.3-5.4-22.9c-1.8-7.3-4.1-14.5-5.8-21.9
			c1.9,1.9,4,3.4,6.4,4.8c4.8,2.8,9.9,4.6,15.2,5.8C456.9,294.7,456.6,300.8,456,304.6z"/>
	</g>
	<g fill="#0A0A0A" stroke="#0A0A0A">
		<path d="M533.9,255.5c-2.2,0.5-4.5,0.9-6.8,1.1c0.3-0.5,0.5-1.1,0.6-1.7c0.7-6.8-5.1-8.6-10.1-5.4c-3.2-3.2-4.1-5.7-9.3-6.1
			c-2.3-0.2-4.5,0.2-5.8,1.6c-1.1-3.7-3-6.9-8.1-4.9c-1.4,0.5-2.5,1.3-3.4,2.2c-2.6-2.5-6.5-3.9-10-2.6c-0.2,0.1-0.4,0.2-0.5,0.3
			c-2.3-1.3-4.9-1.7-7.7-1.3c-0.9,0.2-1.7,0.5-2.5,0.9c-1.1-2.6-3.5-3.8-6.3-4.1c-2.9-0.3-6.2,0.4-7,3.4c-2.3-0.2-4.7,0.2-6.4,1.7
			c-0.3-0.6-0.6-1.2-1-1.6c-1.3-1.4-3.8-1.2-5.6-1c-2.4,0.2-4.3,1-5.8,2.8c-1.5-2.4-0.4-5,2-7c1-0.9-0.4-2.4-1.4-1.5
			c-6,5.1-4.4,9.1,1.6,13.2c8.5,5.7,18.5,8.9,28.4,11.1c10.7,2.4,21.8,2.9,32.7,2.9c7,0,14.3,0.2,21.4-0.4c-5.4,1-10.9,1.8-16.5,2.1
			c-8.1,0.4-16.3-0.4-24.4-0.8c-9.1-0.4-17.4-1.7-26-4.6c-8.2-2.7-15.1-8.2-22.2-12.9c-1.1-0.7-2.2,1-1.1,1.7
			c6.8,4.5,13.4,9.7,21.1,12.5c8.6,3.2,17.1,4.7,26.2,5.1c8.8,0.4,17.6,1.2,26.4,0.9c9.1-0.3,18.1-2.2,26.9-4.1c0.8-0.2,1-1,0.6-1.6
			c0.1,0,0.3-0.1,0.4-0.1C535.6,257.2,535.1,255.2,533.9,255.5z M447.2,246c-0.4,0-0.7,0.2-0.8,0.5c-0.7-0.4-1.4-0.7-2.1-1.1
			c-1.4-0.8-2.7-1.7-4.1-2.5c-0.2-0.2-0.5-0.3-0.7-0.5c0.1-0.1,0.1-0.1,0.2-0.2c1.5-1.9,3.8-2.1,6-2.1c1.3,0,2.2,0,2.8,1.3
			C449.1,242.6,449.9,246,447.2,246z M492.4,244.4c1-2.6,3.5-2.9,7.5-0.9c0.5,1.4,0.8,2.8,1.1,4.3c-2.6-0.7-5.6-0.5-8.4,0.3
			c0-0.1-0.1-0.3-0.2-0.4C489.9,244.9,491.8,245.8,492.4,244.4z M481.8,241.9C481.8,241.9,481.8,241.9,481.8,241.9
			c0.2-0.5,0.9-0.5,1.6-0.5c2.3-0.1,4.5,0.9,6.1,2.5c0.1,0.1,0.2,0.2,0.3,0.2c-0.6,1.4-0.4,3.1,0.9,4.7c-1.2,0.5-2.4,1.1-3.4,1.8
			c-0.1-0.1-0.1-0.2-0.2-0.4c-0.7-1.4-1.9-2.2-3.2-2.7c0.1-0.4,0-0.8-0.4-1.1c-0.9-0.5-1.2-1.6-1.5-2.6c-0.1-0.4-0.2-0.8-0.2-1.2
			C481.7,242.3,481.7,242,481.8,241.9z M473.9,240.7c2-0.3,3.9,0.2,5.6,1.3c-0.1,1.6,0.7,3.8,1.7,5.1c-1.5-0.1-3.1,0.1-4.5,0.4
			c-0.2,0-0.3,0.1-0.4,0.2c-0.5-0.8-1.1-1.5-1.7-2c-1.4-1.2-3.2-1.7-5-1.9C469.9,241.7,472.1,241,473.9,240.7z M463.8,237.6
			c2.1,0,4.1,1.2,4.7,3.3c0,0.1,0.1,0.1,0.1,0.2c-0.6,0.7-1,1.6-1,2.5c-1.6,0-3.3,0.2-4.8,0.3c-0.4-2.1-1.5-4-3.8-4.5
			C459.5,237.5,462.4,237.6,463.8,237.6z M450.1,247.2c-0.1-0.1-0.2-0.1-0.3-0.2c1-0.9,1.4-2.4,1.3-3.9c0.1,0,0.1-0.1,0.2-0.2
			c1.2-1.6,3.1-1.8,5-1.8c2.6,0,4.4,1,4.6,3.6c-0.9,0.8-1.1,2-1.7,3.1C457.2,251.3,452.3,248.7,450.1,247.2z M466.3,252.8
			c-2-0.4-5.7-0.5-6.8-2.6c0,0,0,0,0,0c0.2-0.2,0.5-0.4,0.7-0.6c0.9-0.8,1.1-3,2.1-3.6c0.1,0,0.1-0.1,0.2-0.1
			c1.7-0.1,3.4-0.2,5.1-0.2c3.3-0.1,9.3,1.8,7.1,6.5C473.5,254.9,468.3,253.3,466.3,252.8z M483.1,256.1c-0.2,0.1-0.4,0.3-0.5,0.5
			c-0.3,0-0.6-0.1-0.9-0.1c-2.8-0.3-5.6-0.7-8.3-1.2c1.1-0.3,2.2-0.9,3.1-2.1c0.9-1.1,1-2.5,0.7-3.8c0,0,0,0,0,0
			c2.3-0.5,4.8-0.8,6.9,0.5C487,251.7,485.5,254.8,483.1,256.1z M485.6,256.8c1.3-1.1,2.1-2.5,2.1-4.1c6.2-4.7,18.3-5.4,19.1,4.7
			C499.7,257.5,492.7,257.4,485.6,256.8z M503.1,248.5c0-0.1,0.1-0.2,0.1-0.3c0.4-4.9,8.5-2.3,10-1c0.8,0.7,1.4,1.7,2.1,2.6
			c-3-0.6-6.1,0.7-7.5,3.3C506.7,251,505.1,249.5,503.1,248.5z M508.8,257.3c0-0.5-0.1-0.9-0.2-1.4c0.2-0.1,0.4-0.3,0.5-0.6
			c1.9-8.5,8.7-1.2,11.1,1.8C516.4,257.2,512.6,257.3,508.8,257.3z M523.7,256.4c-1.9,0.6-3.1-2.2-3.7-3.2c-0.5-0.7-1-1.3-1.5-1.8
			c0.9-0.4,1.9-0.9,2.8-1.3C526.2,251.5,527.1,253.6,523.7,256.4z"/>
	</g>
	<g fill="#0A0A0A" stroke="#0A0A0A">
		<path d="M406.6,251.7c-1.8,6-5.1,11-9.9,14.9c-6,4.8-13.4,5.2-20.7,4.9c-8-0.3-14.8-1.5-21.5-6.2c-5.4-3.8-10.2-8.5-14.5-13.5
			c1.3-0.5,2.4-1.3,3.3-2.7c0.7-1.1-1-2.2-1.7-1.1c-1.9,3.2-7.4,2.9-10.7,3.7c-1.7,0.5-3.3,1.2-4.6,2.2c2.3-7.6,3.2-15.6,6.2-23
			c0.5-1.2-1.5-1.9-1.9-0.6c-1.5,3.7-2.4,7.6-3.3,11.4c-3.3-0.8-6.6-1.6-10-2.3c1.1-3.1,2.2-6.2,2.5-9.6c0.1-1.3-1.9-1.4-2-0.1
			c-0.4,5.5-3.4,11.3-4.7,16.8c-1.4,5.6-2.5,11.3-3.6,17c0,0.1,0,0.1,0,0.2c-2.7,0.7-5.2,2.1-7.9,3.3c-1.2,0.6-0.3,2.4,0.9,1.8
			c4.4-2.1,14.8-5.9,17.3-1c-3.9-0.2-7.7,0.4-11.4,1.8c-1.2,0.5-0.3,2.3,0.9,1.8c3.6-1.4,7.2-1.9,11-1.6c0.1,0.8,0,1.7-0.2,2.8
			c-0.1,0.5-0.2,0.9-0.2,1.3c-1.9,0.1-3.9,0.1-5.9,0.2c-2.6,0.2-4.5,1.8-7,2.4c-1.3,0.3-0.9,2.3,0.4,2c2-0.5,3.6-1.6,5.5-2.2
			c1.9-0.6,4.4-0.4,6.6-0.4c-0.1,1-0.2,1.9-0.3,2.9c0,0.8-0.2,1.5-0.3,2.2c-2.1-0.3-4.1-0.3-6.2,0.2c-2.3,0.5-4.4,1.8-6.7,2.4
			c-1.3,0.3-0.9,2.3,0.4,2c4.2-1.1,7.5-3.1,11.9-2.7c-0.6,1.6-1.5,3-2.5,4.4c-0.1,0-0.1-0.1-0.1-0.1c-10.2-2.8-14.6,12.5-16.2,19.9
			c-1.4,6.8-0.9,13.8-2.2,20.6c-1.3,6.6-5.2,12.4-7.8,18.6c-0.5,1.2,1.4,1.8,1.9,0.6c2.1-4.9,4.3-9.4,6-14.1c2,3,7.4,2.5,10.3,0.9
			c0.3-0.2,0.5-0.5,0.5-0.7c0.2-0.1,0.4-0.4,0.5-0.8c0.5-6.9,3-13.5,4.2-20.4c1.3-7.1,2.2-14.2,3.3-21.3c1.1-1.7,3-3,3.8-5
			c0.9-2.3,1.2-4.3,1.3-6.7c0.3-4.4,1.6-8.2,0.4-12.5c-0.1-0.3-0.2-0.5-0.3-0.7c0.1-0.1,0.2-0.3,0.3-0.5c0.2-1.5,0.6-2.9,1-4.2
			c0.4,0.1,0.8,0,1-0.4c0.5-1,0.9-2,1.3-3c0.2,0,0.4-0.1,0.6-0.3c2.8-3.2,6.7-4.1,10.8-4.7c0.6-0.1,1.1-0.2,1.7-0.3
			c5.3,6.3,11.4,12,18.3,16.5c7,4.5,15.4,4.6,23.5,4.8c13.8,0.3,25.1-8,29-21.3C408.9,251.1,406.9,250.4,406.6,251.7z M306.5,332.3
			c-2.5,1.3-7.7,2.2-8-1.8c0-0.2-0.1-0.4-0.2-0.5c0.4-1.3,0.8-2.7,1-4.1c0.1,0,0.1,0,0.2,0c2.7-0.3,5.3-0.3,8-0.3
			C307.1,327.8,306.7,330,306.5,332.3z M314.1,289.9c-0.1,0.2-0.1,0.4-0.1,0.6c0,0,0,0,0,0c-1.1,7.2-2.1,14.4-3.3,21.6
			c-0.6,3.9-1.7,7.7-2.6,11.5c-2.8-0.1-5.6,0-8.3,0.3c0.1-0.9,0.3-1.9,0.4-2.9c0.5-5.6,0.6-11.1,2-16.5c1.2-4.6,5.4-16.5,12.4-15
			C314.3,289.6,314.2,289.8,314.1,289.9z M323.9,254.2c-0.3,0-0.7,0.1-0.9,0.5c-1.7,3-2.9,6.3-3.5,9.7c-1.5-0.8-3.5-1-5-1.1
			c-1.1-0.1-2.2-0.1-3.2,0c1.1-6,2.4-12,3.9-18c0.3-1.3,0.7-2.7,1.2-3.9l10.2,2.4c0,0,0,0,0,0C325.8,247.3,325,250.8,323.9,254.2z"
			/>
	</g>
	<g fill="#0A0A0A" stroke="#0A0A0A">
		<path d="M396.4,245.3c0.2-1.3-1.9-1.4-2-0.1c-0.3,2.1,1.1,4.3,0.3,6.3c-0.5,1.2,1.5,1.9,1.9,0.6
			C397.5,249.8,396.1,247.6,396.4,245.3z"/>
	</g>
	<g fill="#0A0A0A" stroke="#0A0A0A">
		<path d="M390,239.8c-1.5,4.3-3.9,9.2-8.9,9.9c-1.3,0.2-0.9,2.2,0.4,2c5.8-0.8,8.7-6.3,10.5-11.3
			C392.4,239.2,390.4,238.6,390,239.8z"/>
	</g>
	<g fill="#0A0A0A" stroke="#0A0A0A">
		<path d="M358.6,242.9c0.1-1.3-2-1.4-2-0.1c-0.1,2.9-0.1,5.8,0.1,8.7c0.1,1.3,2.1,1.4,2,0.1C358.5,248.7,358.5,245.8,358.6,242.9z"
			/>
	</g>
	<g fill="#0A0A0A" stroke="#0A0A0A">
		<path d="M414.8,409.1c-2.8,4.9-6.1,9.2-10.1,13.2c-2.4,2.4-4,2.9-6.4-0.1c-1.5-2-3.4-3.5-5.3-5.2c-3.2-3-5.8-6.4-9.2-9.2
			c-4-3.2-8.1-6.2-12.6-8.8c7.5,0,15.3-1.3,22.1-4.4c8.7-3.9,12.4-14.8,16.7-22.5c0.6-1.1-1.1-2.3-1.7-1.1
			c-4.6,8.3-8.2,18.4-17.4,22.5c-5.3,2.4-11.7,3-17.4,3.3c-2.6,0.2-5.2,0.1-7.8-0.1c-0.5,0-0.9-0.1-1.2-0.1
			c-0.1-0.2-0.1-0.3-0.2-0.5c-0.3-0.9-1.3-0.6-1.7,0c-0.4-0.4-0.4-0.8-1.7-1.4c-2.6-1.1-4.5-0.1-6.7,1.4c-4.3,2.7-10.5-3.5-13.8-5.9
			c-6.5-4.6-13.3-8.4-21.2-9.8c-1.3-0.2-1.4,1.8-0.1,2c10.4,1.9,18.7,8.4,27.1,14.4c2.8,1.9,4.7,3,7.9,1.8c0.2-0.1,0.3-0.1,0.5-0.2
			c7.5,11.9,5.8,23.9,0.1,36.2c-5.6,12-7.6,25.3-10.3,38.2c-5.5,26.8-10,53.8-13.6,81c-0.2,1.3,1.9,1.4,2,0.1
			c3.9-29.6,8.9-59,15.1-88.3c1.4-6.8,2.8-13.6,4.7-20.3c1.8-6.4,5.2-12.1,7.5-18.4c3.6-9.7,1.6-20.8-3.8-29.4
			c1.7-0.8,3.3-1.2,5.2,0.4c0.4,0.3,0.9,0.5,1.5,0.6c6,16.8,2.7,34.6-1.9,51.4c-4.7,16.9-9.6,33.6-12.4,50.9
			c-3,18.1-4.1,36.5-6.2,54.8c-1.1,9.7-2.7,19.3-4.8,28.8c-1,4.4-2.2,8.7-3.1,13c-8.8,0.4-16.5,0.1-24.3-4.5
			c-1.1-0.7-2.2,1.1-1.1,1.7c8,4.7,15.9,5.2,25,4.8c-0.5,2.8-0.9,5.5-0.9,8.4c0,0,0,0,0,0c-0.1,0.6,0.3,1.4,1.2,1.3
			c3.9-0.5,7.7,0.1,11.5,0.5c1.3,0.1,1.4-1.9,0.1-2c-3.6-0.4-7.1-0.8-10.7-0.5c0.4-8.8,3.3-17.3,5.2-25.9c1.8-8.4,3-17,4.1-25.5
			c2.3-18.9,3.4-37.9,6.5-56.6c3.2-19.1,9.4-37.3,14-56.1c3.4-13.9,4.8-28.4,0.8-42.2c3.5,5.1,6.3,10.3,8.1,16.4
			c1.8,6.3,2.8,12.8,4.6,19.1c3.8,13.1,9.3,25.6,13,38.7c3.7,13.5,5,27.5,7.2,41.2c1.1,6.9,2.8,13.6,4.3,20.4
			c1.4,6.8-1.1,13.6,0.3,20.4c0.3,1.3,2.3,0.9,2-0.4c-1.4-6.8,0.8-13.6-0.3-20.4c-1.1-6.9-3.1-13.6-4.3-20.4
			c-2.4-14.4-3.9-28.9-7.7-43c-3.8-13.7-9.7-26.7-13.5-40.5c-1.7-6.3-2.6-12.7-4.6-18.9c-1.7-5.4-4.8-10.1-8-14.7
			c0.3,0,0.6,0,0.9,0.1c0,0.3,0.1,0.6,0.5,0.8c5.6,2.9,10.7,6.8,15.6,10.7c2.9,2.3,5.1,5.1,7.6,7.8c2.3,2.5,4.7,4.4,6.7,7.3
			c2.4,3.5,4,1.7,6.6-0.7c4.7-4.2,8.5-9.3,11.6-14.8C417.2,409.1,415.4,408,414.8,409.1z"/>
	</g>
	<g fill="#0A0A0A" stroke="#0A0A0A">
		<path d="M349,411.4c-2.4-2.6-3.1-6-5.1-8.8c-2-2.8-4-5.7-6.5-8.2c-5-5.2-12.5-7.7-19.1-9.7c-1.3-0.4-1.9,1.6-0.6,1.9
			c7.1,2.2,14.1,4.8,19.4,10.3c2,2.1,3.6,4.7,5.3,7c2.1,2.9,2.7,6.2,5.1,8.8C348.4,413.8,349.9,412.4,349,411.4z"/>
	</g>
	<g fill="#0A0A0A" stroke="#0A0A0A">
		<path d="M410.9,592.5c-6,5.4-13.3,7.3-20.9,9.8c-7.7,2.6-15.1,5.7-23.3,5.7c-1.3,0-1.4,2-0.1,2c8.4,0,16-3.1,23.9-5.8
			c8-2.7,15.5-4.6,21.8-10.3C413.3,593.1,411.9,591.6,410.9,592.5z"/>
	</g>
	<g fill="#0A0A0A" stroke="#0A0A0A">
		<path d="M367.1,701.5c-1.4,0.1-2.9,0-4.3-0.4c-1.2-0.4-1.4-3.1-1.5-4.1c-0.1-1.3-2.1-0.9-2,0.4c0.2,1.6,0.5,4.2,1.9,5.2
			c1.6,1.1,3.8,1.1,5.7,1C368.3,703.5,368.4,701.4,367.1,701.5z"/>
	</g>
	<g fill="#0A0A0A" stroke="#0A0A0A">
		<path d="M405.2,731c-1.2-1-2.5-1.9-3.7-2.9c-0.4-0.4-1-0.5-1.4-0.1c-0.4,0.3-0.5,1.1-0.1,1.4c1.3,1.1,2.7,2.2,4.1,3.2
			C405.1,733.5,406.2,731.8,405.2,731z"/>
	</g>
	<g fill="#0A0A0A" stroke="#0A0A0A">
		<path d="M407.6,728.5c-0.9-0.6-1.7-1.4-2.4-2.2c-0.9-1-2.4,0.4-1.5,1.4c0.8,0.9,1.8,1.8,2.8,2.5
			C407.6,731,408.7,729.3,407.6,728.5z"/>
	</g>
	<g fill="#0A0A0A" stroke="#0A0A0A">
		<path d="M365.2,768c-1.8-1.4-3.7-2.7-5.6-3.9c-1.1-0.7-2.2,1-1.1,1.7c1.9,1.2,3.8,2.5,5.6,3.9C365.1,770.5,366.2,768.8,365.2,768z
			"/>
	</g>
	<g fill="#0A0A0A" stroke="#0A0A0A">
		<path d="M358.8,769.7c-1.2-0.6-2.4-1.3-3.6-1.9c-1.2-0.6-2.3,1.1-1.1,1.7c1.2,0.6,2.4,1.3,3.6,1.9
			C358.8,772,359.9,770.3,358.8,769.7z"/>
	</g>
	<g fill="#0A0A0A" stroke="#0A0A0A">
		<path d="M352.2,772.4c-0.2-0.2-0.5-0.4-0.8-0.5c-0.1,0-0.2-0.1-0.3-0.1c0,0,0,0,0,0c-0.2-1.1-1.9-1.1-2,0.1c0,0.6,0.2,1.1,0.7,1.5
			c0.2,0.2,0.5,0.3,0.7,0.4c0,0,0.1,0.1,0.1,0c0,0,0,0,0.1,0c0,0.4,0.3,0.7,0.7,0.9c0.5,0.2,1.2-0.1,1.3-0.7
			C352.9,773.4,352.7,772.9,352.2,772.4z"/>
	</g>
	<g fill="#0A0A0A" stroke="#0A0A0A">
		<path d="M329.8,743.5c-1.1,0.3-2.5,0.7-3.1-0.5c-0.4-0.8-0.1-2.1,0.1-3c0.3-1.3-1.7-1.9-1.9-0.6c-0.4,1.6-0.6,3.4,0.3,4.9
			c1.1,1.8,3.3,1.7,5.1,1.2C331.5,745.2,331.1,743.2,329.8,743.5z"/>
	</g>
</g>
</svg>
