<?xml version="1.0" encoding="UTF-8" standalone="no"?>
<!-- Created with Inkscape (http://www.inkscape.org/) -->

<svg
   xmlns:dc="http://purl.org/dc/elements/1.1/"
   xmlns:cc="http://creativecommons.org/ns#"
   xmlns:rdf="http://www.w3.org/1999/02/22-rdf-syntax-ns#"
   xmlns:svg="http://www.w3.org/2000/svg"
   xmlns="http://www.w3.org/2000/svg"
   xmlns:sodipodi="http://sodipodi.sourceforge.net/DTD/sodipodi-0.dtd"
   xmlns:inkscape="http://www.inkscape.org/namespaces/inkscape"
   width="650"
   height="280"
   id="svg2"
   version="1.1"
   inkscape:version="0.48.3.1 r9886"
   sodipodi:docname="wal.svg">
  <title
     id="title4004">Wal</title>
  <defs
     id="defs4" />
  <sodipodi:namedview
     id="base"
     pagecolor="#ffffff"
     bordercolor="#666666"
     borderopacity="1.0"
     inkscape:pageopacity="0.0"
     inkscape:pageshadow="2"
     inkscape:zoom="1.2968122"
     inkscape:cx="173.16761"
     inkscape:cy="140.62024"
     inkscape:document-units="px"
     inkscape:current-layer="layer1"
     showgrid="false"
     inkscape:window-width="1600"
     inkscape:window-height="1180"
     inkscape:window-x="-2"
     inkscape:window-y="-3"
     inkscape:window-maximized="1" />
  <metadata
     id="metadata7">
    <rdf:RDF>
      <cc:Work
         rdf:about="">
        <dc:format>image/svg+xml</dc:format>
        <dc:type
           rdf:resource="http://purl.org/dc/dcmitype/StillImage" />
        <dc:title>Wal</dc:title>
        <dc:date>2012-05-24</dc:date>
        <dc:creator>
          <cc:Agent>
            <dc:title>Frank Tremmel</dc:title>
          </cc:Agent>
        </dc:creator>
        <dc:subject>
          <rdf:Bag>
            <rdf:li>Wal</rdf:li>
            <rdf:li>whale</rdf:li>
          </rdf:Bag>
        </dc:subject>
        <dc:description>Wal Zeichnung</dc:description>
        <dc:language>de-DE</dc:language>
        <cc:license
           rdf:resource="http://creativecommons.org/licenses/publicdomain/" />
      </cc:Work>
      <cc:License
         rdf:about="http://creativecommons.org/licenses/publicdomain/">
        <cc:permits
           rdf:resource="http://creativecommons.org/ns#Reproduction" />
        <cc:permits
           rdf:resource="http://creativecommons.org/ns#Distribution" />
        <cc:permits
           rdf:resource="http://creativecommons.org/ns#DerivativeWorks" />
      </cc:License>
    </rdf:RDF>
  </metadata>
  <g
     inkscape:label="Ebene 1"
     inkscape:groupmode="layer"
     id="layer1"
     transform="translate(0,-772.36218)">
    <g
       id="g3960"
       transform="translate(-69.400952,695.55177)">
      <path
         sodipodi:nodetypes="cccsccccccccccsc"
         inkscape:connector-curvature="0"
         id="path2985"
         d="m 102.50989,162.48908 c -48.632063,45.61177 -15.918086,105.08607 14.11075,112.64408 -24.860727,3.65639 -12.12523,15.65749 -2.11491,25.85333 14.22421,13.44965 59.52285,14.94114 110.65046,8.09866 25.5638,-3.42124 52.58485,-8.92597 77.90745,-16.06116 -6.02114,24.70218 85.79356,81.09015 97.38375,50.28326 -30.05291,-23.01702 -38.38672,-67.82948 -29.66693,-76.12721 80.76059,-25.74792 164.13176,-48.88525 222.46827,-97.05724 46.37087,36.69597 75.07619,42.42816 118.86786,61.06972 -31.21931,-27.41282 -71.88684,-50.94666 -94.68907,-83.97087 -17.11835,-8.91097 -15.32008,-38.39268 -24.17879,-61.06972 -13.78743,16.88097 -20.69652,34.74456 -14.1769,54.52653 -29.87103,0.0985 -99.58933,1.12418 -142.91506,-1.43333 -33.2297,-9.7611 5.29854,-74.010959 -47.7099,-8.62973 -26.7903,-4.79084 -45.64257,-10.27016 -78.73613,-20.4718 -61.71621,-19.025049 -148.81761,-7.91753 -207.20085,52.34548 z"
         style="fill:none;stroke:#000000;stroke-width:2.83464575;stroke-linecap:butt;stroke-linejoin:miter;stroke-miterlimit:4;stroke-opacity:1;stroke-dasharray:none" />
      <path
         sodipodi:nodetypes="ccccc"
         inkscape:connector-curvature="0"
         id="path3755"
         d="m 370.52397,266.97474 c -4.44417,10.01677 -3.37673,22.7072 1.64169,35.70531 18.96197,11.8956 58.32732,11.26698 50.40903,-5.24601 -27.91694,-1.87844 -31.79498,-12.90348 -31.61599,-36.24272 -7.45417,2.20258 -14.13723,3.70454 -20.43473,5.78342 z"
         style="fill:none;stroke:#000000;stroke-width:2.83464575;stroke-linecap:butt;stroke-linejoin:miter;stroke-miterlimit:4;stroke-opacity:1;stroke-dasharray:none" />
      <path
         sodipodi:nodetypes="cc"
         inkscape:connector-curvature="0"
         id="path3757"
         d="m 115.86889,275.35901 c 28.88115,10.65492 145.33002,10.33971 160.26652,-49.73539"
         style="fill:none;stroke:#000000;stroke-width:3.54330707;stroke-linecap:round;stroke-linejoin:miter;stroke-miterlimit:4;stroke-opacity:1;stroke-dasharray:none" />
      <path
         d="m 244.27889,184.84497 c 0,8.73311 -5.85897,15.8127 -13.08637,15.8127 -7.2274,0 -13.08637,-7.07959 -13.08637,-15.8127 0,-8.73311 5.85897,-15.8127 13.08637,-15.8127 7.2274,0 13.08637,7.07959 13.08637,15.8127 z"
         sodipodi:ry="15.812696"
         sodipodi:rx="13.08637"
         sodipodi:cy="184.84497"
         sodipodi:cx="231.19252"
         id="path3759"
         style="fill:none;stroke:#000000;stroke-width:2.83464575;stroke-linecap:round;stroke-miterlimit:4;stroke-opacity:1;stroke-dasharray:none"
         sodipodi:type="arc" />
      <path
         sodipodi:nodetypes="cc"
         inkscape:connector-curvature="0"
         id="path3761"
         d="m 578.72683,140.51078 c 8.8679,-0.0727 25.06146,-0.0546 36.24272,5.01229"
         style="fill:none;stroke:#000000;stroke-width:2.83464575;stroke-linecap:butt;stroke-linejoin:miter;stroke-miterlimit:4;stroke-opacity:1;stroke-dasharray:none" />
      <path
         sodipodi:nodetypes="cccccccccccc"
         inkscape:connector-curvature="0"
         id="path3763"
         d="m 174.65906,280.85493 c 90.09788,-5.97951 101.80664,-53.47671 101.80664,-53.47671 0,0 208.97862,-10.13858 282.21197,-47.9258 11.84858,-6.11458 29.67267,-8.17877 33.15824,-8.86789 -5.25351,3.41755 -9.6564,8.27834 -17.73581,14.26574 -34.18275,17.8181 -57.96118,41.25189 -203.96169,81.35334 -9.82027,-16.82802 -66.25815,12.06915 -67.08758,25.83258 -17.96147,6.66177 -119.92186,34.09514 -181.2136,13.88019 -8.58251,-4.49821 -10.88723,-8.99642 -15.808,-13.49463 -5.21435,-6.54079 -4.35362,-13.10506 3.85562,-16.19356 l 7.32565,-0.38555 c 11.29457,3.23696 39.83605,6.87671 57.44856,5.01229 z"
         style="fill:none;stroke:#000000;stroke-width:1.77165353;stroke-linecap:butt;stroke-linejoin:miter;stroke-miterlimit:4;stroke-opacity:1;stroke-dasharray:none" />
      <path
         transform="translate(3.0844868,-0.38556085)"
         d="m 253.31348,107.35255 c 0,2.34233 -5.17864,4.24117 -11.56682,4.24117 -6.38818,0 -11.56683,-1.89884 -11.56683,-4.24117 0,-2.34234 5.17865,-4.24117 11.56683,-4.24117 6.38818,0 11.56682,1.89883 11.56682,4.24117 z"
         sodipodi:ry="4.2411695"
         sodipodi:rx="11.566826"
         sodipodi:cy="107.35255"
         sodipodi:cx="241.74666"
         id="path3765"
         style="fill:none;stroke:#000000;stroke-width:1.77165353;stroke-linecap:round;stroke-miterlimit:4;stroke-opacity:1;stroke-dasharray:none"
         sodipodi:type="arc" />
      <path
         sodipodi:nodetypes="cc"
         inkscape:connector-curvature="0"
         id="path3767"
         d="m 114.12601,276.61376 c -0.061,5.3982 1.00171,9.73855 3.47005,12.7235"
         style="fill:none;stroke:#000000;stroke-width:1.77165353;stroke-linecap:round;stroke-linejoin:miter;stroke-miterlimit:4;stroke-opacity:1;stroke-dasharray:none" />
      <path
         sodipodi:nodetypes="cc"
         inkscape:connector-curvature="0"
         id="path3767-6"
         d="m 127.0423,277.96322 c -0.63691,5.01229 1.65726,13.65434 6.57391,18.12136"
         style="fill:none;stroke:#000000;stroke-width:1.77165353;stroke-linecap:round;stroke-linejoin:miter;stroke-miterlimit:4;stroke-opacity:1;stroke-dasharray:none" />
      <path
         sodipodi:nodetypes="cc"
         inkscape:connector-curvature="0"
         id="path3767-4"
         d="m 140.53693,280.27658 c 0.19952,4.59572 2.15836,14.81825 8.48234,20.43472"
         style="fill:none;stroke:#000000;stroke-width:1.77165353;stroke-linecap:round;stroke-linejoin:miter;stroke-miterlimit:4;stroke-opacity:1;stroke-dasharray:none" />
      <path
         sodipodi:nodetypes="cc"
         inkscape:connector-curvature="0"
         id="path3767-7"
         d="m 155.18824,282.58995 c 0.003,7.36498 3.47957,13.87702 8.48234,18.12136"
         style="fill:none;stroke:#000000;stroke-width:1.77165353;stroke-linecap:round;stroke-linejoin:miter;stroke-miterlimit:4;stroke-opacity:1;stroke-dasharray:none" />
      <path
         sodipodi:nodetypes="cc"
         inkscape:connector-curvature="0"
         id="path3767-2"
         d="m 169.454,282.20439 c 1.2878,5.28549 2.06419,13.93364 10.41015,18.50692"
         style="fill:none;stroke:#000000;stroke-width:1.77165353;stroke-linecap:round;stroke-linejoin:miter;stroke-miterlimit:4;stroke-opacity:1;stroke-dasharray:none" />
      <path
         sodipodi:nodetypes="cc"
         inkscape:connector-curvature="0"
         id="path3767-3"
         d="m 182.94862,281.04771 c 0.91746,4.93369 1.07015,12.05932 11.56683,18.50692"
         style="fill:none;stroke:#000000;stroke-width:1.77165353;stroke-linecap:round;stroke-linejoin:miter;stroke-miterlimit:4;stroke-opacity:1;stroke-dasharray:none" />
      <path
         sodipodi:nodetypes="cc"
         inkscape:connector-curvature="0"
         id="path3767-40"
         d="m 196.44325,278.73435 c 0.41369,5.61809 2.90373,13.23597 10.02458,17.7358"
         style="fill:none;stroke:#000000;stroke-width:1.77165353;stroke-linecap:round;stroke-linejoin:miter;stroke-miterlimit:4;stroke-opacity:1;stroke-dasharray:none" />
      <path
         sodipodi:nodetypes="cc"
         inkscape:connector-curvature="0"
         id="path3767-1"
         d="m 210.709,276.80654 c 0.51562,8.28501 3.27562,12.8578 9.63902,16.96467"
         style="fill:none;stroke:#000000;stroke-width:1.77165353;stroke-linecap:round;stroke-linejoin:miter;stroke-miterlimit:4;stroke-opacity:1;stroke-dasharray:none" />
      <path
         sodipodi:nodetypes="cc"
         inkscape:connector-curvature="0"
         id="path3767-62"
         d="m 223.65836,272.74445 c 1.51543,8.03449 4.04154,11.83089 10.68279,16.9179"
         style="fill:none;stroke:#000000;stroke-width:1.77165353;stroke-linecap:round;stroke-linejoin:miter;stroke-miterlimit:4;stroke-opacity:1;stroke-dasharray:none" />
      <path
         sodipodi:nodetypes="cc"
         inkscape:connector-curvature="0"
         id="path3767-9"
         d="m 237.65148,268.40973 c -0.21706,5.01229 3.52877,9.61162 10.45692,14.62391"
         style="fill:none;stroke:#000000;stroke-width:1.77165353;stroke-linecap:round;stroke-linejoin:miter;stroke-miterlimit:4;stroke-opacity:1;stroke-dasharray:none" />
      <path
         sodipodi:nodetypes="cc"
         inkscape:connector-curvature="0"
         id="path3767-74"
         d="m 247.05663,263.52974 c 1.78855,5.69508 5.63258,10.03814 11.2942,12.82841"
         style="fill:none;stroke:#000000;stroke-width:1.77165353;stroke-linecap:round;stroke-linejoin:miter;stroke-miterlimit:4;stroke-opacity:1;stroke-dasharray:none" />
      <path
         sodipodi:nodetypes="cc"
         inkscape:connector-curvature="0"
         id="path3767-5"
         d="m 257.77816,256.24284 c 1.39269,5.19889 5.25848,9.23976 11.40713,10.76028"
         style="fill:none;stroke:#000000;stroke-width:1.77165353;stroke-linecap:round;stroke-linejoin:miter;stroke-miterlimit:4;stroke-opacity:1;stroke-dasharray:none" />
      <path
         sodipodi:nodetypes="cc"
         inkscape:connector-curvature="0"
         id="path3767-8"
         d="m 264.34403,249.18178 c 1.87583,4.43386 4.85257,6.3106 9.11314,8.03396"
         style="fill:none;stroke:#000000;stroke-width:1.77165353;stroke-linecap:round;stroke-linejoin:miter;stroke-miterlimit:4;stroke-opacity:1;stroke-dasharray:none" />
      <path
         transform="translate(-4.6267302,-3.8556085)"
         d="m 236.73437,187.93477 c 0,3.83291 -2.07146,6.94009 -4.62673,6.94009 -2.55528,0 -4.62673,-3.10718 -4.62673,-6.94009 0,-3.83291 2.07145,-6.9401 4.62673,-6.9401 2.55527,0 4.62673,3.10719 4.62673,6.9401 z"
         sodipodi:ry="6.9400954"
         sodipodi:rx="4.62673"
         sodipodi:cy="187.93477"
         sodipodi:cx="232.10764"
         id="path3889"
         style="fill:#000000;fill-opacity:1;stroke:#000000;stroke-width:1.77165353;stroke-linecap:round;stroke-miterlimit:4;stroke-opacity:1;stroke-dasharray:none"
         sodipodi:type="arc" />
      <path
         sodipodi:nodetypes="cc"
         inkscape:connector-curvature="0"
         id="path3767-8-4"
         d="m 271.48403,239.85296 c 1.87583,4.43386 3.21677,6.03797 6.3868,7.21606"
         style="fill:none;stroke:#000000;stroke-width:1.77165353;stroke-linecap:round;stroke-linejoin:miter;stroke-miterlimit:4;stroke-opacity:1;stroke-dasharray:none" />
      <path
         sodipodi:nodetypes="cc"
         inkscape:connector-curvature="0"
         id="path3767-8-6"
         d="m 275.84616,228.12976 c 1.87583,4.43386 3.21677,6.03796 7.2047,7.48868"
         style="fill:none;stroke:#000000;stroke-width:1.77165353;stroke-linecap:round;stroke-linejoin:miter;stroke-miterlimit:4;stroke-opacity:1;stroke-dasharray:none" />
    </g>
  </g>
</svg>
